  0
SECTION
  2
HEADER
  9
$ANGBASE
  50
0.0
  9
$ANGDIR
  70
1
  9
$MEASUREMENT
  70
1
  9
$INSUNITS
  70
4
  0
ENDSEC
  0
SECTION
  2
TABLES
  0
TABLE
  2
LTYPE
  70
4
  0
LTYPE
  5
40F
  2
CONTINUOUS
  70
0
  3
Solid line
  72
65
  73
0
  40
0.0
  0
LTYPE
  5
410
  2
DASHDOT
 70
0
  3
Dash Dot ____ _ ____ _
 72
65
 73
4
 40
2.0
 49
1.25
 49
-0.25
 49
0.25
 49
-0.25
  0
LTYPE
  5
411
  2
DASHED
 70
0
  3
Dashed __ __ __ __ __
 72
65
 73
2
 40
0.75
 49
0.5
 49
-0.25
  0
LTYPE
  5
43B
  2
DOTTED
 70
0
  3
Dotted .  .  .  .
 72
65
 73
2
 40
0.2
 49
0.0
 49
-0.2
  0
ENDTAB
  0
TABLE
  2
STYLE
  70
4
  0
STYLE
  2
KICAD
  70
0
  40
0
  41
1
  42
1
  50
0
  71
0
  3
isocp.shx
  0
STYLE
  2
KICADB
  70
0
  40
0
  41
1
  42
1
  50
0
  71
0
  3
isocp.shx
  0
STYLE
  2
KICADI
  70
0
  40
0
  41
1
  42
1
  50
15
  71
0
  3
isocp.shx
  0
STYLE
  2
KICADBI
  70
0
  40
0
  41
1
  42
1
  50
15
  71
0
  3
isocp.shx
  0
ENDTAB
  0
TABLE
  2
LAYER
  70
1
  0
LAYER
  2
BLACK
  70
0
  62
250
  6
CONTINUOUS
  0
ENDTAB
  0
ENDSEC
  0
SECTION
  2
ENTITIES
0
LINE
8
BLACK
6
CONTINUOUS
10
148.7999999999999829
20
-62.1849999999999952
11
149.2149609999999882
21
-62.2021629999999988
0
LINE
8
BLACK
6
CONTINUOUS
10
149.2149609999999882
20
-62.2021629999999988
11
149.6270879999999863
21
-62.2535339999999948
0
LINE
8
BLACK
6
CONTINUOUS
10
149.6270879999999863
20
-62.2535339999999948
11
150.0335649999999816
21
-62.3387639999999976
0
LINE
8
BLACK
6
CONTINUOUS
10
150.0335649999999816
20
-62.3387639999999976
11
150.4316149999999936
21
-62.4572679999999991
0
LINE
8
BLACK
6
CONTINUOUS
10
150.4316149999999936
20
-62.4572679999999991
11
150.8185200000000066
21
-62.6082389999999975
0
LINE
8
BLACK
6
CONTINUOUS
10
150.8185200000000066
20
-62.6082389999999975
11
151.1916359999999884
21
-62.7906440000000003
0
LINE
8
BLACK
6
CONTINUOUS
10
151.1916359999999884
20
-62.7906440000000003
11
151.5484150000000056
21
-63.0032379999999961
0
LINE
8
BLACK
6
CONTINUOUS
10
151.5484150000000056
20
-63.0032379999999961
11
151.8864189999999894
21
-63.2445689999999985
0
LINE
8
BLACK
6
CONTINUOUS
10
151.8864189999999894
20
-63.2445689999999985
11
152.2033399999999972
21
-63.5129869999999954
0
LINE
8
BLACK
6
CONTINUOUS
10
152.2033399999999972
20
-63.5129869999999954
11
152.4970129999999813
21
-63.8066599999999937
0
LINE
8
BLACK
6
CONTINUOUS
10
152.4970129999999813
20
-63.8066599999999937
11
152.7654310000000066
21
-64.1235810000000015
0
LINE
8
BLACK
6
CONTINUOUS
10
152.7654310000000066
20
-64.1235810000000015
11
153.0067619999999806
21
-64.4615849999999995
0
LINE
8
BLACK
6
CONTINUOUS
10
153.0067619999999806
20
-64.4615849999999995
11
153.2193560000000048
21
-64.8183640000000025
0
LINE
8
BLACK
6
CONTINUOUS
10
153.2193560000000048
20
-64.8183640000000025
11
153.4017609999999934
21
-65.1914799999999985
0
LINE
8
BLACK
6
CONTINUOUS
10
153.4017609999999934
20
-65.1914799999999985
11
153.5527319999999918
21
-65.5783849999999973
0
LINE
8
BLACK
6
CONTINUOUS
10
153.5527319999999918
20
-65.5783849999999973
11
153.6712359999999933
21
-65.9764349999999951
0
LINE
8
BLACK
6
CONTINUOUS
10
153.6712359999999933
20
-65.9764349999999951
11
153.756465999999989
21
-66.3829119999999904
0
LINE
8
BLACK
6
CONTINUOUS
10
153.756465999999989
20
-66.3829119999999904
11
153.8078370000000064
21
-66.7950390000000027
0
LINE
8
BLACK
6
CONTINUOUS
10
153.8078370000000064
20
-66.7950390000000027
11
153.8249999999999886
21
-67.2099999999999937
0
LINE
8
BLACK
6
CONTINUOUS
10
153.8249999999999886
20
-67.2099999999999937
11
153.8249999999999886
21
-114.7099999999999937
0
LINE
8
BLACK
6
CONTINUOUS
10
153.8249999999999886
20
-114.7099999999999937
11
153.8078370000000064
21
-115.124960999999999
0
LINE
8
BLACK
6
CONTINUOUS
10
153.8078370000000064
20
-115.124960999999999
11
153.756465999999989
21
-115.5370879999999971
0
LINE
8
BLACK
6
CONTINUOUS
10
153.756465999999989
20
-115.5370879999999971
11
153.6712359999999933
21
-115.9435649999999924
0
LINE
8
BLACK
6
CONTINUOUS
10
153.6712359999999933
20
-115.9435649999999924
11
153.5527319999999918
21
-116.3416149999999902
0
LINE
8
BLACK
6
CONTINUOUS
10
153.5527319999999918
20
-116.3416149999999902
11
153.4017609999999934
21
-116.728519999999989
0
LINE
8
BLACK
6
CONTINUOUS
10
153.4017609999999934
20
-116.728519999999989
11
153.2193560000000048
21
-117.1016359999999992
0
LINE
8
BLACK
6
CONTINUOUS
10
153.2193560000000048
20
-117.1016359999999992
11
153.0067619999999806
21
-117.458414999999988
0
LINE
8
BLACK
6
CONTINUOUS
10
153.0067619999999806
20
-117.458414999999988
11
152.7654310000000066
21
-117.7964190000000002
0
LINE
8
BLACK
6
CONTINUOUS
10
152.7654310000000066
20
-117.7964190000000002
11
152.4970129999999813
21
-118.1133399999999938
0
LINE
8
BLACK
6
CONTINUOUS
10
152.4970129999999813
20
-118.1133399999999938
11
152.2033399999999972
21
-118.4070129999999921
0
LINE
8
BLACK
6
CONTINUOUS
10
152.2033399999999972
20
-118.4070129999999921
11
151.8864189999999894
21
-118.675430999999989
0
LINE
8
BLACK
6
CONTINUOUS
10
151.8864189999999894
20
-118.675430999999989
11
151.5484150000000056
21
-118.9167619999999914
0
LINE
8
BLACK
6
CONTINUOUS
10
151.5484150000000056
20
-118.9167619999999914
11
151.1916359999999884
21
-119.1293560000000014
0
LINE
8
BLACK
6
CONTINUOUS
10
151.1916359999999884
20
-119.1293560000000014
11
150.8185200000000066
21
-119.31176099999999
0
LINE
8
BLACK
6
CONTINUOUS
10
150.8185200000000066
20
-119.31176099999999
11
150.4316149999999936
21
-119.4627319999999884
0
LINE
8
BLACK
6
CONTINUOUS
10
150.4316149999999936
20
-119.4627319999999884
11
150.0335649999999816
21
-119.5812359999999899
0
LINE
8
BLACK
6
CONTINUOUS
10
150.0335649999999816
20
-119.5812359999999899
11
149.6270879999999863
21
-119.6664659999999998
0
LINE
8
BLACK
6
CONTINUOUS
10
149.6270879999999863
20
-119.6664659999999998
11
149.2149609999999882
21
-119.7178369999999887
0
LINE
8
BLACK
6
CONTINUOUS
10
149.2149609999999882
20
-119.7178369999999887
11
148.7999999999999829
21
-119.7349999999999994
0
LINE
8
BLACK
6
CONTINUOUS
10
148.7999999999999829
20
-119.7349999999999994
11
126.2999999999999972
21
-119.7349999999999994
0
LINE
8
BLACK
6
CONTINUOUS
10
126.2999999999999972
20
-119.7349999999999994
11
125.8850389999999919
21
-119.7178369999999887
0
LINE
8
BLACK
6
CONTINUOUS
10
125.8850389999999919
20
-119.7178369999999887
11
125.4729119999999938
21
-119.6664659999999998
0
LINE
8
BLACK
6
CONTINUOUS
10
125.4729119999999938
20
-119.6664659999999998
11
125.0664349999999985
21
-119.5812359999999899
0
LINE
8
BLACK
6
CONTINUOUS
10
125.0664349999999985
20
-119.5812359999999899
11
124.6683850000000007
21
-119.4627319999999884
0
LINE
8
BLACK
6
CONTINUOUS
10
124.6683850000000007
20
-119.4627319999999884
11
124.2814799999999877
21
-119.31176099999999
0
LINE
8
BLACK
6
CONTINUOUS
10
124.2814799999999877
20
-119.31176099999999
11
123.9083639999999917
21
-119.1293560000000014
0
LINE
8
BLACK
6
CONTINUOUS
10
123.9083639999999917
20
-119.1293560000000014
11
123.5515849999999887
21
-118.9167619999999914
0
LINE
8
BLACK
6
CONTINUOUS
10
123.5515849999999887
20
-118.9167619999999914
11
123.2135809999999907
21
-118.675430999999989
0
LINE
8
BLACK
6
CONTINUOUS
10
123.2135809999999907
20
-118.675430999999989
11
122.8966599999999971
21
-118.4070129999999921
0
LINE
8
BLACK
6
CONTINUOUS
10
122.8966599999999971
20
-118.4070129999999921
11
122.6029869999999988
21
-118.1133399999999938
0
LINE
8
BLACK
6
CONTINUOUS
10
122.6029869999999988
20
-118.1133399999999938
11
122.3345689999999877
21
-117.7964190000000002
0
LINE
8
BLACK
6
CONTINUOUS
10
122.3345689999999877
20
-117.7964190000000002
11
122.0932379999999995
21
-117.458414999999988
0
LINE
8
BLACK
6
CONTINUOUS
10
122.0932379999999995
20
-117.458414999999988
11
121.8806439999999895
21
-117.1016359999999992
0
LINE
8
BLACK
6
CONTINUOUS
10
121.8806439999999895
20
-117.1016359999999992
11
121.6982390000000009
21
-116.728519999999989
0
LINE
8
BLACK
6
CONTINUOUS
10
121.6982390000000009
20
-116.728519999999989
11
121.5472679999999883
21
-116.3416149999999902
0
LINE
8
BLACK
6
CONTINUOUS
10
121.5472679999999883
20
-116.3416149999999902
11
121.428764000000001
21
-115.9435649999999924
0
LINE
8
BLACK
6
CONTINUOUS
10
121.428764000000001
20
-115.9435649999999924
11
121.3435339999999911
21
-115.5370879999999971
0
LINE
8
BLACK
6
CONTINUOUS
10
121.3435339999999911
20
-115.5370879999999971
11
121.292162999999988
21
-115.124960999999999
0
LINE
8
BLACK
6
CONTINUOUS
10
121.292162999999988
20
-115.124960999999999
11
121.2749999999999915
21
-114.7099999999999937
0
LINE
8
BLACK
6
CONTINUOUS
10
121.2749999999999915
20
-114.7099999999999937
11
121.2749999999999915
21
-67.2099999999999937
0
LINE
8
BLACK
6
CONTINUOUS
10
121.2749999999999915
20
-67.2099999999999937
11
121.292162999999988
21
-66.7950390000000027
0
LINE
8
BLACK
6
CONTINUOUS
10
121.292162999999988
20
-66.7950390000000027
11
121.3435339999999911
21
-66.3829119999999904
0
LINE
8
BLACK
6
CONTINUOUS
10
121.3435339999999911
20
-66.3829119999999904
11
121.428764000000001
21
-65.9764349999999951
0
LINE
8
BLACK
6
CONTINUOUS
10
121.428764000000001
20
-65.9764349999999951
11
121.5472679999999883
21
-65.5783849999999973
0
LINE
8
BLACK
6
CONTINUOUS
10
121.5472679999999883
20
-65.5783849999999973
11
121.6982390000000009
21
-65.1914799999999985
0
LINE
8
BLACK
6
CONTINUOUS
10
121.6982390000000009
20
-65.1914799999999985
11
121.8806439999999895
21
-64.8183640000000025
0
LINE
8
BLACK
6
CONTINUOUS
10
121.8806439999999895
20
-64.8183640000000025
11
122.0932379999999995
21
-64.4615849999999995
0
LINE
8
BLACK
6
CONTINUOUS
10
122.0932379999999995
20
-64.4615849999999995
11
122.3345689999999877
21
-64.1235810000000015
0
LINE
8
BLACK
6
CONTINUOUS
10
122.3345689999999877
20
-64.1235810000000015
11
122.6029869999999988
21
-63.8066599999999937
0
LINE
8
BLACK
6
CONTINUOUS
10
122.6029869999999988
20
-63.8066599999999937
11
122.8966599999999971
21
-63.5129869999999954
0
LINE
8
BLACK
6
CONTINUOUS
10
122.8966599999999971
20
-63.5129869999999954
11
123.2135809999999907
21
-63.2445689999999985
0
LINE
8
BLACK
6
CONTINUOUS
10
123.2135809999999907
20
-63.2445689999999985
11
123.5515849999999887
21
-63.0032379999999961
0
LINE
8
BLACK
6
CONTINUOUS
10
123.5515849999999887
20
-63.0032379999999961
11
123.9083639999999917
21
-62.7906440000000003
0
LINE
8
BLACK
6
CONTINUOUS
10
123.9083639999999917
20
-62.7906440000000003
11
124.2814799999999877
21
-62.6082389999999975
0
LINE
8
BLACK
6
CONTINUOUS
10
124.2814799999999877
20
-62.6082389999999975
11
124.6683850000000007
21
-62.4572679999999991
0
LINE
8
BLACK
6
CONTINUOUS
10
124.6683850000000007
20
-62.4572679999999991
11
125.0664349999999985
21
-62.3387639999999976
0
LINE
8
BLACK
6
CONTINUOUS
10
125.0664349999999985
20
-62.3387639999999976
11
125.4729119999999938
21
-62.2535339999999948
0
LINE
8
BLACK
6
CONTINUOUS
10
125.4729119999999938
20
-62.2535339999999948
11
125.8850389999999919
21
-62.2021629999999988
0
LINE
8
BLACK
6
CONTINUOUS
10
125.8850389999999919
20
-62.2021629999999988
11
126.2999999999999972
21
-62.1849999999999952
0
LINE
8
BLACK
6
CONTINUOUS
10
126.2999999999999972
20
-62.1849999999999952
11
148.7999999999999829
21
-62.1849999999999952
0
LINE
8
BLACK
6
CONTINUOUS
10
126.2999999999999972
20
-62.2349999999999994
11
126.094231999999991
21
-62.2349999999999994
0
LINE
8
BLACK
6
CONTINUOUS
10
126.094231999999991
20
-62.2349999999999994
11
125.6841029999999932
21
-62.2689850000000007
0
LINE
8
BLACK
6
CONTINUOUS
10
125.6841029999999932
20
-62.2689850000000007
11
125.2781809999999894
21
-62.3367209999999972
0
LINE
8
BLACK
6
CONTINUOUS
10
125.2781809999999894
20
-62.3367209999999972
11
124.8792389999999983
21
-62.4377469999999946
0
LINE
8
BLACK
6
CONTINUOUS
10
124.8792389999999983
20
-62.4377469999999946
11
124.4900019999999898
21
-62.5713719999999967
0
LINE
8
BLACK
6
CONTINUOUS
10
124.4900019999999898
20
-62.5713719999999967
11
124.1131290000000007
21
-62.7366839999999968
0
LINE
8
BLACK
6
CONTINUOUS
10
124.1131290000000007
20
-62.7366839999999968
11
123.7511949999999956
21
-62.9325529999999986
0
LINE
8
BLACK
6
CONTINUOUS
10
123.7511949999999956
20
-62.9325529999999986
11
123.4066709999999887
21
-63.1576409999999981
0
LINE
8
BLACK
6
CONTINUOUS
10
123.4066709999999887
20
-63.1576409999999981
11
123.0819119999999884
21
-63.4104109999999963
0
LINE
8
BLACK
6
CONTINUOUS
10
123.0819119999999884
20
-63.4104109999999963
11
122.7791359999999941
21
-63.6891359999999978
0
LINE
8
BLACK
6
CONTINUOUS
10
122.7791359999999941
20
-63.6891359999999978
11
122.5004109999999997
21
-63.9919119999999992
0
LINE
8
BLACK
6
CONTINUOUS
10
122.5004109999999997
20
-63.9919119999999992
11
122.2476410000000016
21
-64.3166709999999995
0
LINE
8
BLACK
6
CONTINUOUS
10
122.2476410000000016
20
-64.3166709999999995
11
122.0225529999999878
21
-64.6611949999999922
0
LINE
8
BLACK
6
CONTINUOUS
10
122.0225529999999878
20
-64.6611949999999922
11
121.8266840000000002
21
-65.0231289999999973
0
LINE
8
BLACK
6
CONTINUOUS
10
121.8266840000000002
20
-65.0231289999999973
11
121.6613720000000001
21
-65.4000020000000006
0
LINE
8
BLACK
6
CONTINUOUS
10
121.6613720000000001
20
-65.4000020000000006
11
121.5277469999999909
21
-65.7892389999999949
0
LINE
8
BLACK
6
CONTINUOUS
10
121.5277469999999909
20
-65.7892389999999949
11
121.4267210000000006
21
-66.1881810000000002
0
LINE
8
BLACK
6
CONTINUOUS
10
121.4267210000000006
20
-66.1881810000000002
11
121.3589849999999899
21
-66.594103000000004
0
LINE
8
BLACK
6
CONTINUOUS
10
121.3589849999999899
20
-66.594103000000004
11
121.3249999999999886
21
-67.0042320000000018
0
LINE
8
BLACK
6
CONTINUOUS
10
121.3249999999999886
20
-67.0042320000000018
11
121.3249999999999886
21
-67.2099999999999937
0
LINE
8
BLACK
6
CONTINUOUS
10
121.3249999999999886
20
-67.2099999999999937
11
121.3249999999999886
21
-114.7099999999999937
0
LINE
8
BLACK
6
CONTINUOUS
10
121.3249999999999886
20
-114.7099999999999937
11
121.3249999999999886
21
-114.9157679999999999
0
LINE
8
BLACK
6
CONTINUOUS
10
121.3249999999999886
20
-114.9157679999999999
11
121.3589849999999899
21
-115.3258969999999977
0
LINE
8
BLACK
6
CONTINUOUS
10
121.3589849999999899
20
-115.3258969999999977
11
121.4267210000000006
21
-115.7318190000000016
0
LINE
8
BLACK
6
CONTINUOUS
10
121.4267210000000006
20
-115.7318190000000016
11
121.5277469999999909
21
-116.1307609999999926
0
LINE
8
BLACK
6
CONTINUOUS
10
121.5277469999999909
20
-116.1307609999999926
11
121.6613720000000001
21
-116.5199980000000011
0
LINE
8
BLACK
6
CONTINUOUS
10
121.6613720000000001
20
-116.5199980000000011
11
121.8266840000000002
21
-116.8968709999999902
0
LINE
8
BLACK
6
CONTINUOUS
10
121.8266840000000002
20
-116.8968709999999902
11
122.0225529999999878
21
-117.2588049999999953
0
LINE
8
BLACK
6
CONTINUOUS
10
122.0225529999999878
20
-117.2588049999999953
11
122.2476410000000016
21
-117.603328999999988
0
LINE
8
BLACK
6
CONTINUOUS
10
122.2476410000000016
20
-117.603328999999988
11
122.5004109999999997
21
-117.9280879999999883
0
LINE
8
BLACK
6
CONTINUOUS
10
122.5004109999999997
20
-117.9280879999999883
11
122.7791359999999941
21
-118.2308639999999968
0
LINE
8
BLACK
6
CONTINUOUS
10
122.7791359999999941
20
-118.2308639999999968
11
123.0819119999999884
21
-118.5095889999999912
0
LINE
8
BLACK
6
CONTINUOUS
10
123.0819119999999884
20
-118.5095889999999912
11
123.4066709999999887
21
-118.7623589999999894
0
LINE
8
BLACK
6
CONTINUOUS
10
123.4066709999999887
20
-118.7623589999999894
11
123.7511949999999956
21
-118.9874469999999889
0
LINE
8
BLACK
6
CONTINUOUS
10
123.7511949999999956
20
-118.9874469999999889
11
124.1131290000000007
21
-119.1833159999999907
0
LINE
8
BLACK
6
CONTINUOUS
10
124.1131290000000007
20
-119.1833159999999907
11
124.4900019999999898
21
-119.3486279999999908
0
LINE
8
BLACK
6
CONTINUOUS
10
124.4900019999999898
20
-119.3486279999999908
11
124.8792389999999983
21
-119.482253
0
LINE
8
BLACK
6
CONTINUOUS
10
124.8792389999999983
20
-119.482253
11
125.2781809999999894
21
-119.5832789999999903
0
LINE
8
BLACK
6
CONTINUOUS
10
125.2781809999999894
20
-119.5832789999999903
11
125.6841029999999932
21
-119.651015000000001
0
LINE
8
BLACK
6
CONTINUOUS
10
125.6841029999999932
20
-119.651015000000001
11
126.094231999999991
21
-119.6849999999999881
0
LINE
8
BLACK
6
CONTINUOUS
10
126.094231999999991
20
-119.6849999999999881
11
126.2999999999999972
21
-119.6849999999999881
0
LINE
8
BLACK
6
CONTINUOUS
10
126.2999999999999972
20
-119.6849999999999881
11
148.7999999999999829
21
-119.6849999999999881
0
LINE
8
BLACK
6
CONTINUOUS
10
148.7999999999999829
20
-119.6849999999999881
11
149.0057679999999891
21
-119.6849999999999881
0
LINE
8
BLACK
6
CONTINUOUS
10
149.0057679999999891
20
-119.6849999999999881
11
149.4158970000000011
21
-119.651015000000001
0
LINE
8
BLACK
6
CONTINUOUS
10
149.4158970000000011
20
-119.651015000000001
11
149.821819000000005
21
-119.5832789999999903
0
LINE
8
BLACK
6
CONTINUOUS
10
149.821819000000005
20
-119.5832789999999903
11
150.2207609999999818
21
-119.482253
0
LINE
8
BLACK
6
CONTINUOUS
10
150.2207609999999818
20
-119.482253
11
150.6099979999999903
21
-119.3486279999999908
0
LINE
8
BLACK
6
CONTINUOUS
10
150.6099979999999903
20
-119.3486279999999908
11
150.9868709999999794
21
-119.1833159999999907
0
LINE
8
BLACK
6
CONTINUOUS
10
150.9868709999999794
20
-119.1833159999999907
11
151.3488049999999987
21
-118.9874469999999889
0
LINE
8
BLACK
6
CONTINUOUS
10
151.3488049999999987
20
-118.9874469999999889
11
151.6933290000000056
21
-118.7623589999999894
0
LINE
8
BLACK
6
CONTINUOUS
10
151.6933290000000056
20
-118.7623589999999894
11
152.0180880000000059
21
-118.5095889999999912
0
LINE
8
BLACK
6
CONTINUOUS
10
152.0180880000000059
20
-118.5095889999999912
11
152.3208640000000003
21
-118.2308639999999968
0
LINE
8
BLACK
6
CONTINUOUS
10
152.3208640000000003
20
-118.2308639999999968
11
152.5995889999999804
21
-117.9280879999999883
0
LINE
8
BLACK
6
CONTINUOUS
10
152.5995889999999804
20
-117.9280879999999883
11
152.852359000000007
21
-117.603328999999988
0
LINE
8
BLACK
6
CONTINUOUS
10
152.852359000000007
20
-117.603328999999988
11
153.0774470000000065
21
-117.2588049999999953
0
LINE
8
BLACK
6
CONTINUOUS
10
153.0774470000000065
20
-117.2588049999999953
11
153.2733159999999941
21
-116.8968709999999902
0
LINE
8
BLACK
6
CONTINUOUS
10
153.2733159999999941
20
-116.8968709999999902
11
153.4386279999999942
21
-116.5199980000000011
0
LINE
8
BLACK
6
CONTINUOUS
10
153.4386279999999942
20
-116.5199980000000011
11
153.5722529999999892
21
-116.1307609999999926
0
LINE
8
BLACK
6
CONTINUOUS
10
153.5722529999999892
20
-116.1307609999999926
11
153.6732789999999795
21
-115.7318190000000016
0
LINE
8
BLACK
6
CONTINUOUS
10
153.6732789999999795
20
-115.7318190000000016
11
153.7410150000000044
21
-115.3258969999999977
0
LINE
8
BLACK
6
CONTINUOUS
10
153.7410150000000044
20
-115.3258969999999977
11
153.7750000000000057
21
-114.9157679999999999
0
LINE
8
BLACK
6
CONTINUOUS
10
153.7750000000000057
20
-114.9157679999999999
11
153.7750000000000057
21
-114.7099999999999937
0
LINE
8
BLACK
6
CONTINUOUS
10
153.7750000000000057
20
-114.7099999999999937
11
153.7750000000000057
21
-67.2099999999999937
0
LINE
8
BLACK
6
CONTINUOUS
10
153.7750000000000057
20
-67.2099999999999937
11
153.7750000000000057
21
-67.0042320000000018
0
LINE
8
BLACK
6
CONTINUOUS
10
153.7750000000000057
20
-67.0042320000000018
11
153.7410150000000044
21
-66.594103000000004
0
LINE
8
BLACK
6
CONTINUOUS
10
153.7410150000000044
20
-66.594103000000004
11
153.6732789999999795
21
-66.1881810000000002
0
LINE
8
BLACK
6
CONTINUOUS
10
153.6732789999999795
20
-66.1881810000000002
11
153.5722529999999892
21
-65.7892389999999949
0
LINE
8
BLACK
6
CONTINUOUS
10
153.5722529999999892
20
-65.7892389999999949
11
153.4386279999999942
21
-65.4000020000000006
0
LINE
8
BLACK
6
CONTINUOUS
10
153.4386279999999942
20
-65.4000020000000006
11
153.2733159999999941
21
-65.0231289999999973
0
LINE
8
BLACK
6
CONTINUOUS
10
153.2733159999999941
20
-65.0231289999999973
11
153.0774470000000065
21
-64.6611949999999922
0
LINE
8
BLACK
6
CONTINUOUS
10
153.0774470000000065
20
-64.6611949999999922
11
152.852359000000007
21
-64.3166709999999995
0
LINE
8
BLACK
6
CONTINUOUS
10
152.852359000000007
20
-64.3166709999999995
11
152.5995889999999804
21
-63.9919119999999992
0
LINE
8
BLACK
6
CONTINUOUS
10
152.5995889999999804
20
-63.9919119999999992
11
152.3208640000000003
21
-63.6891359999999978
0
LINE
8
BLACK
6
CONTINUOUS
10
152.3208640000000003
20
-63.6891359999999978
11
152.0180880000000059
21
-63.4104109999999963
0
LINE
8
BLACK
6
CONTINUOUS
10
152.0180880000000059
20
-63.4104109999999963
11
151.6933290000000056
21
-63.1576409999999981
0
LINE
8
BLACK
6
CONTINUOUS
10
151.6933290000000056
20
-63.1576409999999981
11
151.3488049999999987
21
-62.9325529999999986
0
LINE
8
BLACK
6
CONTINUOUS
10
151.3488049999999987
20
-62.9325529999999986
11
150.9868709999999794
21
-62.7366839999999968
0
LINE
8
BLACK
6
CONTINUOUS
10
150.9868709999999794
20
-62.7366839999999968
11
150.6099979999999903
21
-62.5713719999999967
0
LINE
8
BLACK
6
CONTINUOUS
10
150.6099979999999903
20
-62.5713719999999967
11
150.2207609999999818
21
-62.4377469999999946
0
LINE
8
BLACK
6
CONTINUOUS
10
150.2207609999999818
20
-62.4377469999999946
11
149.821819000000005
21
-62.3367209999999972
0
LINE
8
BLACK
6
CONTINUOUS
10
149.821819000000005
20
-62.3367209999999972
11
149.4158970000000011
21
-62.2689850000000007
0
LINE
8
BLACK
6
CONTINUOUS
10
149.4158970000000011
20
-62.2689850000000007
11
149.0057679999999891
21
-62.2349999999999994
0
LINE
8
BLACK
6
CONTINUOUS
10
149.0057679999999891
20
-62.2349999999999994
11
148.7999999999999829
21
-62.2349999999999994
0
LINE
8
BLACK
6
CONTINUOUS
10
148.7999999999999829
20
-62.2349999999999994
11
126.2999999999999972
21
-62.2349999999999994
0
CIRCLE
8
BLACK
10
142.7672959999999875
20
-91.1243010000000027
40
0.4
0
CIRCLE
8
BLACK
10
140.2672959999999875
20
-91.1243010000000027
40
0.4
0
CIRCLE
8
BLACK
10
140.2999999999999829
20
-96.2999999999999972
40
0.4
0
CIRCLE
8
BLACK
10
140.2999999999999829
20
-106.4599999999999937
40
0.4
0
CIRCLE
8
BLACK
10
140.9884500000000003
20
-68.8100000000000023
40
0.45
0
CIRCLE
8
BLACK
10
140.9884500000000003
20
-71.3499999999999943
40
0.45
0
CIRCLE
8
BLACK
10
148.7999999999999829
20
-67.2099999999999937
40
1.5999999999999999
0
CIRCLE
8
BLACK
10
126.2999999999999972
20
-67.2099999999999937
40
1.5999999999999999
0
CIRCLE
8
BLACK
10
144.5499999999999829
20
-96.2999999999999972
40
0.4
0
CIRCLE
8
BLACK
10
144.5499999999999829
20
-106.4599999999999937
40
0.4
0
CIRCLE
8
BLACK
10
146.6238869999999963
20
-72.8357829999999922
40
0.4
0
CIRCLE
8
BLACK
10
146.6238840000000039
20
-75.3757870000000025
40
0.4
0
CIRCLE
8
BLACK
10
146.6238869999999963
20
-77.9157829999999905
40
0.4
0
CIRCLE
8
BLACK
10
135.7999999999999829
20
-106.4599999999999937
40
0.4
0
CIRCLE
8
BLACK
10
135.7999999999999829
20
-96.2999999999999972
40
0.4
0
CIRCLE
8
BLACK
10
133.2873610000000042
20
-91.171141999999989
40
0.4
0
CIRCLE
8
BLACK
10
135.7873610000000042
20
-91.171141999999989
40
0.4
0
CIRCLE
8
BLACK
10
126.2999999999999972
20
-114.7099999999999937
40
1.5999999999999999
0
CIRCLE
8
BLACK
10
127.4088369999999912
20
-73.0307849999999945
40
0.4
0
CIRCLE
8
BLACK
10
127.4088369999999912
20
-75.5707850000000008
40
0.4
0
CIRCLE
8
BLACK
10
127.4088369999999912
20
-78.1107849999999928
40
0.4
0
CIRCLE
8
BLACK
10
127.5838369999999884
20
-80.8634059999999977
40
0.4
0
CIRCLE
8
BLACK
10
127.5838369999999884
20
-88.463405999999992
40
0.4
0
CIRCLE
8
BLACK
10
131.2999999999999829
20
-96.2999999999999972
40
0.4
0
CIRCLE
8
BLACK
10
131.2999999999999829
20
-106.4599999999999937
40
0.4
0
CIRCLE
8
BLACK
10
134.2999999999999829
20
-68.8100000000000023
40
0.45
0
CIRCLE
8
BLACK
10
134.2999999999999829
20
-71.3499999999999943
40
0.45
0
CIRCLE
8
BLACK
10
148.7999999999999829
20
-114.7099999999999937
40
1.5999999999999999
0
CIRCLE
8
BLACK
10
146.5569579999999803
20
-80.8555399999999906
40
0.4
0
CIRCLE
8
BLACK
10
146.5569579999999803
20
-88.4755399999999952
40
0.4
0
LINE
8
BLACK
6
CONTINUOUS
10
132.8649999999999807
20
-113.0749999999999886
11
132.8649999999999807
21
-113.6749999999999972
0
ARC
8
BLACK
10
133.414999999999992
20
-113.6749999999999972
40
0.5499999999999999
50
-180.00000000
51
0.00000000
0
LINE
8
BLACK
6
CONTINUOUS
10
133.9650000000000034
20
-113.6749999999999972
11
133.9650000000000034
21
-113.0749999999999886
0
ARC
8
BLACK
10
133.414999999999992
20
-113.0749999999999886
40
0.5499999999999999
50
0.00000000
51
180.00000000
0
LINE
8
BLACK
6
CONTINUOUS
10
132.8649999999999807
20
-116.875
11
132.8649999999999807
21
-117.4749999999999943
0
ARC
8
BLACK
10
133.414999999999992
20
-117.4749999999999943
40
0.5499999999999999
50
-180.00000000
51
0.00000000
0
LINE
8
BLACK
6
CONTINUOUS
10
133.9650000000000034
20
-117.4749999999999943
11
133.9650000000000034
21
-116.875
0
ARC
8
BLACK
10
133.414999999999992
20
-116.875
40
0.5499999999999999
50
0.00000000
51
180.00000000
0
LINE
8
BLACK
6
CONTINUOUS
10
141.5049999999999955
20
-113.0749999999999886
11
141.5049999999999955
21
-113.6749999999999972
0
ARC
8
BLACK
10
142.0550000000000068
20
-113.6749999999999972
40
0.5499999999999999
50
-180.00000000
51
0.00000000
0
LINE
8
BLACK
6
CONTINUOUS
10
142.6049999999999898
20
-113.6749999999999972
11
142.6049999999999898
21
-113.0749999999999886
0
ARC
8
BLACK
10
142.0550000000000068
20
-113.0749999999999886
40
0.5499999999999999
50
0.00000000
51
180.00000000
0
LINE
8
BLACK
6
CONTINUOUS
10
141.5049999999999955
20
-116.875
11
141.5049999999999955
21
-117.4749999999999943
0
ARC
8
BLACK
10
142.0550000000000068
20
-117.4749999999999943
40
0.5499999999999999
50
-180.00000000
51
0.00000000
0
LINE
8
BLACK
6
CONTINUOUS
10
142.6049999999999898
20
-117.4749999999999943
11
142.6049999999999898
21
-116.875
0
ARC
8
BLACK
10
142.0550000000000068
20
-116.875
40
0.5499999999999999
50
0.00000000
51
180.00000000
0
CIRCLE
8
BLACK
10
142.7672959999999875
20
-91.1243010000000027
40
0.4
0
CIRCLE
8
BLACK
10
140.2672959999999875
20
-91.1243010000000027
40
0.4
0
CIRCLE
8
BLACK
10
140.2999999999999829
20
-96.2999999999999972
40
0.4
0
CIRCLE
8
BLACK
10
140.2999999999999829
20
-106.4599999999999937
40
0.4
0
CIRCLE
8
BLACK
10
140.9884500000000003
20
-68.8100000000000023
40
0.45
0
CIRCLE
8
BLACK
10
140.9884500000000003
20
-71.3499999999999943
40
0.45
0
CIRCLE
8
BLACK
10
148.7999999999999829
20
-67.2099999999999937
40
1.5999999999999999
0
CIRCLE
8
BLACK
10
126.2999999999999972
20
-67.2099999999999937
40
1.5999999999999999
0
CIRCLE
8
BLACK
10
144.5499999999999829
20
-96.2999999999999972
40
0.4
0
CIRCLE
8
BLACK
10
144.5499999999999829
20
-106.4599999999999937
40
0.4
0
CIRCLE
8
BLACK
10
146.6238869999999963
20
-72.8357829999999922
40
0.4
0
CIRCLE
8
BLACK
10
146.6238840000000039
20
-75.3757870000000025
40
0.4
0
CIRCLE
8
BLACK
10
146.6238869999999963
20
-77.9157829999999905
40
0.4
0
CIRCLE
8
BLACK
10
135.7999999999999829
20
-106.4599999999999937
40
0.4
0
CIRCLE
8
BLACK
10
135.7999999999999829
20
-96.2999999999999972
40
0.4
0
CIRCLE
8
BLACK
10
133.2873610000000042
20
-91.171141999999989
40
0.4
0
CIRCLE
8
BLACK
10
135.7873610000000042
20
-91.171141999999989
40
0.4
0
CIRCLE
8
BLACK
10
126.2999999999999972
20
-114.7099999999999937
40
1.5999999999999999
0
CIRCLE
8
BLACK
10
127.4088369999999912
20
-73.0307849999999945
40
0.4
0
CIRCLE
8
BLACK
10
127.4088369999999912
20
-75.5707850000000008
40
0.4
0
CIRCLE
8
BLACK
10
127.4088369999999912
20
-78.1107849999999928
40
0.4
0
CIRCLE
8
BLACK
10
127.5838369999999884
20
-80.8634059999999977
40
0.4
0
CIRCLE
8
BLACK
10
127.5838369999999884
20
-88.4834060000000022
40
0.4
0
CIRCLE
8
BLACK
10
131.2999999999999829
20
-96.2999999999999972
40
0.4
0
CIRCLE
8
BLACK
10
131.2999999999999829
20
-106.4599999999999937
40
0.4
0
CIRCLE
8
BLACK
10
134.2999999999999829
20
-68.8100000000000023
40
0.45
0
CIRCLE
8
BLACK
10
134.2999999999999829
20
-71.3499999999999943
40
0.45
0
CIRCLE
8
BLACK
10
148.7999999999999829
20
-114.7099999999999937
40
1.5999999999999999
0
CIRCLE
8
BLACK
10
146.5569579999999803
20
-80.8555399999999906
40
0.4
0
CIRCLE
8
BLACK
10
146.5569579999999803
20
-88.4755399999999952
40
0.4
0
LINE
8
BLACK
6
CONTINUOUS
10
133.1149999999999807
20
-113.0749999999999886
11
133.1149999999999807
21
-113.6749999999999972
0
ARC
8
BLACK
10
133.414999999999992
20
-113.6749999999999972
40
0.3
50
-180.00000000
51
0.00000000
0
LINE
8
BLACK
6
CONTINUOUS
10
133.7150000000000034
20
-113.6749999999999972
11
133.7150000000000034
21
-113.0749999999999886
0
ARC
8
BLACK
10
133.414999999999992
20
-113.0749999999999886
40
0.3
50
0.00000000
51
180.00000000
0
LINE
8
BLACK
6
CONTINUOUS
10
133.1149999999999807
20
-116.875
11
133.1149999999999807
21
-117.4749999999999943
0
ARC
8
BLACK
10
133.414999999999992
20
-117.4749999999999943
40
0.3
50
-180.00000000
51
0.00000000
0
LINE
8
BLACK
6
CONTINUOUS
10
133.7150000000000034
20
-117.4749999999999943
11
133.7150000000000034
21
-116.875
0
ARC
8
BLACK
10
133.414999999999992
20
-116.875
40
0.3
50
0.00000000
51
180.00000000
0
LINE
8
BLACK
6
CONTINUOUS
10
141.7549999999999955
20
-113.0749999999999886
11
141.7549999999999955
21
-113.6749999999999972
0
ARC
8
BLACK
10
142.0550000000000068
20
-113.6749999999999972
40
0.3
50
-180.00000000
51
0.00000000
0
LINE
8
BLACK
6
CONTINUOUS
10
142.3549999999999898
20
-113.6749999999999972
11
142.3549999999999898
21
-113.0749999999999886
0
ARC
8
BLACK
10
142.0550000000000068
20
-113.0749999999999886
40
0.3
50
0.00000000
51
180.00000000
0
LINE
8
BLACK
6
CONTINUOUS
10
141.7549999999999955
20
-116.875
11
141.7549999999999955
21
-117.4749999999999943
0
ARC
8
BLACK
10
142.0550000000000068
20
-117.4749999999999943
40
0.3
50
-180.00000000
51
0.00000000
0
LINE
8
BLACK
6
CONTINUOUS
10
142.3549999999999898
20
-117.4749999999999943
11
142.3549999999999898
21
-116.875
0
ARC
8
BLACK
10
142.0550000000000068
20
-116.875
40
0.3
50
0.00000000
51
180.00000000
  0
ENDSEC
  0
EOF
