%TF.GenerationSoftware,KiCad,Pcbnew,10.0.1-10.0.1~ubuntu25.10.1*%
%TF.CreationDate,2026-10-01T18:26:41+00:00*%
%TF.ProjectId,schnupperblinki,7363686e-7570-4706-9572-626c696e6b69,1*%
%TF.SameCoordinates,Original*%
%TF.FileFunction,Copper,L1,Top*%
%TF.FilePolarity,Positive*%
%FSLAX46Y46*%
G04 Gerber Fmt 4.6, Leading zero omitted, Abs format (unit mm)*
G04 Created by KiCad (PCBNEW 10.0.1-10.0.1~ubuntu25.10.1) date 2026-10-01 18:26:41*
%MOMM*%
%LPD*%
G01*
G04 APERTURE LIST*
G04 Aperture macros list*
%AMRoundRect*
0 Rectangle with rounded corners*
0 $1 Rounding radius*
0 $2 $3 $4 $5 $6 $7 $8 $9 X,Y pos of 4 corners*
0 Add a 4 corners polygon primitive as box body*
4,1,4,$2,$3,$4,$5,$6,$7,$8,$9,$2,$3,0*
0 Add four circle primitives for the rounded corners*
1,1,$1+$1,$2,$3*
1,1,$1+$1,$4,$5*
1,1,$1+$1,$6,$7*
1,1,$1+$1,$8,$9*
0 Add four rect primitives between the rounded corners*
20,1,$1+$1,$2,$3,$4,$5,0*
20,1,$1+$1,$4,$5,$6,$7,0*
20,1,$1+$1,$6,$7,$8,$9,0*
20,1,$1+$1,$8,$9,$2,$3,0*%
G04 Aperture macros list end*
%ADD10C,0.200000*%
%TA.AperFunction,NonConductor*%
%ADD11C,0.200000*%
%TD*%
%TA.AperFunction,ComponentPad*%
%ADD12R,2.000000X2.000000*%
%TD*%
%TA.AperFunction,ComponentPad*%
%ADD13C,1.920000*%
%TD*%
%TA.AperFunction,ComponentPad*%
%ADD14C,2.500000*%
%TD*%
%TA.AperFunction,ComponentPad*%
%ADD15R,1.800000X1.800000*%
%TD*%
%TA.AperFunction,ComponentPad*%
%ADD16C,1.800000*%
%TD*%
%TA.AperFunction,ComponentPad*%
%ADD17C,6.400000*%
%TD*%
%TA.AperFunction,ComponentPad*%
%ADD18C,1.840000*%
%TD*%
%TA.AperFunction,SMDPad,CuDef*%
%ADD19RoundRect,0.250000X0.350000X0.450000X-0.350000X0.450000X-0.350000X-0.450000X0.350000X-0.450000X0*%
%TD*%
%TA.AperFunction,ComponentPad*%
%ADD20O,2.400000X2.400000*%
%TD*%
%TA.AperFunction,ComponentPad*%
%ADD21R,1.600000X1.600000*%
%TD*%
%TA.AperFunction,ComponentPad*%
%ADD22C,2.000000*%
%TD*%
%TA.AperFunction,SMDPad,CuDef*%
%ADD23RoundRect,0.175000X-0.175000X-1.335000X0.175000X-1.335000X0.175000X1.335000X-0.175000X1.335000X0*%
%TD*%
%TA.AperFunction,SMDPad,CuDef*%
%ADD24RoundRect,0.190000X0.190000X1.320000X-0.190000X1.320000X-0.190000X-1.320000X0.190000X-1.320000X0*%
%TD*%
%TA.AperFunction,SMDPad,CuDef*%
%ADD25RoundRect,0.200000X0.200000X1.310000X-0.200000X1.310000X-0.200000X-1.310000X0.200000X-1.310000X0*%
%TD*%
%TA.AperFunction,SMDPad,CuDef*%
%ADD26RoundRect,0.175000X0.175000X1.335000X-0.175000X1.335000X-0.175000X-1.335000X0.175000X-1.335000X0*%
%TD*%
%TA.AperFunction,SMDPad,CuDef*%
%ADD27RoundRect,0.190000X-0.190000X-1.320000X0.190000X-1.320000X0.190000X1.320000X-0.190000X1.320000X0*%
%TD*%
%TA.AperFunction,SMDPad,CuDef*%
%ADD28RoundRect,0.162500X-0.162500X-1.347500X0.162500X-1.347500X0.162500X1.347500X-0.162500X1.347500X0*%
%TD*%
%TA.AperFunction,ComponentPad*%
%ADD29O,1.100000X1.700000*%
%TD*%
%TA.AperFunction,ViaPad*%
%ADD30C,1.600000*%
%TD*%
%TA.AperFunction,Conductor*%
%ADD31C,0.400000*%
%TD*%
%TA.AperFunction,Conductor*%
%ADD32C,0.250000*%
%TD*%
G04 APERTURE END LIST*
D10*
D11*
X125044838Y-108602231D02*
X123044838Y-108602231D01*
X123997219Y-108602231D02*
X123997219Y-107459374D01*
X125044838Y-107459374D02*
X123044838Y-107459374D01*
X123044838Y-106792707D02*
X123044838Y-105649850D01*
X125044838Y-106221279D02*
X123044838Y-106221279D01*
X125044838Y-104030802D02*
X125044838Y-104983183D01*
X125044838Y-104983183D02*
X123044838Y-104983183D01*
X124949600Y-101935563D02*
X125044838Y-101649849D01*
X125044838Y-101649849D02*
X125044838Y-101173658D01*
X125044838Y-101173658D02*
X124949600Y-100983182D01*
X124949600Y-100983182D02*
X124854361Y-100887944D01*
X124854361Y-100887944D02*
X124663885Y-100792706D01*
X124663885Y-100792706D02*
X124473409Y-100792706D01*
X124473409Y-100792706D02*
X124282933Y-100887944D01*
X124282933Y-100887944D02*
X124187695Y-100983182D01*
X124187695Y-100983182D02*
X124092457Y-101173658D01*
X124092457Y-101173658D02*
X123997219Y-101554611D01*
X123997219Y-101554611D02*
X123901980Y-101745087D01*
X123901980Y-101745087D02*
X123806742Y-101840325D01*
X123806742Y-101840325D02*
X123616266Y-101935563D01*
X123616266Y-101935563D02*
X123425790Y-101935563D01*
X123425790Y-101935563D02*
X123235314Y-101840325D01*
X123235314Y-101840325D02*
X123140076Y-101745087D01*
X123140076Y-101745087D02*
X123044838Y-101554611D01*
X123044838Y-101554611D02*
X123044838Y-101078420D01*
X123044838Y-101078420D02*
X123140076Y-100792706D01*
X123711504Y-100221277D02*
X123711504Y-99459373D01*
X123044838Y-99935563D02*
X124759123Y-99935563D01*
X124759123Y-99935563D02*
X124949600Y-99840325D01*
X124949600Y-99840325D02*
X125044838Y-99649849D01*
X125044838Y-99649849D02*
X125044838Y-99459373D01*
X124949600Y-98030801D02*
X125044838Y-98221277D01*
X125044838Y-98221277D02*
X125044838Y-98602230D01*
X125044838Y-98602230D02*
X124949600Y-98792706D01*
X124949600Y-98792706D02*
X124759123Y-98887944D01*
X124759123Y-98887944D02*
X123997219Y-98887944D01*
X123997219Y-98887944D02*
X123806742Y-98792706D01*
X123806742Y-98792706D02*
X123711504Y-98602230D01*
X123711504Y-98602230D02*
X123711504Y-98221277D01*
X123711504Y-98221277D02*
X123806742Y-98030801D01*
X123806742Y-98030801D02*
X123997219Y-97935563D01*
X123997219Y-97935563D02*
X124187695Y-97935563D01*
X124187695Y-97935563D02*
X124378171Y-98887944D01*
X123711504Y-97268896D02*
X125044838Y-96792706D01*
X123711504Y-96316515D02*
X125044838Y-96792706D01*
X125044838Y-96792706D02*
X125521028Y-96983182D01*
X125521028Y-96983182D02*
X125616266Y-97078420D01*
X125616266Y-97078420D02*
X125711504Y-97268896D01*
X125044838Y-95554610D02*
X123711504Y-95554610D01*
X124092457Y-95554610D02*
X123901980Y-95459372D01*
X123901980Y-95459372D02*
X123806742Y-95364134D01*
X123806742Y-95364134D02*
X123711504Y-95173658D01*
X123711504Y-95173658D02*
X123711504Y-94983181D01*
D12*
%TO.P,C2,1*%
%TO.N,Net-(D3-K)*%
X142767296Y-91124301D03*
D13*
%TO.P,C2,2*%
%TO.N,Net-(D4-A)*%
X140267296Y-91124301D03*
%TD*%
D14*
%TO.P,R3,1*%
%TO.N,Net-(D4-A)*%
X140300000Y-96300000D03*
%TO.P,R3,2*%
%TO.N,VCC*%
X140300000Y-106460000D03*
%TD*%
D15*
%TO.P,D3,1,K*%
%TO.N,Net-(D3-K)*%
X140988450Y-68810000D03*
D16*
%TO.P,D3,2,A*%
%TO.N,Net-(D3-A)*%
X140988450Y-71350000D03*
%TD*%
D17*
%TO.P,H2,1,1*%
%TO.N,GND*%
X148800000Y-67210000D03*
%TD*%
%TO.P,H1,1,1*%
%TO.N,GND*%
X126300000Y-67210000D03*
%TD*%
D14*
%TO.P,R4,1*%
%TO.N,Net-(D3-A)*%
X144550000Y-96300000D03*
%TO.P,R4,2*%
%TO.N,VCC*%
X144550000Y-106460000D03*
%TD*%
D12*
%TO.P,Q1,1,C*%
%TO.N,Net-(D3-K)*%
X146623887Y-72835783D03*
D13*
%TO.P,Q1,2,B*%
%TO.N,Net-(D1-K)*%
X146623884Y-75375787D03*
D18*
%TO.P,Q1,3,E*%
%TO.N,GND*%
X146623887Y-77915783D03*
%TD*%
D14*
%TO.P,R2,1*%
%TO.N,VCC*%
X135800000Y-106460000D03*
%TO.P,R2,2*%
%TO.N,Net-(D1-A)*%
X135800000Y-96300000D03*
%TD*%
D19*
%TO.P,RSMD2,1*%
%TO.N,GND*%
X149545000Y-107445000D03*
%TO.P,RSMD2,2*%
%TO.N,Net-(J1-CC2)*%
X147545000Y-107445000D03*
%TD*%
%TO.P,RSMD1,1*%
%TO.N,GND*%
X149525000Y-109635000D03*
%TO.P,RSMD1,2*%
%TO.N,Net-(J1-CC1)*%
X147525000Y-109635000D03*
%TD*%
D12*
%TO.P,C1,1*%
%TO.N,Net-(D2-K)*%
X133287361Y-91171142D03*
D13*
%TO.P,C1,2*%
%TO.N,Net-(D1-A)*%
X135787361Y-91171142D03*
%TD*%
D17*
%TO.P,H4,1,1*%
%TO.N,GND*%
X126300000Y-114710000D03*
%TD*%
D12*
%TO.P,Q2,1,C*%
%TO.N,Net-(D2-K)*%
X127408837Y-73030785D03*
D13*
%TO.P,Q2,2,B*%
%TO.N,Net-(D4-K)*%
X127408837Y-75570785D03*
D18*
%TO.P,Q2,3,E*%
%TO.N,GND*%
X127408837Y-78110785D03*
%TD*%
D12*
%TO.P,D4,1,K*%
%TO.N,Net-(D4-K)*%
X127583837Y-80863406D03*
D20*
%TO.P,D4,2,A*%
%TO.N,Net-(D4-A)*%
X127583837Y-88463406D03*
%TD*%
D14*
%TO.P,R1,1*%
%TO.N,Net-(D2-A)*%
X131300000Y-96300000D03*
%TO.P,R1,2*%
%TO.N,VCC*%
X131300000Y-106460000D03*
%TD*%
D15*
%TO.P,D2,1,K*%
%TO.N,Net-(D2-K)*%
X134300000Y-68810000D03*
D16*
%TO.P,D2,2,A*%
%TO.N,Net-(D2-A)*%
X134300000Y-71350000D03*
%TD*%
D17*
%TO.P,H3,1,1*%
%TO.N,GND*%
X148800000Y-114710000D03*
%TD*%
D21*
%TO.P,D1,1,K*%
%TO.N,Net-(D1-K)*%
X146556958Y-80855540D03*
D22*
%TO.P,D1,2,A*%
%TO.N,Net-(D1-A)*%
X146556958Y-88475540D03*
%TD*%
D23*
%TO.P,J1,A5,CC1*%
%TO.N,Net-(J1-CC1)*%
X137235000Y-112385000D03*
D24*
%TO.P,J1,A9,VBUS*%
%TO.N,VCC*%
X139255000Y-112385000D03*
D25*
%TO.P,J1,A12,GND*%
%TO.N,GND*%
X140485000Y-112385000D03*
D26*
%TO.P,J1,B5,CC2*%
%TO.N,Net-(J1-CC2)*%
X138235000Y-112385000D03*
D27*
%TO.P,J1,B9,VBUS*%
%TO.N,VCC*%
X136215000Y-112385000D03*
D28*
%TO.P,J1,B12,GND*%
%TO.N,GND*%
X134910000Y-112385000D03*
D29*
%TO.P,J1,S1,SHIELD*%
X133415000Y-113375000D03*
X133415000Y-117175000D03*
X142055000Y-113375000D03*
X142055000Y-117175000D03*
%TD*%
D30*
%TO.N,Net-(D1-A)*%
X138636285Y-94380810D03*
X146474661Y-94400945D03*
%TO.N,Net-(D2-A)*%
X129585824Y-92233461D03*
%TD*%
%TO.N,Net-(D1-A)*%
D31*
X135787361Y-94283000D02*
X135787361Y-91171142D01*
X146506958Y-94368648D02*
X146474661Y-94400945D01*
X135885171Y-94380810D02*
X135787361Y-94283000D01*
X146506958Y-88525540D02*
X146506958Y-94368648D01*
X135794888Y-96294888D02*
X135800000Y-96300000D01*
X138636285Y-94380810D02*
X135885171Y-94380810D01*
X146506958Y-88525540D02*
X146556958Y-88475540D01*
X135800000Y-94295639D02*
X135800000Y-96300000D01*
X135787361Y-94283000D02*
X135800000Y-94295639D01*
X136000631Y-96099369D02*
X135800000Y-96300000D01*
%TO.N,Net-(D2-K)*%
X131296896Y-73030785D02*
X131300000Y-73027681D01*
X131300000Y-73027681D02*
X131300000Y-70580000D01*
X127408837Y-73030785D02*
X131296896Y-73030785D01*
X131300000Y-89210000D02*
X133261142Y-91171142D01*
X133261142Y-91171142D02*
X133287361Y-91171142D01*
X127508837Y-73130785D02*
X127408837Y-73030785D01*
X133070000Y-68810000D02*
X134300000Y-68810000D01*
X131300000Y-70580000D02*
X133070000Y-68810000D01*
X131300000Y-73027681D02*
X131300000Y-89210000D01*
%TO.N,Net-(D4-A)*%
X140267296Y-91124301D02*
X140267296Y-96267296D01*
X127583837Y-88483406D02*
X127583837Y-95493837D01*
X127583837Y-95493837D02*
X130041000Y-97951000D01*
X140267296Y-96267296D02*
X140300000Y-96300000D01*
X130041000Y-97951000D02*
X138649000Y-97951000D01*
X138649000Y-97951000D02*
X140300000Y-96300000D01*
%TO.N,Net-(D3-K)*%
X143100000Y-99010000D02*
X148740000Y-99010000D01*
X146623887Y-71533887D02*
X143900000Y-68810000D01*
X142767296Y-98677296D02*
X143100000Y-99010000D01*
X148740000Y-99010000D02*
X149265914Y-98484086D01*
X149265914Y-98484086D02*
X149265914Y-73835914D01*
X142767296Y-91124301D02*
X142767296Y-98677296D01*
X143900000Y-68810000D02*
X140988450Y-68810000D01*
X149265914Y-73835914D02*
X148265783Y-72835783D01*
X146623887Y-72835783D02*
X146623887Y-71533887D01*
X148265783Y-72835783D02*
X146623887Y-72835783D01*
%TO.N,Net-(D1-K)*%
X147654460Y-80855540D02*
X146556958Y-80855540D01*
X146643888Y-75395785D02*
X146623888Y-75375789D01*
X148430000Y-80080000D02*
X147654460Y-80855540D01*
X148430000Y-75870000D02*
X148430000Y-80080000D01*
X147935787Y-75375787D02*
X148430000Y-75870000D01*
X146623884Y-75375787D02*
X147935787Y-75375787D01*
%TO.N,Net-(D2-A)*%
X131233456Y-96233456D02*
X131300000Y-96300000D01*
X131300000Y-96300000D02*
X129585824Y-94585824D01*
X129585824Y-94585824D02*
X129585824Y-92233461D01*
%TO.N,Net-(D3-A)*%
X143800000Y-73040000D02*
X143800000Y-87210000D01*
X142110000Y-71350000D02*
X143800000Y-73040000D01*
X143800000Y-87210000D02*
X144550000Y-87960000D01*
X140988450Y-71350000D02*
X142110000Y-71350000D01*
X144550000Y-87960000D02*
X144550000Y-96300000D01*
%TO.N,Net-(D4-K)*%
X125581837Y-75570785D02*
X127408837Y-75570785D01*
X125300000Y-80590704D02*
X125300000Y-75852622D01*
X127408837Y-75570785D02*
X127758837Y-75220785D01*
X125572702Y-80863406D02*
X125300000Y-80590704D01*
X125300000Y-75852622D02*
X125581837Y-75570785D01*
X127583837Y-80863406D02*
X125572702Y-80863406D01*
%TO.N,VCC*%
X139255000Y-109755000D02*
X140300000Y-108710000D01*
X135800000Y-106460000D02*
X138045608Y-106460000D01*
X138045608Y-106460000D02*
X140300000Y-106460000D01*
X140320000Y-106480000D02*
X140300000Y-106460000D01*
X140590000Y-106500000D02*
X140550000Y-106460000D01*
X131300000Y-106460000D02*
X135800000Y-106460000D01*
X135800000Y-106460000D02*
X135800000Y-109535000D01*
X144550000Y-106460000D02*
X140300000Y-106460000D01*
X136215000Y-109950000D02*
X136215000Y-112385000D01*
X135800000Y-109535000D02*
X136215000Y-109950000D01*
X140300000Y-108710000D02*
X140300000Y-106460000D01*
X139255000Y-112385000D02*
X139255000Y-109755000D01*
X135800000Y-106460000D02*
X136500000Y-107160000D01*
X138060000Y-106474392D02*
X138045608Y-106460000D01*
%TO.N,Net-(J1-CC1)*%
D32*
X141165083Y-116000000D02*
X141166083Y-115999000D01*
X147308416Y-111109000D02*
X147316000Y-111109000D01*
X141166083Y-115999000D02*
X142417851Y-115999000D01*
X137235000Y-112385000D02*
X137235000Y-115145000D01*
X147525000Y-110900000D02*
X147525000Y-109635000D01*
X138090000Y-116000000D02*
X141165083Y-116000000D01*
X137235000Y-115145000D02*
X138090000Y-116000000D01*
X147316000Y-111109000D02*
X147525000Y-110900000D01*
X142417851Y-115999000D02*
X142418134Y-115999282D01*
X142418134Y-115999282D02*
X147308416Y-111109000D01*
%TO.N,Net-(J1-CC2)*%
X146898420Y-108534000D02*
X146524000Y-108908420D01*
X147366000Y-108534000D02*
X146898420Y-108534000D01*
X138270000Y-112420000D02*
X138235000Y-112385000D01*
X147545000Y-107445000D02*
X147545000Y-108355000D01*
X147545000Y-108355000D02*
X147366000Y-108534000D01*
X146524000Y-108908420D02*
X146524000Y-111255606D01*
X142231605Y-115548000D02*
X139023000Y-115548000D01*
X138270000Y-114795000D02*
X138270000Y-112420000D01*
X146524000Y-111255606D02*
X142231605Y-115548000D01*
X139023000Y-115548000D02*
X138270000Y-114795000D01*
%TO.N,GND*%
D31*
X134910000Y-113065000D02*
X134625000Y-113350000D01*
X134910000Y-112385000D02*
X134910000Y-113065000D01*
X127758837Y-77760785D02*
X127408837Y-78110785D01*
X140485000Y-112385000D02*
X140485000Y-113375000D01*
X134625000Y-113350000D02*
X133440000Y-113350000D01*
X133440000Y-113350000D02*
X133415000Y-113375000D01*
X140485000Y-113375000D02*
X142055000Y-113375000D01*
%TD*%
%TA.AperFunction,Conductor*%
%TO.N,VCC*%
G36*
X146315677Y-104229685D02*
G01*
X146336319Y-104246319D01*
X147263681Y-105173681D01*
X147297166Y-105235004D01*
X147300000Y-105261362D01*
X147300000Y-106120500D01*
X147280315Y-106187539D01*
X147227511Y-106233294D01*
X147176004Y-106244500D01*
X147145000Y-106244500D01*
X147144980Y-106244501D01*
X147042203Y-106255000D01*
X147042200Y-106255001D01*
X146875668Y-106310185D01*
X146875663Y-106310187D01*
X146726342Y-106402289D01*
X146602289Y-106526342D01*
X146529507Y-106644341D01*
X146477559Y-106691066D01*
X146408596Y-106702287D01*
X146344514Y-106674444D01*
X146305658Y-106616375D01*
X146301159Y-106578760D01*
X146300000Y-106578760D01*
X146300000Y-106345305D01*
X146299998Y-106345289D01*
X146270057Y-106117862D01*
X146210681Y-105896269D01*
X146122897Y-105684340D01*
X146122893Y-105684330D01*
X146008194Y-105485666D01*
X145951618Y-105411934D01*
X145951617Y-105411934D01*
X144950000Y-106413551D01*
X144950000Y-106407339D01*
X144922741Y-106305606D01*
X144870080Y-106214394D01*
X144795606Y-106139920D01*
X144704394Y-106087259D01*
X144602661Y-106060000D01*
X144596445Y-106060000D01*
X145598064Y-105058381D01*
X145598064Y-105058380D01*
X145524331Y-105001805D01*
X145524324Y-105001799D01*
X145325669Y-104887106D01*
X145325659Y-104887102D01*
X145113730Y-104799318D01*
X144892137Y-104739942D01*
X144664710Y-104710001D01*
X144664694Y-104710000D01*
X144435306Y-104710000D01*
X144435289Y-104710001D01*
X144207862Y-104739942D01*
X143986269Y-104799318D01*
X143774340Y-104887102D01*
X143774330Y-104887106D01*
X143575673Y-105001801D01*
X143575659Y-105001810D01*
X143501934Y-105058380D01*
X144503553Y-106060000D01*
X144497339Y-106060000D01*
X144395606Y-106087259D01*
X144304394Y-106139920D01*
X144229920Y-106214394D01*
X144177259Y-106305606D01*
X144150000Y-106407339D01*
X144150000Y-106413553D01*
X143148381Y-105411934D01*
X143148380Y-105411934D01*
X143091810Y-105485659D01*
X143091801Y-105485673D01*
X142977106Y-105684330D01*
X142977102Y-105684340D01*
X142889318Y-105896269D01*
X142829942Y-106117862D01*
X142800001Y-106345289D01*
X142800000Y-106345305D01*
X142800000Y-106574694D01*
X142800001Y-106574710D01*
X142829942Y-106802137D01*
X142889318Y-107023730D01*
X142977102Y-107235659D01*
X142977106Y-107235669D01*
X143091799Y-107434324D01*
X143091805Y-107434331D01*
X143148381Y-107508064D01*
X144150000Y-106506445D01*
X144150000Y-106512661D01*
X144177259Y-106614394D01*
X144229920Y-106705606D01*
X144304394Y-106780080D01*
X144395606Y-106832741D01*
X144497339Y-106860000D01*
X144503553Y-106860000D01*
X143501934Y-107861617D01*
X143501934Y-107861618D01*
X143575666Y-107918194D01*
X143680314Y-107978613D01*
X143728530Y-108029180D01*
X143741753Y-108097787D01*
X143715785Y-108162652D01*
X143658870Y-108203180D01*
X143618314Y-108210000D01*
X141231685Y-108210000D01*
X141164646Y-108190315D01*
X141118891Y-108137511D01*
X141108947Y-108068353D01*
X141137972Y-108004797D01*
X141169685Y-107978613D01*
X141274327Y-107918197D01*
X141274334Y-107918192D01*
X141348064Y-107861617D01*
X140346447Y-106860000D01*
X140352661Y-106860000D01*
X140454394Y-106832741D01*
X140545606Y-106780080D01*
X140620080Y-106705606D01*
X140672741Y-106614394D01*
X140700000Y-106512661D01*
X140700000Y-106506447D01*
X141701617Y-107508064D01*
X141758192Y-107434334D01*
X141758197Y-107434327D01*
X141872893Y-107235668D01*
X141872897Y-107235659D01*
X141960681Y-107023730D01*
X142020057Y-106802137D01*
X142049998Y-106574710D01*
X142050000Y-106574694D01*
X142050000Y-106345305D01*
X142049998Y-106345289D01*
X142020057Y-106117862D01*
X141960681Y-105896269D01*
X141872897Y-105684340D01*
X141872893Y-105684330D01*
X141758194Y-105485666D01*
X141701618Y-105411934D01*
X141701617Y-105411934D01*
X140700000Y-106413551D01*
X140700000Y-106407339D01*
X140672741Y-106305606D01*
X140620080Y-106214394D01*
X140545606Y-106139920D01*
X140454394Y-106087259D01*
X140352661Y-106060000D01*
X140346445Y-106060000D01*
X141348064Y-105058381D01*
X141348064Y-105058380D01*
X141274331Y-105001805D01*
X141274324Y-105001799D01*
X141075669Y-104887106D01*
X141075659Y-104887102D01*
X140863730Y-104799318D01*
X140642137Y-104739942D01*
X140414710Y-104710001D01*
X140414694Y-104710000D01*
X140185306Y-104710000D01*
X140185289Y-104710001D01*
X139957862Y-104739942D01*
X139736269Y-104799318D01*
X139524340Y-104887102D01*
X139524330Y-104887106D01*
X139325673Y-105001801D01*
X139325659Y-105001810D01*
X139251934Y-105058380D01*
X140253553Y-106060000D01*
X140247339Y-106060000D01*
X140145606Y-106087259D01*
X140054394Y-106139920D01*
X139979920Y-106214394D01*
X139927259Y-106305606D01*
X139900000Y-106407339D01*
X139900000Y-106413553D01*
X138898380Y-105411934D01*
X138841810Y-105485659D01*
X138841801Y-105485673D01*
X138727106Y-105684330D01*
X138727102Y-105684340D01*
X138639318Y-105896269D01*
X138579942Y-106117862D01*
X138550001Y-106345289D01*
X138550000Y-106345305D01*
X138550000Y-106574694D01*
X138550001Y-106574710D01*
X138579942Y-106802137D01*
X138639318Y-107023730D01*
X138727102Y-107235659D01*
X138727106Y-107235669D01*
X138841799Y-107434324D01*
X138841805Y-107434331D01*
X138898381Y-107508064D01*
X139900000Y-106506445D01*
X139900000Y-106512661D01*
X139927259Y-106614394D01*
X139979920Y-106705606D01*
X140054394Y-106780080D01*
X140145606Y-106832741D01*
X140247339Y-106860000D01*
X140253553Y-106860000D01*
X139251934Y-107861617D01*
X139251934Y-107861618D01*
X139325666Y-107918194D01*
X139524330Y-108032893D01*
X139524340Y-108032897D01*
X139736269Y-108120681D01*
X139957862Y-108180057D01*
X140165658Y-108207414D01*
X140229555Y-108235680D01*
X140268026Y-108294005D01*
X140271065Y-108354671D01*
X139875410Y-110332944D01*
X139842960Y-110394822D01*
X139782208Y-110429332D01*
X139716928Y-110427011D01*
X139570297Y-110381319D01*
X139570287Y-110381317D01*
X139505000Y-110375384D01*
X139505000Y-112185000D01*
X139473389Y-112343053D01*
X139452478Y-112356492D01*
X139432511Y-112373794D01*
X139421996Y-112376081D01*
X139415935Y-112379977D01*
X139381000Y-112385000D01*
X139209500Y-112385000D01*
X139142461Y-112365315D01*
X139096706Y-112312511D01*
X139085500Y-112261000D01*
X139085500Y-110995408D01*
X139084455Y-110983909D01*
X139079315Y-110927343D01*
X139030512Y-110770730D01*
X139022881Y-110758106D01*
X139005000Y-110693959D01*
X139005000Y-110375384D01*
X138939712Y-110381317D01*
X138939702Y-110381319D01*
X138773383Y-110433146D01*
X138703523Y-110434298D01*
X138695971Y-110431576D01*
X138532661Y-110380686D01*
X138532659Y-110380685D01*
X138532657Y-110380685D01*
X138464594Y-110374500D01*
X138005406Y-110374500D01*
X137937343Y-110380685D01*
X137937341Y-110380685D01*
X137937338Y-110380686D01*
X137773570Y-110431719D01*
X137772720Y-110428991D01*
X137716639Y-110436722D01*
X137696695Y-110430866D01*
X137696430Y-110431719D01*
X137532661Y-110380686D01*
X137532659Y-110380685D01*
X137532657Y-110380685D01*
X137464594Y-110374500D01*
X137005406Y-110374500D01*
X136937343Y-110380685D01*
X136937341Y-110380685D01*
X136937338Y-110380686D01*
X136773570Y-110431719D01*
X136772858Y-110429435D01*
X136715167Y-110437397D01*
X136696617Y-110433146D01*
X136530297Y-110381319D01*
X136530287Y-110381317D01*
X136465000Y-110375384D01*
X136465000Y-110693959D01*
X136447119Y-110758106D01*
X136439487Y-110770730D01*
X136390686Y-110927338D01*
X136390685Y-110927341D01*
X136390685Y-110927343D01*
X136387572Y-110961606D01*
X136384500Y-110995408D01*
X136384500Y-112261000D01*
X136381949Y-112269685D01*
X136383238Y-112278647D01*
X136372259Y-112302687D01*
X136364815Y-112328039D01*
X136357974Y-112333966D01*
X136354213Y-112342203D01*
X136331978Y-112356492D01*
X136312011Y-112373794D01*
X136301496Y-112376081D01*
X136295435Y-112379977D01*
X136260500Y-112385000D01*
X136093750Y-112385000D01*
X135965000Y-111870000D01*
X135965000Y-110375384D01*
X135899712Y-110381317D01*
X135899702Y-110381319D01*
X135740353Y-110430974D01*
X135670493Y-110432126D01*
X135611101Y-110395325D01*
X135583166Y-110342665D01*
X135063287Y-108263148D01*
X135066125Y-108193337D01*
X135106255Y-108136142D01*
X135170937Y-108109722D01*
X135231043Y-108118516D01*
X135236271Y-108120681D01*
X135457862Y-108180057D01*
X135685289Y-108209998D01*
X135685306Y-108210000D01*
X135914694Y-108210000D01*
X135914710Y-108209998D01*
X136142137Y-108180057D01*
X136363730Y-108120681D01*
X136575659Y-108032897D01*
X136575668Y-108032893D01*
X136774327Y-107918197D01*
X136774334Y-107918192D01*
X136848064Y-107861617D01*
X135846447Y-106860000D01*
X135852661Y-106860000D01*
X135954394Y-106832741D01*
X136045606Y-106780080D01*
X136120080Y-106705606D01*
X136172741Y-106614394D01*
X136200000Y-106512661D01*
X136200000Y-106506447D01*
X137201617Y-107508064D01*
X137258192Y-107434334D01*
X137258197Y-107434327D01*
X137372893Y-107235668D01*
X137372897Y-107235659D01*
X137460681Y-107023730D01*
X137520057Y-106802137D01*
X137549998Y-106574710D01*
X137550000Y-106574694D01*
X137550000Y-106345305D01*
X137549998Y-106345289D01*
X137520057Y-106117862D01*
X137460681Y-105896269D01*
X137372897Y-105684340D01*
X137372893Y-105684330D01*
X137258194Y-105485666D01*
X137201618Y-105411934D01*
X137201617Y-105411934D01*
X136200000Y-106413551D01*
X136200000Y-106407339D01*
X136172741Y-106305606D01*
X136120080Y-106214394D01*
X136045606Y-106139920D01*
X135954394Y-106087259D01*
X135852661Y-106060000D01*
X135846445Y-106060000D01*
X136848064Y-105058381D01*
X136848064Y-105058380D01*
X136774331Y-105001805D01*
X136774324Y-105001799D01*
X136575669Y-104887106D01*
X136575659Y-104887102D01*
X136363730Y-104799318D01*
X136142137Y-104739942D01*
X135914710Y-104710001D01*
X135914694Y-104710000D01*
X135685306Y-104710000D01*
X135685289Y-104710001D01*
X135457862Y-104739942D01*
X135236269Y-104799318D01*
X135024340Y-104887102D01*
X135024330Y-104887106D01*
X134825673Y-105001801D01*
X134825659Y-105001810D01*
X134751934Y-105058380D01*
X135753553Y-106060000D01*
X135747339Y-106060000D01*
X135645606Y-106087259D01*
X135554394Y-106139920D01*
X135479920Y-106214394D01*
X135427259Y-106305606D01*
X135400000Y-106407339D01*
X135400000Y-106413553D01*
X134398380Y-105411934D01*
X134341810Y-105485659D01*
X134341801Y-105485673D01*
X134227106Y-105684330D01*
X134227102Y-105684340D01*
X134139318Y-105896269D01*
X134079942Y-106117862D01*
X134050001Y-106345289D01*
X134050000Y-106345305D01*
X134050000Y-106574694D01*
X134050001Y-106574710D01*
X134079942Y-106802137D01*
X134139318Y-107023730D01*
X134227102Y-107235659D01*
X134227106Y-107235669D01*
X134341799Y-107434324D01*
X134341805Y-107434331D01*
X134398381Y-107508064D01*
X135400000Y-106506445D01*
X135400000Y-106512661D01*
X135427259Y-106614394D01*
X135479920Y-106705606D01*
X135554394Y-106780080D01*
X135645606Y-106832741D01*
X135747339Y-106860000D01*
X135753553Y-106860000D01*
X134751934Y-107861617D01*
X134751934Y-107861618D01*
X134825666Y-107918194D01*
X134930314Y-107978613D01*
X134978530Y-108029180D01*
X134991753Y-108097787D01*
X134965785Y-108162652D01*
X134908870Y-108203180D01*
X134868314Y-108210000D01*
X132231685Y-108210000D01*
X132164646Y-108190315D01*
X132118891Y-108137511D01*
X132108947Y-108068353D01*
X132137972Y-108004797D01*
X132169685Y-107978613D01*
X132274327Y-107918197D01*
X132274334Y-107918192D01*
X132348064Y-107861617D01*
X131346446Y-106860000D01*
X131352661Y-106860000D01*
X131454394Y-106832741D01*
X131545606Y-106780080D01*
X131620080Y-106705606D01*
X131672741Y-106614394D01*
X131700000Y-106512661D01*
X131700000Y-106506447D01*
X132701617Y-107508064D01*
X132758192Y-107434334D01*
X132758197Y-107434327D01*
X132872893Y-107235668D01*
X132872897Y-107235659D01*
X132960681Y-107023730D01*
X133020057Y-106802137D01*
X133049998Y-106574710D01*
X133050000Y-106574694D01*
X133050000Y-106345305D01*
X133049998Y-106345289D01*
X133020057Y-106117862D01*
X132960681Y-105896269D01*
X132872897Y-105684340D01*
X132872893Y-105684330D01*
X132758194Y-105485666D01*
X132701618Y-105411934D01*
X132701617Y-105411934D01*
X131700000Y-106413551D01*
X131700000Y-106407339D01*
X131672741Y-106305606D01*
X131620080Y-106214394D01*
X131545606Y-106139920D01*
X131454394Y-106087259D01*
X131352661Y-106060000D01*
X131346445Y-106060000D01*
X132348064Y-105058381D01*
X132348064Y-105058380D01*
X132274331Y-105001805D01*
X132274324Y-105001799D01*
X132075669Y-104887106D01*
X132075659Y-104887102D01*
X131863730Y-104799318D01*
X131642137Y-104739942D01*
X131414710Y-104710001D01*
X131414694Y-104710000D01*
X131185306Y-104710000D01*
X131185289Y-104710001D01*
X130957862Y-104739942D01*
X130736269Y-104799318D01*
X130524340Y-104887102D01*
X130524330Y-104887106D01*
X130325673Y-105001801D01*
X130325659Y-105001810D01*
X130251934Y-105058380D01*
X131253553Y-106060000D01*
X131247339Y-106060000D01*
X131145606Y-106087259D01*
X131054394Y-106139920D01*
X130979920Y-106214394D01*
X130927259Y-106305606D01*
X130900000Y-106407339D01*
X130900000Y-106413554D01*
X129898380Y-105411934D01*
X129841810Y-105485659D01*
X129841801Y-105485673D01*
X129727106Y-105684330D01*
X129727102Y-105684340D01*
X129639318Y-105896269D01*
X129579942Y-106117862D01*
X129550001Y-106345289D01*
X129550000Y-106345305D01*
X129550000Y-106574694D01*
X129550001Y-106574710D01*
X129579942Y-106802137D01*
X129639318Y-107023730D01*
X129727102Y-107235659D01*
X129727106Y-107235668D01*
X129804545Y-107369796D01*
X129821018Y-107437696D01*
X129798165Y-107503723D01*
X129743244Y-107546914D01*
X129673691Y-107553555D01*
X129611588Y-107521539D01*
X129609477Y-107519477D01*
X129336319Y-107246319D01*
X129302834Y-107184996D01*
X129300000Y-107158638D01*
X129300000Y-105261362D01*
X129319685Y-105194323D01*
X129336319Y-105173681D01*
X130263681Y-104246319D01*
X130325004Y-104212834D01*
X130351362Y-104210000D01*
X146248638Y-104210000D01*
X146315677Y-104229685D01*
G37*
%TD.AperFunction*%
%TA.AperFunction,Conductor*%
G36*
X145951617Y-107508064D02*
G01*
X146008192Y-107434334D01*
X146008197Y-107434327D01*
X146122893Y-107235668D01*
X146122900Y-107235654D01*
X146205939Y-107035180D01*
X146249780Y-106980776D01*
X146316074Y-106958711D01*
X146383773Y-106975990D01*
X146431384Y-107027127D01*
X146444500Y-107082632D01*
X146444500Y-107945001D01*
X146444501Y-107945019D01*
X146449680Y-107995712D01*
X146449322Y-107997633D01*
X146450006Y-107999465D01*
X146442964Y-108031835D01*
X146436910Y-108064405D01*
X146435438Y-108066434D01*
X146435155Y-108067738D01*
X146414004Y-108095993D01*
X146336319Y-108173680D01*
X146274997Y-108207166D01*
X146248637Y-108210000D01*
X145481685Y-108210000D01*
X145414646Y-108190315D01*
X145368891Y-108137511D01*
X145358947Y-108068353D01*
X145387972Y-108004797D01*
X145419685Y-107978613D01*
X145524327Y-107918197D01*
X145524334Y-107918192D01*
X145598064Y-107861617D01*
X144596447Y-106860000D01*
X144602661Y-106860000D01*
X144704394Y-106832741D01*
X144795606Y-106780080D01*
X144870080Y-106705606D01*
X144922741Y-106614394D01*
X144950000Y-106512661D01*
X144950000Y-106506447D01*
X145951617Y-107508064D01*
G37*
%TD.AperFunction*%
%TD*%
%TA.AperFunction,Conductor*%
%TO.N,GND*%
G36*
X144825028Y-108209250D02*
G01*
X144877284Y-108255630D01*
X144891156Y-108286488D01*
X144909072Y-108347503D01*
X144909074Y-108347507D01*
X144986856Y-108468537D01*
X144986864Y-108468548D01*
X145032608Y-108521340D01*
X145032611Y-108521343D01*
X145032615Y-108521347D01*
X145141349Y-108615567D01*
X145141352Y-108615568D01*
X145141353Y-108615569D01*
X145189770Y-108637681D01*
X145272226Y-108675338D01*
X145339265Y-108695023D01*
X145339269Y-108695024D01*
X145481685Y-108715500D01*
X145774620Y-108715500D01*
X145841659Y-108735185D01*
X145887414Y-108787989D01*
X145896209Y-108840722D01*
X145898500Y-108840722D01*
X145898500Y-110945152D01*
X145878815Y-111012191D01*
X145862181Y-111032833D01*
X143275188Y-113619826D01*
X143213865Y-113653311D01*
X143144173Y-113648327D01*
X143107877Y-113625000D01*
X142355000Y-113625000D01*
X142355000Y-113125000D01*
X143105000Y-113125000D01*
X143105000Y-112971583D01*
X143104999Y-112971579D01*
X143064651Y-112768733D01*
X143064649Y-112768725D01*
X142985499Y-112577641D01*
X142985494Y-112577631D01*
X142870589Y-112405664D01*
X142870586Y-112405660D01*
X142724339Y-112259413D01*
X142724335Y-112259410D01*
X142552368Y-112144505D01*
X142552358Y-112144500D01*
X142361272Y-112065349D01*
X142361267Y-112065347D01*
X142305000Y-112054155D01*
X142305000Y-112908011D01*
X142295060Y-112890795D01*
X142239205Y-112834940D01*
X142170796Y-112795444D01*
X142094496Y-112775000D01*
X142015504Y-112775000D01*
X141939204Y-112795444D01*
X141870795Y-112834940D01*
X141814940Y-112890795D01*
X141805000Y-112908011D01*
X141805000Y-112054156D01*
X141804999Y-112054155D01*
X141748732Y-112065347D01*
X141748727Y-112065349D01*
X141556452Y-112144993D01*
X141486983Y-112152462D01*
X141424503Y-112121187D01*
X141388851Y-112061098D01*
X141384999Y-112030432D01*
X141384999Y-111018417D01*
X141378591Y-110947897D01*
X141378590Y-110947892D01*
X141328018Y-110785603D01*
X141240072Y-110640122D01*
X141119877Y-110519927D01*
X140974395Y-110431980D01*
X140974396Y-110431980D01*
X140812105Y-110381409D01*
X140812106Y-110381409D01*
X140741572Y-110375000D01*
X140735000Y-110375000D01*
X140735000Y-114394999D01*
X140741581Y-114394999D01*
X140812102Y-114388591D01*
X140812107Y-114388590D01*
X140974398Y-114338018D01*
X141058740Y-114287031D01*
X141126295Y-114269194D01*
X141192769Y-114290711D01*
X141225992Y-114324254D01*
X141239411Y-114344337D01*
X141385660Y-114490586D01*
X141385664Y-114490589D01*
X141557631Y-114605494D01*
X141557641Y-114605499D01*
X141747010Y-114683939D01*
X141801413Y-114727780D01*
X141823478Y-114794074D01*
X141806199Y-114861774D01*
X141755061Y-114909384D01*
X141699557Y-114922500D01*
X139333452Y-114922500D01*
X139266413Y-114902815D01*
X139245771Y-114886181D01*
X138966770Y-114607180D01*
X138933285Y-114545857D01*
X138938269Y-114476165D01*
X138980141Y-114420232D01*
X139045605Y-114395815D01*
X139054425Y-114395499D01*
X139500800Y-114395499D01*
X139500808Y-114395499D01*
X139570376Y-114389178D01*
X139570383Y-114389176D01*
X139730471Y-114339291D01*
X139799941Y-114297294D01*
X139867491Y-114279459D01*
X139928238Y-114297295D01*
X139995604Y-114338019D01*
X139995603Y-114338019D01*
X140157894Y-114388590D01*
X140157893Y-114388590D01*
X140228408Y-114394998D01*
X140228426Y-114394999D01*
X140234999Y-114394998D01*
X140235000Y-114394998D01*
X140235000Y-110746693D01*
X140254685Y-110679654D01*
X140258499Y-110674060D01*
X140290636Y-110629592D01*
X140323086Y-110567714D01*
X140371094Y-110432081D01*
X140564360Y-109465744D01*
X140596809Y-109403871D01*
X140598152Y-109402503D01*
X140844114Y-109156543D01*
X140920775Y-109041811D01*
X140973580Y-108914329D01*
X140973580Y-108914325D01*
X140973582Y-108914322D01*
X140978934Y-108887411D01*
X140978934Y-108887409D01*
X140996277Y-108800219D01*
X141028663Y-108738310D01*
X141089379Y-108703737D01*
X141135536Y-108701676D01*
X141231685Y-108715500D01*
X141231688Y-108715500D01*
X143618303Y-108715500D01*
X143618314Y-108715500D01*
X143702143Y-108708501D01*
X143738068Y-108702459D01*
X143742688Y-108701683D01*
X143742692Y-108701682D01*
X143742699Y-108701681D01*
X143742702Y-108701680D01*
X143742708Y-108701679D01*
X143768781Y-108695024D01*
X143824197Y-108680880D01*
X143952084Y-108614952D01*
X144008999Y-108574424D01*
X144009004Y-108574420D01*
X144113135Y-108475131D01*
X144185075Y-108350527D01*
X144211043Y-108285662D01*
X144211044Y-108285654D01*
X144211600Y-108283920D01*
X144211943Y-108283412D01*
X144212689Y-108281550D01*
X144213094Y-108281712D01*
X144250761Y-108226056D01*
X144314989Y-108198550D01*
X144345899Y-108198734D01*
X144435265Y-108210500D01*
X144435266Y-108210500D01*
X144664727Y-108210500D01*
X144664734Y-108210500D01*
X144755993Y-108198485D01*
X144825028Y-108209250D01*
G37*
%TD.AperFunction*%
%TA.AperFunction,Conductor*%
G36*
X143625520Y-69530185D02*
G01*
X143646162Y-69546819D01*
X145343145Y-71243802D01*
X145376630Y-71305125D01*
X145371646Y-71374817D01*
X145329776Y-71430749D01*
X145266339Y-71478238D01*
X145180093Y-71593447D01*
X145180089Y-71593454D01*
X145129795Y-71728300D01*
X145123388Y-71787899D01*
X145123388Y-71787906D01*
X145123387Y-71787918D01*
X145123387Y-73883653D01*
X145123388Y-73883659D01*
X145129795Y-73943266D01*
X145180089Y-74078111D01*
X145180093Y-74078118D01*
X145266339Y-74193327D01*
X145266342Y-74193330D01*
X145381551Y-74279576D01*
X145381560Y-74279581D01*
X145412350Y-74291065D01*
X145468284Y-74332936D01*
X145492702Y-74398400D01*
X145477851Y-74466673D01*
X145469337Y-74480131D01*
X145374754Y-74610315D01*
X145270384Y-74815152D01*
X145199347Y-75033781D01*
X145199347Y-75033784D01*
X145163384Y-75260843D01*
X145163384Y-75490730D01*
X145199347Y-75717789D01*
X145199347Y-75717792D01*
X145270384Y-75936421D01*
X145270386Y-75936424D01*
X145369742Y-76131422D01*
X145374755Y-76141259D01*
X145509871Y-76327232D01*
X145509875Y-76327237D01*
X145672433Y-76489795D01*
X145672438Y-76489799D01*
X145783511Y-76570498D01*
X145826177Y-76625827D01*
X145832156Y-76695441D01*
X145813614Y-76730582D01*
X145812054Y-76750397D01*
X146577440Y-77515783D01*
X146571226Y-77515783D01*
X146469493Y-77543042D01*
X146378281Y-77595703D01*
X146303807Y-77670177D01*
X146251146Y-77761389D01*
X146223887Y-77863122D01*
X146223887Y-77869335D01*
X145458502Y-77103950D01*
X145458501Y-77103950D01*
X145409392Y-77171544D01*
X145307919Y-77370694D01*
X145238852Y-77583264D01*
X145203887Y-77804021D01*
X145203887Y-78027544D01*
X145238852Y-78248301D01*
X145307919Y-78460871D01*
X145409394Y-78660025D01*
X145458501Y-78727614D01*
X145458501Y-78727615D01*
X146223887Y-77962229D01*
X146223887Y-77968444D01*
X146251146Y-78070177D01*
X146303807Y-78161389D01*
X146378281Y-78235863D01*
X146469493Y-78288524D01*
X146571226Y-78315783D01*
X146577439Y-78315783D01*
X145812053Y-79081167D01*
X145879644Y-79130275D01*
X146078798Y-79231750D01*
X146291363Y-79300816D01*
X146340296Y-79308566D01*
X146403431Y-79338496D01*
X146440363Y-79397807D01*
X146439365Y-79467669D01*
X146400756Y-79525902D01*
X146336793Y-79554017D01*
X146320899Y-79555040D01*
X145709087Y-79555040D01*
X145709081Y-79555041D01*
X145649474Y-79561448D01*
X145514629Y-79611742D01*
X145514622Y-79611746D01*
X145399413Y-79697992D01*
X145399410Y-79697995D01*
X145313164Y-79813204D01*
X145313160Y-79813211D01*
X145262866Y-79948057D01*
X145256459Y-80007656D01*
X145256458Y-80007675D01*
X145256458Y-81703410D01*
X145256459Y-81703416D01*
X145262866Y-81763023D01*
X145313160Y-81897868D01*
X145313164Y-81897875D01*
X145399410Y-82013084D01*
X145399413Y-82013087D01*
X145514622Y-82099333D01*
X145514629Y-82099337D01*
X145649475Y-82149631D01*
X145649474Y-82149631D01*
X145656402Y-82150375D01*
X145709085Y-82156040D01*
X147404830Y-82156039D01*
X147464441Y-82149631D01*
X147599289Y-82099336D01*
X147714504Y-82013086D01*
X147800754Y-81897871D01*
X147851049Y-81763023D01*
X147857458Y-81703413D01*
X147857457Y-81612524D01*
X147877141Y-81545487D01*
X147929944Y-81499731D01*
X147933968Y-81497979D01*
X147986271Y-81476315D01*
X148101003Y-81399654D01*
X148353733Y-81146924D01*
X148415056Y-81113439D01*
X148484747Y-81118423D01*
X148540681Y-81160294D01*
X148565098Y-81225759D01*
X148565414Y-81234605D01*
X148565414Y-98142567D01*
X148556769Y-98172007D01*
X148550246Y-98201994D01*
X148546491Y-98207009D01*
X148545729Y-98209606D01*
X148529095Y-98230248D01*
X148486162Y-98273181D01*
X148424839Y-98306666D01*
X148398481Y-98309500D01*
X143591796Y-98309500D01*
X143524757Y-98289815D01*
X143479002Y-98237011D01*
X143467796Y-98185500D01*
X143467796Y-97911266D01*
X143487481Y-97844227D01*
X143540285Y-97798472D01*
X143609443Y-97788528D01*
X143653792Y-97803877D01*
X143774112Y-97873344D01*
X143774117Y-97873346D01*
X143774123Y-97873349D01*
X143865480Y-97911190D01*
X143986113Y-97961158D01*
X144207762Y-98020548D01*
X144435266Y-98050500D01*
X144435273Y-98050500D01*
X144664727Y-98050500D01*
X144664734Y-98050500D01*
X144892238Y-98020548D01*
X145113887Y-97961158D01*
X145325888Y-97873344D01*
X145524612Y-97758611D01*
X145706661Y-97618919D01*
X145706665Y-97618914D01*
X145706670Y-97618911D01*
X145868911Y-97456670D01*
X145868914Y-97456665D01*
X145868919Y-97456661D01*
X146008611Y-97274612D01*
X146123344Y-97075888D01*
X146211158Y-96863887D01*
X146270548Y-96642238D01*
X146300500Y-96414734D01*
X146300500Y-96185266D01*
X146270548Y-95957762D01*
X146243607Y-95857215D01*
X146245270Y-95787368D01*
X146284433Y-95729506D01*
X146348661Y-95702002D01*
X146367437Y-95701623D01*
X146367437Y-95701445D01*
X146577012Y-95701445D01*
X146577013Y-95701445D01*
X146779195Y-95669422D01*
X146973880Y-95606165D01*
X147156271Y-95513232D01*
X147317070Y-95396406D01*
X147321874Y-95392916D01*
X147321876Y-95392913D01*
X147321880Y-95392911D01*
X147466627Y-95248164D01*
X147466629Y-95248160D01*
X147466632Y-95248158D01*
X147524744Y-95168172D01*
X147586948Y-95082555D01*
X147679881Y-94900164D01*
X147743138Y-94705479D01*
X147775161Y-94503297D01*
X147775161Y-94298593D01*
X147770737Y-94270663D01*
X147743138Y-94096410D01*
X147679879Y-93901721D01*
X147646164Y-93835552D01*
X147586948Y-93719335D01*
X147558595Y-93680310D01*
X147466632Y-93553731D01*
X147321878Y-93408977D01*
X147321873Y-93408973D01*
X147258573Y-93362983D01*
X147215907Y-93307653D01*
X147207458Y-93262665D01*
X147207458Y-89904131D01*
X147227143Y-89837092D01*
X147275164Y-89793646D01*
X147319997Y-89770803D01*
X147343391Y-89758883D01*
X147534468Y-89620057D01*
X147701475Y-89453050D01*
X147840301Y-89261973D01*
X147947526Y-89051532D01*
X148020511Y-88826908D01*
X148025429Y-88795858D01*
X148057458Y-88593637D01*
X148057458Y-88357442D01*
X148020511Y-88124171D01*
X147986647Y-88019952D01*
X147947526Y-87899548D01*
X147947524Y-87899545D01*
X147947524Y-87899543D01*
X147885810Y-87778424D01*
X147840301Y-87689107D01*
X147701475Y-87498030D01*
X147534468Y-87331023D01*
X147343391Y-87192197D01*
X147323690Y-87182159D01*
X147132954Y-87084973D01*
X146908326Y-87011986D01*
X146675055Y-86975040D01*
X146675050Y-86975040D01*
X146438866Y-86975040D01*
X146438861Y-86975040D01*
X146205589Y-87011986D01*
X145980961Y-87084973D01*
X145770524Y-87192197D01*
X145661508Y-87271402D01*
X145579448Y-87331023D01*
X145579446Y-87331025D01*
X145579445Y-87331025D01*
X145412443Y-87498027D01*
X145412436Y-87498036D01*
X145345822Y-87589721D01*
X145290492Y-87632387D01*
X145220879Y-87638365D01*
X145159084Y-87605759D01*
X145142403Y-87585726D01*
X145094114Y-87513457D01*
X145094111Y-87513453D01*
X144536819Y-86956161D01*
X144503334Y-86894838D01*
X144500500Y-86868480D01*
X144500500Y-72971009D01*
X144498050Y-72958691D01*
X144498049Y-72958687D01*
X144473580Y-72835672D01*
X144424017Y-72716015D01*
X144420777Y-72708192D01*
X144344112Y-72593454D01*
X142556545Y-70805887D01*
X142441807Y-70729222D01*
X142314332Y-70676421D01*
X142314322Y-70676418D01*
X142263561Y-70666321D01*
X142201650Y-70633936D01*
X142187434Y-70617589D01*
X142186268Y-70615984D01*
X142186265Y-70615978D01*
X142056692Y-70437635D01*
X142006520Y-70387463D01*
X141973036Y-70326141D01*
X141978020Y-70256449D01*
X142019892Y-70200516D01*
X142050870Y-70183601D01*
X142130776Y-70153798D01*
X142130776Y-70153797D01*
X142130781Y-70153796D01*
X142245996Y-70067546D01*
X142332246Y-69952331D01*
X142382541Y-69817483D01*
X142388950Y-69757873D01*
X142388950Y-69634500D01*
X142408635Y-69567461D01*
X142461439Y-69521706D01*
X142512950Y-69510500D01*
X143558481Y-69510500D01*
X143625520Y-69530185D01*
G37*
%TD.AperFunction*%
%TA.AperFunction,Conductor*%
G36*
X127008837Y-78163446D02*
G01*
X127036096Y-78265179D01*
X127088757Y-78356391D01*
X127163231Y-78430865D01*
X127254443Y-78483526D01*
X127356176Y-78510785D01*
X127362390Y-78510785D01*
X126582145Y-79291027D01*
X126579437Y-79303918D01*
X126530383Y-79353672D01*
X126483442Y-79368553D01*
X126476353Y-79369315D01*
X126341508Y-79419608D01*
X126341501Y-79419612D01*
X126226293Y-79505858D01*
X126226292Y-79505859D01*
X126226291Y-79505860D01*
X126223763Y-79509235D01*
X126220388Y-79511762D01*
X126220020Y-79512131D01*
X126219966Y-79512077D01*
X126167830Y-79551104D01*
X126098138Y-79556086D01*
X126036816Y-79522600D01*
X126003333Y-79461275D01*
X126000500Y-79434921D01*
X126000500Y-78969856D01*
X126020185Y-78902817D01*
X126072989Y-78857062D01*
X126142147Y-78847118D01*
X126205703Y-78876143D01*
X126224818Y-78896971D01*
X126243450Y-78922616D01*
X126243451Y-78922617D01*
X127008837Y-78157231D01*
X127008837Y-78163446D01*
G37*
%TD.AperFunction*%
%TA.AperFunction,Conductor*%
G36*
X126205703Y-76405046D02*
G01*
X126224816Y-76425871D01*
X126229066Y-76431720D01*
X126294830Y-76522237D01*
X126457386Y-76684793D01*
X126457391Y-76684797D01*
X126568465Y-76765497D01*
X126611131Y-76820827D01*
X126617110Y-76890440D01*
X126598563Y-76925590D01*
X126597004Y-76945400D01*
X127362390Y-77710785D01*
X127356176Y-77710785D01*
X127254443Y-77738044D01*
X127163231Y-77790705D01*
X127088757Y-77865179D01*
X127036096Y-77956391D01*
X127008837Y-78058124D01*
X127008837Y-78064337D01*
X126243452Y-77298952D01*
X126243450Y-77298952D01*
X126224818Y-77324598D01*
X126169488Y-77367264D01*
X126099875Y-77373243D01*
X126038080Y-77340638D01*
X126003723Y-77279799D01*
X126000500Y-77251713D01*
X126000500Y-76498759D01*
X126020185Y-76431720D01*
X126072989Y-76385965D01*
X126142147Y-76376021D01*
X126205703Y-76405046D01*
G37*
%TD.AperFunction*%
%TA.AperFunction,Conductor*%
G36*
X148802702Y-62710617D02*
G01*
X149186771Y-62727386D01*
X149197506Y-62728326D01*
X149575971Y-62778152D01*
X149586597Y-62780025D01*
X149959284Y-62862648D01*
X149969710Y-62865442D01*
X150333765Y-62980227D01*
X150343911Y-62983920D01*
X150696578Y-63130000D01*
X150706369Y-63134566D01*
X151044942Y-63310816D01*
X151054310Y-63316224D01*
X151376244Y-63521318D01*
X151385105Y-63527523D01*
X151687930Y-63759889D01*
X151696217Y-63766843D01*
X151977635Y-64024715D01*
X151985284Y-64032364D01*
X152243156Y-64313782D01*
X152250110Y-64322069D01*
X152482476Y-64624894D01*
X152488681Y-64633755D01*
X152693775Y-64955689D01*
X152699183Y-64965057D01*
X152875430Y-65303623D01*
X152880002Y-65313427D01*
X153026075Y-65666078D01*
X153029775Y-65676244D01*
X153144554Y-66040278D01*
X153147354Y-66050727D01*
X153229971Y-66423389D01*
X153231849Y-66434042D01*
X153281671Y-66812473D01*
X153282614Y-66823249D01*
X153299382Y-67207297D01*
X153299500Y-67212706D01*
X153299500Y-114707293D01*
X153299382Y-114712702D01*
X153282614Y-115096750D01*
X153281671Y-115107526D01*
X153231849Y-115485957D01*
X153229971Y-115496610D01*
X153147354Y-115869272D01*
X153144554Y-115879721D01*
X153029775Y-116243755D01*
X153026075Y-116253921D01*
X152880002Y-116606572D01*
X152875430Y-116616376D01*
X152699183Y-116954942D01*
X152693775Y-116964310D01*
X152488681Y-117286244D01*
X152482476Y-117295105D01*
X152250110Y-117597930D01*
X152243156Y-117606217D01*
X151985284Y-117887635D01*
X151977635Y-117895284D01*
X151696217Y-118153156D01*
X151687930Y-118160110D01*
X151385105Y-118392476D01*
X151376244Y-118398681D01*
X151054310Y-118603775D01*
X151044942Y-118609183D01*
X150706376Y-118785430D01*
X150696572Y-118790002D01*
X150343921Y-118936075D01*
X150333755Y-118939775D01*
X149969721Y-119054554D01*
X149959272Y-119057354D01*
X149586610Y-119139971D01*
X149575957Y-119141849D01*
X149197526Y-119191671D01*
X149186750Y-119192614D01*
X148802703Y-119209382D01*
X148797294Y-119209500D01*
X126302706Y-119209500D01*
X126297297Y-119209382D01*
X125913249Y-119192614D01*
X125902473Y-119191671D01*
X125524042Y-119141849D01*
X125513389Y-119139971D01*
X125140727Y-119057354D01*
X125130278Y-119054554D01*
X124766244Y-118939775D01*
X124756078Y-118936075D01*
X124403427Y-118790002D01*
X124393623Y-118785430D01*
X124055057Y-118609183D01*
X124045689Y-118603775D01*
X123723755Y-118398681D01*
X123714894Y-118392476D01*
X123412069Y-118160110D01*
X123403782Y-118153156D01*
X123122364Y-117895284D01*
X123114715Y-117887635D01*
X122856843Y-117606217D01*
X122849889Y-117597930D01*
X122793921Y-117524991D01*
X122617523Y-117295105D01*
X122611318Y-117286244D01*
X122406224Y-116964310D01*
X122400816Y-116954942D01*
X122385229Y-116925000D01*
X122224566Y-116616369D01*
X122219997Y-116606572D01*
X122217881Y-116601463D01*
X122073920Y-116253911D01*
X122070224Y-116243755D01*
X122058213Y-116205660D01*
X121955442Y-115879710D01*
X121952648Y-115869284D01*
X121870025Y-115496597D01*
X121868152Y-115485971D01*
X121818326Y-115107506D01*
X121817386Y-115096771D01*
X121800618Y-114712702D01*
X121800500Y-114707293D01*
X121800500Y-114528234D01*
X122600000Y-114528234D01*
X122600000Y-114891765D01*
X122635632Y-115253556D01*
X122706550Y-115610090D01*
X122706553Y-115610101D01*
X122812086Y-115957997D01*
X122951207Y-116293864D01*
X122951209Y-116293869D01*
X123122570Y-116614462D01*
X123122581Y-116614480D01*
X123324551Y-116916750D01*
X123511678Y-117144765D01*
X123511679Y-117144766D01*
X125005747Y-115650697D01*
X125079588Y-115752330D01*
X125257670Y-115930412D01*
X125359301Y-116004251D01*
X123865232Y-117498319D01*
X123865233Y-117498320D01*
X124093249Y-117685448D01*
X124395519Y-117887418D01*
X124395537Y-117887429D01*
X124716130Y-118058790D01*
X124716135Y-118058792D01*
X125052002Y-118197913D01*
X125399898Y-118303446D01*
X125399909Y-118303449D01*
X125756443Y-118374367D01*
X126118234Y-118410000D01*
X126481766Y-118410000D01*
X126843556Y-118374367D01*
X127200090Y-118303449D01*
X127200101Y-118303446D01*
X127547997Y-118197913D01*
X127883864Y-118058792D01*
X127883869Y-118058790D01*
X128204462Y-117887429D01*
X128204480Y-117887418D01*
X128506736Y-117685457D01*
X128506750Y-117685447D01*
X128734765Y-117498320D01*
X128734766Y-117498319D01*
X128697766Y-117461319D01*
X127240698Y-116004251D01*
X127342330Y-115930412D01*
X127520412Y-115752330D01*
X127594251Y-115650698D01*
X129088319Y-117144766D01*
X129088320Y-117144765D01*
X129275447Y-116916750D01*
X129275464Y-116916727D01*
X129372449Y-116771579D01*
X132365000Y-116771579D01*
X132365000Y-116925000D01*
X133115000Y-116925000D01*
X133115000Y-117425000D01*
X132365000Y-117425000D01*
X132365000Y-117578420D01*
X132405348Y-117781266D01*
X132405350Y-117781274D01*
X132484500Y-117972358D01*
X132484505Y-117972368D01*
X132599410Y-118144335D01*
X132599413Y-118144339D01*
X132745660Y-118290586D01*
X132745664Y-118290589D01*
X132917631Y-118405494D01*
X132917641Y-118405499D01*
X133108723Y-118484648D01*
X133108725Y-118484649D01*
X133165000Y-118495842D01*
X133165000Y-117641988D01*
X133174940Y-117659205D01*
X133230795Y-117715060D01*
X133299204Y-117754556D01*
X133375504Y-117775000D01*
X133454496Y-117775000D01*
X133530796Y-117754556D01*
X133599205Y-117715060D01*
X133655060Y-117659205D01*
X133665000Y-117641988D01*
X133665000Y-118495842D01*
X133721274Y-118484649D01*
X133721276Y-118484648D01*
X133912358Y-118405499D01*
X133912368Y-118405494D01*
X134084335Y-118290589D01*
X134084339Y-118290586D01*
X134230586Y-118144339D01*
X134230589Y-118144335D01*
X134345494Y-117972368D01*
X134345499Y-117972358D01*
X134424649Y-117781274D01*
X134424651Y-117781266D01*
X134464999Y-117578420D01*
X134465000Y-117578417D01*
X134465000Y-117425000D01*
X133715000Y-117425000D01*
X133715000Y-116925000D01*
X134465000Y-116925000D01*
X134465000Y-116771583D01*
X134464999Y-116771579D01*
X134424651Y-116568733D01*
X134424649Y-116568725D01*
X134345499Y-116377641D01*
X134345494Y-116377631D01*
X134230589Y-116205664D01*
X134230586Y-116205660D01*
X134084339Y-116059413D01*
X134084335Y-116059410D01*
X133912368Y-115944505D01*
X133912358Y-115944500D01*
X133721272Y-115865349D01*
X133721267Y-115865347D01*
X133665000Y-115854155D01*
X133665000Y-116708011D01*
X133655060Y-116690795D01*
X133599205Y-116634940D01*
X133530796Y-116595444D01*
X133454496Y-116575000D01*
X133375504Y-116575000D01*
X133299204Y-116595444D01*
X133230795Y-116634940D01*
X133174940Y-116690795D01*
X133165000Y-116708011D01*
X133165000Y-115854156D01*
X133164999Y-115854155D01*
X133108732Y-115865347D01*
X133108727Y-115865349D01*
X132917641Y-115944500D01*
X132917631Y-115944505D01*
X132745664Y-116059410D01*
X132745660Y-116059413D01*
X132599413Y-116205660D01*
X132599410Y-116205664D01*
X132484505Y-116377631D01*
X132484500Y-116377641D01*
X132405350Y-116568725D01*
X132405348Y-116568733D01*
X132365000Y-116771579D01*
X129372449Y-116771579D01*
X129422547Y-116696602D01*
X129422547Y-116696601D01*
X129477418Y-116614480D01*
X129477429Y-116614462D01*
X129648790Y-116293869D01*
X129648792Y-116293864D01*
X129787913Y-115957997D01*
X129893446Y-115610101D01*
X129893449Y-115610090D01*
X129964367Y-115253556D01*
X130000000Y-114891765D01*
X130000000Y-114528234D01*
X129964367Y-114166443D01*
X129893449Y-113809909D01*
X129893446Y-113809898D01*
X129832696Y-113609633D01*
X129787913Y-113462002D01*
X129648792Y-113126135D01*
X129648790Y-113126130D01*
X129594171Y-113023945D01*
X129566181Y-112971579D01*
X132365000Y-112971579D01*
X132365000Y-113125000D01*
X133115000Y-113125000D01*
X133115000Y-113625000D01*
X132365000Y-113625000D01*
X132365000Y-113778420D01*
X132405348Y-113981266D01*
X132405350Y-113981274D01*
X132484500Y-114172358D01*
X132484505Y-114172368D01*
X132599410Y-114344335D01*
X132599413Y-114344339D01*
X132745660Y-114490586D01*
X132745664Y-114490589D01*
X132917631Y-114605494D01*
X132917641Y-114605499D01*
X133108723Y-114684648D01*
X133108725Y-114684649D01*
X133165000Y-114695842D01*
X133165000Y-113841988D01*
X133174940Y-113859205D01*
X133230795Y-113915060D01*
X133299204Y-113954556D01*
X133375504Y-113975000D01*
X133454496Y-113975000D01*
X133530796Y-113954556D01*
X133599205Y-113915060D01*
X133655060Y-113859205D01*
X133665000Y-113841988D01*
X133665000Y-114695842D01*
X133721274Y-114684649D01*
X133721276Y-114684648D01*
X133912358Y-114605499D01*
X133912368Y-114605494D01*
X134084335Y-114490589D01*
X134084339Y-114490586D01*
X134230584Y-114344341D01*
X134230584Y-114344340D01*
X134236219Y-114335908D01*
X134289829Y-114291100D01*
X134359153Y-114282389D01*
X134403475Y-114298676D01*
X134473607Y-114341072D01*
X134473606Y-114341072D01*
X134627197Y-114388932D01*
X134627207Y-114388935D01*
X134659999Y-114391914D01*
X134660000Y-114391914D01*
X134660000Y-110378085D01*
X134659999Y-110378085D01*
X134627205Y-110381066D01*
X134473603Y-110428929D01*
X134335919Y-110512163D01*
X134222163Y-110625919D01*
X134138929Y-110763603D01*
X134091065Y-110917207D01*
X134085000Y-110983956D01*
X134085000Y-112030431D01*
X134065315Y-112097470D01*
X134012511Y-112143225D01*
X133943353Y-112153169D01*
X133913547Y-112144992D01*
X133721272Y-112065349D01*
X133721267Y-112065347D01*
X133665000Y-112054155D01*
X133665000Y-112908011D01*
X133655060Y-112890795D01*
X133599205Y-112834940D01*
X133530796Y-112795444D01*
X133454496Y-112775000D01*
X133375504Y-112775000D01*
X133299204Y-112795444D01*
X133230795Y-112834940D01*
X133174940Y-112890795D01*
X133165000Y-112908011D01*
X133165000Y-112054156D01*
X133164999Y-112054155D01*
X133108732Y-112065347D01*
X133108727Y-112065349D01*
X132917641Y-112144500D01*
X132917631Y-112144505D01*
X132745664Y-112259410D01*
X132745660Y-112259413D01*
X132599413Y-112405660D01*
X132599410Y-112405664D01*
X132484505Y-112577631D01*
X132484500Y-112577641D01*
X132405350Y-112768725D01*
X132405348Y-112768733D01*
X132365000Y-112971579D01*
X129566181Y-112971579D01*
X129477429Y-112805537D01*
X129477418Y-112805519D01*
X129275448Y-112503249D01*
X129088320Y-112275233D01*
X129088319Y-112275232D01*
X127594251Y-113769300D01*
X127520412Y-113667670D01*
X127342330Y-113489588D01*
X127240698Y-113415748D01*
X128734766Y-111921679D01*
X128734765Y-111921678D01*
X128506750Y-111734551D01*
X128204480Y-111532581D01*
X128204462Y-111532570D01*
X127883869Y-111361209D01*
X127883864Y-111361207D01*
X127547997Y-111222086D01*
X127200101Y-111116553D01*
X127200090Y-111116550D01*
X126843556Y-111045632D01*
X126481766Y-111010000D01*
X126118234Y-111010000D01*
X125756443Y-111045632D01*
X125399909Y-111116550D01*
X125399898Y-111116553D01*
X125052002Y-111222086D01*
X124716135Y-111361207D01*
X124716130Y-111361209D01*
X124395537Y-111532570D01*
X124395519Y-111532581D01*
X124093258Y-111734545D01*
X124093254Y-111734548D01*
X123865233Y-111921679D01*
X123865233Y-111921680D01*
X125359301Y-113415748D01*
X125257670Y-113489588D01*
X125079588Y-113667670D01*
X125005748Y-113769301D01*
X123511680Y-112275233D01*
X123511679Y-112275233D01*
X123324548Y-112503254D01*
X123324545Y-112503258D01*
X123122581Y-112805519D01*
X123122570Y-112805537D01*
X122951209Y-113126130D01*
X122951207Y-113126135D01*
X122812086Y-113462002D01*
X122706553Y-113809898D01*
X122706550Y-113809909D01*
X122635632Y-114166443D01*
X122600000Y-114528234D01*
X121800500Y-114528234D01*
X121800500Y-109207731D01*
X122438193Y-109207731D01*
X126318150Y-109207731D01*
X126318150Y-105261357D01*
X128794500Y-105261357D01*
X128794500Y-107158640D01*
X128797397Y-107212688D01*
X128797397Y-107212689D01*
X128800229Y-107239022D01*
X128800232Y-107239049D01*
X128808885Y-107292445D01*
X128808885Y-107292447D01*
X128859166Y-107427252D01*
X128859168Y-107427257D01*
X128892653Y-107488580D01*
X128978877Y-107603761D01*
X128978881Y-107603765D01*
X128978886Y-107603771D01*
X129252044Y-107876929D01*
X129256217Y-107881054D01*
X129256256Y-107881092D01*
X129258367Y-107883154D01*
X129262755Y-107887388D01*
X129379956Y-107970846D01*
X129442059Y-108002862D01*
X129578021Y-108049919D01*
X129721738Y-108056766D01*
X129780031Y-108051200D01*
X129785416Y-108050686D01*
X129787392Y-108050591D01*
X129791295Y-108050125D01*
X129791298Y-108050125D01*
X129931123Y-108016203D01*
X130055726Y-107944262D01*
X130110647Y-107901071D01*
X130114855Y-107896656D01*
X130175359Y-107861722D01*
X130245150Y-107865043D01*
X130280085Y-107883849D01*
X130302532Y-107901073D01*
X130325388Y-107918611D01*
X130371071Y-107944986D01*
X130524108Y-108033342D01*
X130524123Y-108033349D01*
X130615480Y-108071190D01*
X130736113Y-108121158D01*
X130957762Y-108180548D01*
X131174312Y-108209057D01*
X131177328Y-108209455D01*
X131185266Y-108210500D01*
X131185273Y-108210500D01*
X131414727Y-108210500D01*
X131414734Y-108210500D01*
X131505993Y-108198485D01*
X131575028Y-108209250D01*
X131627284Y-108255630D01*
X131641156Y-108286488D01*
X131659072Y-108347503D01*
X131659074Y-108347507D01*
X131736856Y-108468537D01*
X131736864Y-108468548D01*
X131782608Y-108521340D01*
X131782611Y-108521343D01*
X131782615Y-108521347D01*
X131891349Y-108615567D01*
X131891352Y-108615568D01*
X131891353Y-108615569D01*
X131939770Y-108637681D01*
X132022226Y-108675338D01*
X132089265Y-108695023D01*
X132089269Y-108695024D01*
X132231685Y-108715500D01*
X134558501Y-108715500D01*
X134625540Y-108735185D01*
X134671295Y-108787989D01*
X134678797Y-108809421D01*
X134760199Y-109135028D01*
X135092759Y-110465269D01*
X135136606Y-110579551D01*
X135136607Y-110579553D01*
X135145540Y-110596391D01*
X135160000Y-110654502D01*
X135160000Y-114391914D01*
X135192792Y-114388935D01*
X135192802Y-114388932D01*
X135346392Y-114341072D01*
X135480283Y-114260132D01*
X135547837Y-114242296D01*
X135608582Y-114260132D01*
X135670060Y-114297296D01*
X135739529Y-114339291D01*
X135899620Y-114389177D01*
X135969199Y-114395500D01*
X136460800Y-114395499D01*
X136460808Y-114395499D01*
X136474279Y-114394275D01*
X136542825Y-114407812D01*
X136593170Y-114456259D01*
X136609500Y-114517766D01*
X136609500Y-115083393D01*
X136609500Y-115206607D01*
X136618472Y-115251714D01*
X136633537Y-115327452D01*
X136647347Y-115360792D01*
X136650377Y-115368108D01*
X136650379Y-115368114D01*
X136680685Y-115441280D01*
X136680690Y-115441289D01*
X136710828Y-115486392D01*
X136710829Y-115486394D01*
X136749140Y-115543731D01*
X136749141Y-115543732D01*
X136749142Y-115543733D01*
X136836267Y-115630858D01*
X136836268Y-115630858D01*
X136843335Y-115637925D01*
X136843334Y-115637925D01*
X136843338Y-115637928D01*
X137691263Y-116485855D01*
X137691267Y-116485858D01*
X137793710Y-116554309D01*
X137793711Y-116554309D01*
X137793715Y-116554312D01*
X137860397Y-116581932D01*
X137907548Y-116601463D01*
X137927597Y-116605451D01*
X137992624Y-116618385D01*
X138028392Y-116625501D01*
X138028394Y-116625501D01*
X138157721Y-116625501D01*
X138157741Y-116625500D01*
X140882963Y-116625500D01*
X140950002Y-116645185D01*
X140995757Y-116697989D01*
X141005465Y-116765508D01*
X141005597Y-116765521D01*
X141005544Y-116766056D01*
X141005701Y-116767147D01*
X141005078Y-116770781D01*
X141005000Y-116771583D01*
X141005000Y-116925000D01*
X141755000Y-116925000D01*
X141755000Y-117425000D01*
X141005000Y-117425000D01*
X141005000Y-117578420D01*
X141045348Y-117781266D01*
X141045350Y-117781274D01*
X141124500Y-117972358D01*
X141124505Y-117972368D01*
X141239410Y-118144335D01*
X141239413Y-118144339D01*
X141385660Y-118290586D01*
X141385664Y-118290589D01*
X141557631Y-118405494D01*
X141557641Y-118405499D01*
X141748723Y-118484648D01*
X141748725Y-118484649D01*
X141805000Y-118495842D01*
X141805000Y-117641988D01*
X141814940Y-117659205D01*
X141870795Y-117715060D01*
X141939204Y-117754556D01*
X142015504Y-117775000D01*
X142094496Y-117775000D01*
X142170796Y-117754556D01*
X142239205Y-117715060D01*
X142295060Y-117659205D01*
X142305000Y-117641988D01*
X142305000Y-118495842D01*
X142361274Y-118484649D01*
X142361276Y-118484648D01*
X142552358Y-118405499D01*
X142552368Y-118405494D01*
X142724335Y-118290589D01*
X142724339Y-118290586D01*
X142870586Y-118144339D01*
X142870589Y-118144335D01*
X142985494Y-117972368D01*
X142985499Y-117972358D01*
X143064649Y-117781274D01*
X143064651Y-117781266D01*
X143104999Y-117578420D01*
X143105000Y-117578417D01*
X143105000Y-117425000D01*
X142355000Y-117425000D01*
X142355000Y-116925000D01*
X143105000Y-116925000D01*
X143105000Y-116771583D01*
X143104999Y-116771579D01*
X143064651Y-116568733D01*
X143064649Y-116568725D01*
X142999300Y-116410958D01*
X142991831Y-116341489D01*
X143023106Y-116279009D01*
X143026125Y-116275880D01*
X144890591Y-114411414D01*
X144951911Y-114377931D01*
X145021603Y-114382915D01*
X145077536Y-114424787D01*
X145101953Y-114490251D01*
X145101672Y-114511247D01*
X145100000Y-114528229D01*
X145100000Y-114891765D01*
X145135632Y-115253556D01*
X145206550Y-115610090D01*
X145206553Y-115610101D01*
X145312086Y-115957997D01*
X145451207Y-116293864D01*
X145451209Y-116293869D01*
X145622570Y-116614462D01*
X145622581Y-116614480D01*
X145824551Y-116916750D01*
X146011678Y-117144765D01*
X146011679Y-117144766D01*
X147505747Y-115650697D01*
X147579588Y-115752330D01*
X147757670Y-115930412D01*
X147859301Y-116004251D01*
X146365232Y-117498319D01*
X146365233Y-117498320D01*
X146593249Y-117685448D01*
X146895519Y-117887418D01*
X146895537Y-117887429D01*
X147216130Y-118058790D01*
X147216135Y-118058792D01*
X147552002Y-118197913D01*
X147899898Y-118303446D01*
X147899909Y-118303449D01*
X148256443Y-118374367D01*
X148618234Y-118410000D01*
X148981766Y-118410000D01*
X149343556Y-118374367D01*
X149700090Y-118303449D01*
X149700101Y-118303446D01*
X150047997Y-118197913D01*
X150383864Y-118058792D01*
X150383869Y-118058790D01*
X150704462Y-117887429D01*
X150704480Y-117887418D01*
X151006736Y-117685457D01*
X151006750Y-117685447D01*
X151234765Y-117498320D01*
X151234766Y-117498319D01*
X149740698Y-116004251D01*
X149842330Y-115930412D01*
X150020412Y-115752330D01*
X150094251Y-115650698D01*
X151588319Y-117144766D01*
X151588320Y-117144765D01*
X151775447Y-116916750D01*
X151775457Y-116916736D01*
X151977418Y-116614480D01*
X151977429Y-116614462D01*
X152148790Y-116293869D01*
X152148792Y-116293864D01*
X152287913Y-115957997D01*
X152393446Y-115610101D01*
X152393449Y-115610090D01*
X152464367Y-115253556D01*
X152500000Y-114891765D01*
X152500000Y-114528234D01*
X152464367Y-114166443D01*
X152393449Y-113809909D01*
X152393446Y-113809898D01*
X152287913Y-113462002D01*
X152148792Y-113126135D01*
X152148790Y-113126130D01*
X151977429Y-112805537D01*
X151977418Y-112805519D01*
X151775448Y-112503249D01*
X151588320Y-112275233D01*
X151588319Y-112275232D01*
X150094251Y-113769300D01*
X150020412Y-113667670D01*
X149842330Y-113489588D01*
X149740697Y-113415747D01*
X151234766Y-111921679D01*
X151234765Y-111921678D01*
X151006750Y-111734551D01*
X150704480Y-111532581D01*
X150704462Y-111532570D01*
X150383869Y-111361209D01*
X150383864Y-111361207D01*
X150047997Y-111222086D01*
X149700101Y-111116553D01*
X149700090Y-111116550D01*
X149340572Y-111045039D01*
X149340746Y-111044163D01*
X149280675Y-111016399D01*
X149243169Y-110957449D01*
X149243487Y-110887580D01*
X149274623Y-110835376D01*
X149275000Y-110834999D01*
X149775000Y-110834999D01*
X149924972Y-110834999D01*
X149924986Y-110834998D01*
X150027697Y-110824505D01*
X150194119Y-110769358D01*
X150194124Y-110769356D01*
X150343345Y-110677315D01*
X150467315Y-110553345D01*
X150559356Y-110404124D01*
X150559358Y-110404119D01*
X150614505Y-110237697D01*
X150614506Y-110237690D01*
X150624999Y-110134986D01*
X150625000Y-110134973D01*
X150625000Y-109885000D01*
X149775000Y-109885000D01*
X149775000Y-110834999D01*
X149275000Y-110834999D01*
X149275000Y-108771067D01*
X149775000Y-108771067D01*
X149775000Y-109385000D01*
X150624999Y-109385000D01*
X150624999Y-109135028D01*
X150624998Y-109135013D01*
X150614505Y-109032302D01*
X150559358Y-108865880D01*
X150559356Y-108865875D01*
X150467315Y-108716654D01*
X150388342Y-108637681D01*
X150354857Y-108576358D01*
X150359841Y-108506666D01*
X150388342Y-108462319D01*
X150487315Y-108363345D01*
X150579356Y-108214124D01*
X150579358Y-108214119D01*
X150634505Y-108047697D01*
X150634506Y-108047690D01*
X150644999Y-107944986D01*
X150645000Y-107944973D01*
X150645000Y-107695000D01*
X149795000Y-107695000D01*
X149795000Y-108703638D01*
X149786355Y-108733078D01*
X149779832Y-108763065D01*
X149776077Y-108768080D01*
X149775315Y-108770677D01*
X149775000Y-108771067D01*
X149275000Y-108771067D01*
X149275000Y-108376362D01*
X149294685Y-108309323D01*
X149295000Y-108308932D01*
X149295000Y-107195000D01*
X149795000Y-107195000D01*
X150644999Y-107195000D01*
X150644999Y-106945028D01*
X150644998Y-106945013D01*
X150634505Y-106842302D01*
X150579358Y-106675880D01*
X150579356Y-106675875D01*
X150487315Y-106526654D01*
X150363345Y-106402684D01*
X150214124Y-106310643D01*
X150214119Y-106310641D01*
X150047697Y-106255494D01*
X150047690Y-106255493D01*
X149944986Y-106245000D01*
X149795000Y-106245000D01*
X149795000Y-107195000D01*
X149295000Y-107195000D01*
X149295000Y-106245000D01*
X149145027Y-106245000D01*
X149145012Y-106245001D01*
X149042302Y-106255494D01*
X148875880Y-106310641D01*
X148875875Y-106310643D01*
X148726657Y-106402682D01*
X148633034Y-106496305D01*
X148571710Y-106529789D01*
X148502019Y-106524805D01*
X148457672Y-106496304D01*
X148363657Y-106402289D01*
X148363656Y-106402288D01*
X148214334Y-106310186D01*
X148047797Y-106255001D01*
X148047795Y-106255000D01*
X147945016Y-106244500D01*
X147945009Y-106244500D01*
X147929500Y-106244500D01*
X147862461Y-106224815D01*
X147816706Y-106172011D01*
X147805500Y-106120500D01*
X147805500Y-105261359D01*
X147803631Y-105226493D01*
X147802603Y-105207322D01*
X147799769Y-105180964D01*
X147791114Y-105127552D01*
X147740832Y-104992743D01*
X147707347Y-104931420D01*
X147621123Y-104816239D01*
X147621118Y-104816234D01*
X147621113Y-104816228D01*
X146693776Y-103888892D01*
X146693770Y-103888886D01*
X146693761Y-103888877D01*
X146693737Y-103888855D01*
X146653519Y-103852728D01*
X146653507Y-103852718D01*
X146632856Y-103836076D01*
X146588974Y-103804433D01*
X146458100Y-103744663D01*
X146391055Y-103724976D01*
X146343582Y-103718150D01*
X146248638Y-103704500D01*
X130351362Y-103704500D01*
X130351360Y-103704500D01*
X130297311Y-103707397D01*
X130297310Y-103707397D01*
X130270977Y-103710229D01*
X130270950Y-103710232D01*
X130217554Y-103718885D01*
X130217552Y-103718885D01*
X130082747Y-103769166D01*
X130021422Y-103802651D01*
X129906240Y-103888876D01*
X129906228Y-103888886D01*
X128978892Y-104816223D01*
X128978855Y-104816262D01*
X128942728Y-104856480D01*
X128942718Y-104856492D01*
X128926076Y-104877143D01*
X128894433Y-104921025D01*
X128834663Y-105051899D01*
X128814976Y-105118944D01*
X128799513Y-105226493D01*
X128794500Y-105261357D01*
X126318150Y-105261357D01*
X126318150Y-94377681D01*
X122438193Y-94377681D01*
X122438193Y-109207731D01*
X121800500Y-109207731D01*
X121800500Y-80659700D01*
X124599499Y-80659700D01*
X124626418Y-80795026D01*
X124626421Y-80795036D01*
X124679222Y-80922511D01*
X124755887Y-81037249D01*
X125126156Y-81407518D01*
X125240894Y-81484183D01*
X125350021Y-81529384D01*
X125368374Y-81536986D01*
X125368378Y-81536986D01*
X125368379Y-81536987D01*
X125503705Y-81563906D01*
X125503708Y-81563906D01*
X125503709Y-81563906D01*
X125959338Y-81563906D01*
X126026377Y-81583591D01*
X126072132Y-81636395D01*
X126083338Y-81687906D01*
X126083338Y-81911282D01*
X126089745Y-81970889D01*
X126140039Y-82105734D01*
X126140043Y-82105741D01*
X126226289Y-82220950D01*
X126226292Y-82220953D01*
X126341501Y-82307199D01*
X126341508Y-82307203D01*
X126476354Y-82357497D01*
X126476353Y-82357497D01*
X126483281Y-82358241D01*
X126535964Y-82363906D01*
X128631709Y-82363905D01*
X128691320Y-82357497D01*
X128826168Y-82307202D01*
X128941383Y-82220952D01*
X129027633Y-82105737D01*
X129077928Y-81970889D01*
X129084337Y-81911279D01*
X129084336Y-79815534D01*
X129077928Y-79755923D01*
X129063793Y-79718026D01*
X129027634Y-79621077D01*
X129027630Y-79621070D01*
X128941384Y-79505861D01*
X128941381Y-79505858D01*
X128826172Y-79419612D01*
X128826165Y-79419608D01*
X128691319Y-79369314D01*
X128691320Y-79369314D01*
X128631720Y-79362907D01*
X128631718Y-79362906D01*
X128631710Y-79362906D01*
X128631702Y-79362906D01*
X128347985Y-79362906D01*
X128280946Y-79343221D01*
X128236969Y-79292469D01*
X127455284Y-78510785D01*
X127461498Y-78510785D01*
X127563231Y-78483526D01*
X127654443Y-78430865D01*
X127728917Y-78356391D01*
X127781578Y-78265179D01*
X127808837Y-78163446D01*
X127808837Y-78157232D01*
X128574221Y-78922617D01*
X128574221Y-78922616D01*
X128623330Y-78855026D01*
X128724804Y-78655873D01*
X128793871Y-78443303D01*
X128828837Y-78222546D01*
X128828837Y-77999023D01*
X128793871Y-77778266D01*
X128724804Y-77565696D01*
X128623329Y-77366542D01*
X128574221Y-77298952D01*
X128574221Y-77298951D01*
X127808837Y-78064336D01*
X127808837Y-78058124D01*
X127781578Y-77956391D01*
X127728917Y-77865179D01*
X127654443Y-77790705D01*
X127563231Y-77738044D01*
X127461498Y-77710785D01*
X127455282Y-77710785D01*
X128220669Y-76945399D01*
X128219242Y-76927274D01*
X128206541Y-76910803D01*
X128200562Y-76841190D01*
X128233167Y-76779395D01*
X128249202Y-76765500D01*
X128360289Y-76684792D01*
X128522844Y-76522237D01*
X128657968Y-76336254D01*
X128762335Y-76131422D01*
X128833374Y-75912786D01*
X128869337Y-75685729D01*
X128869337Y-75455841D01*
X128833374Y-75228784D01*
X128833373Y-75228780D01*
X128833373Y-75228779D01*
X128762336Y-75010150D01*
X128731693Y-74950010D01*
X128657968Y-74805316D01*
X128583056Y-74702208D01*
X128563386Y-74675134D01*
X128539906Y-74609328D01*
X128555732Y-74541274D01*
X128605837Y-74492579D01*
X128620362Y-74486070D01*
X128651168Y-74474581D01*
X128766383Y-74388331D01*
X128852633Y-74273116D01*
X128902928Y-74138268D01*
X128909337Y-74078658D01*
X128909337Y-73855285D01*
X128929022Y-73788246D01*
X128981826Y-73742491D01*
X129033337Y-73731285D01*
X130475500Y-73731285D01*
X130542539Y-73750970D01*
X130588294Y-73803774D01*
X130599500Y-73855285D01*
X130599500Y-89141006D01*
X130599500Y-89278994D01*
X130599500Y-89278996D01*
X130599499Y-89278996D01*
X130626418Y-89414322D01*
X130626421Y-89414332D01*
X130679222Y-89541807D01*
X130755887Y-89656545D01*
X130755888Y-89656546D01*
X131750542Y-90651199D01*
X131784027Y-90712522D01*
X131786861Y-90738880D01*
X131786861Y-92219012D01*
X131786862Y-92219018D01*
X131793269Y-92278625D01*
X131843563Y-92413470D01*
X131843567Y-92413477D01*
X131929813Y-92528686D01*
X131929816Y-92528689D01*
X132045025Y-92614935D01*
X132045032Y-92614939D01*
X132179878Y-92665233D01*
X132179877Y-92665233D01*
X132186805Y-92665977D01*
X132239488Y-92671642D01*
X134335233Y-92671641D01*
X134394844Y-92665233D01*
X134529692Y-92614938D01*
X134644907Y-92528688D01*
X134731157Y-92413473D01*
X134734114Y-92405545D01*
X134749166Y-92385435D01*
X134760721Y-92363130D01*
X134769745Y-92357943D01*
X134775983Y-92349610D01*
X134799521Y-92340829D01*
X134821298Y-92328314D01*
X134831692Y-92328829D01*
X134841447Y-92325191D01*
X134865993Y-92330530D01*
X134891082Y-92331774D01*
X134904880Y-92338988D01*
X134909720Y-92340041D01*
X134922421Y-92348008D01*
X134922822Y-92348294D01*
X135021892Y-92420273D01*
X135027434Y-92423096D01*
X135034985Y-92428496D01*
X135051026Y-92448976D01*
X135069943Y-92466838D01*
X135072543Y-92476448D01*
X135078068Y-92483502D01*
X135079978Y-92503925D01*
X135086861Y-92529363D01*
X135086861Y-94351995D01*
X135097117Y-94403552D01*
X135099500Y-94427745D01*
X135099500Y-94612574D01*
X135079815Y-94679613D01*
X135027710Y-94724761D01*
X135027758Y-94724858D01*
X135027390Y-94725039D01*
X135027011Y-94725368D01*
X135024553Y-94726438D01*
X135024109Y-94726657D01*
X134825382Y-94841392D01*
X134643338Y-94981081D01*
X134481081Y-95143338D01*
X134341392Y-95325382D01*
X134226657Y-95524109D01*
X134226650Y-95524123D01*
X134138842Y-95736112D01*
X134114851Y-95825648D01*
X134084110Y-95940380D01*
X134079453Y-95957759D01*
X134079451Y-95957770D01*
X134049500Y-96185258D01*
X134049500Y-96414741D01*
X134074446Y-96604215D01*
X134079452Y-96642238D01*
X134079453Y-96642240D01*
X134138842Y-96863887D01*
X134227964Y-97079048D01*
X134235433Y-97148517D01*
X134204158Y-97210996D01*
X134144069Y-97246648D01*
X134113403Y-97250500D01*
X132986597Y-97250500D01*
X132919558Y-97230815D01*
X132873803Y-97178011D01*
X132863859Y-97108853D01*
X132872036Y-97079048D01*
X132914727Y-96975980D01*
X132961158Y-96863887D01*
X133020548Y-96642238D01*
X133050500Y-96414734D01*
X133050500Y-96185266D01*
X133020548Y-95957762D01*
X132961158Y-95736113D01*
X132905664Y-95602138D01*
X132873349Y-95524123D01*
X132873346Y-95524117D01*
X132873344Y-95524112D01*
X132758611Y-95325388D01*
X132758608Y-95325385D01*
X132758607Y-95325382D01*
X132625809Y-95152318D01*
X132618919Y-95143339D01*
X132618918Y-95143338D01*
X132618911Y-95143330D01*
X132456670Y-94981089D01*
X132456661Y-94981081D01*
X132274617Y-94841392D01*
X132075890Y-94726657D01*
X132075876Y-94726650D01*
X131863887Y-94638842D01*
X131765852Y-94612574D01*
X131642238Y-94579452D01*
X131604215Y-94574446D01*
X131414741Y-94549500D01*
X131414734Y-94549500D01*
X131185266Y-94549500D01*
X131185258Y-94549500D01*
X130968715Y-94578009D01*
X130957762Y-94579452D01*
X130884703Y-94599028D01*
X130736113Y-94638842D01*
X130732260Y-94640150D01*
X130731852Y-94638949D01*
X130667777Y-94645825D01*
X130605304Y-94614537D01*
X130602138Y-94611481D01*
X130322643Y-94331986D01*
X130289158Y-94270663D01*
X130286324Y-94244305D01*
X130286324Y-93395205D01*
X130306009Y-93328166D01*
X130337439Y-93294887D01*
X130433039Y-93225430D01*
X130433039Y-93225429D01*
X130433043Y-93225427D01*
X130577790Y-93080680D01*
X130577792Y-93080676D01*
X130577795Y-93080674D01*
X130662992Y-92963408D01*
X130698111Y-92915071D01*
X130791044Y-92732680D01*
X130854301Y-92537995D01*
X130886324Y-92335813D01*
X130886324Y-92131109D01*
X130854301Y-91928927D01*
X130791044Y-91734242D01*
X130791042Y-91734239D01*
X130791042Y-91734237D01*
X130757327Y-91668068D01*
X130698111Y-91551851D01*
X130690380Y-91541210D01*
X130577795Y-91386247D01*
X130433037Y-91241489D01*
X130267437Y-91121176D01*
X130267436Y-91121175D01*
X130267434Y-91121174D01*
X130210477Y-91092152D01*
X130085047Y-91028242D01*
X129890358Y-90964983D01*
X129715819Y-90937339D01*
X129688176Y-90932961D01*
X129483472Y-90932961D01*
X129459153Y-90936812D01*
X129281289Y-90964983D01*
X129086600Y-91028242D01*
X128904210Y-91121176D01*
X128738610Y-91241489D01*
X128593856Y-91386243D01*
X128593852Y-91386248D01*
X128508655Y-91503513D01*
X128453325Y-91546179D01*
X128383712Y-91552158D01*
X128321917Y-91519553D01*
X128287560Y-91458714D01*
X128284337Y-91430628D01*
X128284337Y-90094132D01*
X128304022Y-90027093D01*
X128346336Y-89986745D01*
X128530611Y-89880354D01*
X128707461Y-89744653D01*
X128865084Y-89587030D01*
X129000785Y-89410180D01*
X129112242Y-89217132D01*
X129197547Y-89011187D01*
X129255241Y-88795869D01*
X129284337Y-88574863D01*
X129284337Y-88351949D01*
X129255241Y-88130943D01*
X129197547Y-87915625D01*
X129112242Y-87709680D01*
X129000785Y-87516632D01*
X128865084Y-87339782D01*
X128865079Y-87339776D01*
X128707466Y-87182163D01*
X128707459Y-87182157D01*
X128530619Y-87046464D01*
X128530617Y-87046463D01*
X128530611Y-87046458D01*
X128337563Y-86935001D01*
X128337559Y-86934999D01*
X128131627Y-86849699D01*
X128131620Y-86849697D01*
X128131618Y-86849696D01*
X127916300Y-86792002D01*
X127916294Y-86792001D01*
X127916289Y-86792000D01*
X127695303Y-86762907D01*
X127695300Y-86762906D01*
X127695294Y-86762906D01*
X127472380Y-86762906D01*
X127472374Y-86762906D01*
X127472370Y-86762907D01*
X127251384Y-86792000D01*
X127251377Y-86792001D01*
X127251374Y-86792002D01*
X127036056Y-86849696D01*
X127036046Y-86849699D01*
X126830114Y-86934999D01*
X126830110Y-86935001D01*
X126637063Y-87046458D01*
X126637054Y-87046464D01*
X126460214Y-87182157D01*
X126460207Y-87182163D01*
X126302594Y-87339776D01*
X126302588Y-87339783D01*
X126166895Y-87516623D01*
X126166889Y-87516632D01*
X126055432Y-87709679D01*
X126055430Y-87709683D01*
X125970130Y-87915615D01*
X125970127Y-87915625D01*
X125912434Y-88130940D01*
X125912431Y-88130953D01*
X125883338Y-88351939D01*
X125883337Y-88351955D01*
X125883337Y-88574856D01*
X125883338Y-88574872D01*
X125912431Y-88795858D01*
X125912432Y-88795863D01*
X125912433Y-88795869D01*
X125938952Y-88894839D01*
X125970127Y-89011186D01*
X125970130Y-89011196D01*
X126055430Y-89217128D01*
X126055432Y-89217132D01*
X126166889Y-89410180D01*
X126166894Y-89410186D01*
X126166895Y-89410188D01*
X126302588Y-89587028D01*
X126302594Y-89587035D01*
X126460207Y-89744648D01*
X126460214Y-89744654D01*
X126524062Y-89793646D01*
X126637063Y-89880354D01*
X126637065Y-89880355D01*
X126637069Y-89880358D01*
X126709218Y-89922013D01*
X126821337Y-89986745D01*
X126869553Y-90037312D01*
X126883337Y-90094132D01*
X126883337Y-95424843D01*
X126883337Y-95562831D01*
X126883337Y-95562833D01*
X126883336Y-95562833D01*
X126910255Y-95698159D01*
X126910258Y-95698169D01*
X126963059Y-95825644D01*
X127039724Y-95940382D01*
X129594454Y-98495112D01*
X129709190Y-98571776D01*
X129807790Y-98612617D01*
X129836671Y-98624580D01*
X129836672Y-98624580D01*
X129836677Y-98624582D01*
X129863545Y-98629925D01*
X129863551Y-98629926D01*
X129863591Y-98629934D01*
X129953937Y-98647905D01*
X129972006Y-98651500D01*
X129972007Y-98651500D01*
X138717996Y-98651500D01*
X138826457Y-98629925D01*
X138853328Y-98624580D01*
X138917069Y-98598177D01*
X138980807Y-98571777D01*
X138980808Y-98571776D01*
X138980811Y-98571775D01*
X139095543Y-98495114D01*
X139602140Y-97988515D01*
X139663461Y-97955032D01*
X139732234Y-97959950D01*
X139732268Y-97959852D01*
X139732644Y-97959979D01*
X139733152Y-97960016D01*
X139735665Y-97961005D01*
X139736099Y-97961152D01*
X139736113Y-97961158D01*
X139957762Y-98020548D01*
X140185266Y-98050500D01*
X140185273Y-98050500D01*
X140414727Y-98050500D01*
X140414734Y-98050500D01*
X140642238Y-98020548D01*
X140863887Y-97961158D01*
X141075888Y-97873344D01*
X141274612Y-97758611D01*
X141456661Y-97618919D01*
X141456665Y-97618914D01*
X141456670Y-97618911D01*
X141618911Y-97456670D01*
X141618914Y-97456665D01*
X141618919Y-97456661D01*
X141758611Y-97274612D01*
X141835409Y-97141592D01*
X141885976Y-97093377D01*
X141954583Y-97080154D01*
X142019448Y-97106122D01*
X142059976Y-97163037D01*
X142066796Y-97203593D01*
X142066796Y-98608302D01*
X142066796Y-98746290D01*
X142066796Y-98746292D01*
X142066795Y-98746292D01*
X142093714Y-98881618D01*
X142093717Y-98881628D01*
X142146518Y-99009103D01*
X142223183Y-99123841D01*
X142653454Y-99554112D01*
X142768192Y-99630777D01*
X142895667Y-99683578D01*
X142895672Y-99683580D01*
X142895676Y-99683580D01*
X142895677Y-99683581D01*
X143031004Y-99710500D01*
X143031007Y-99710500D01*
X148808996Y-99710500D01*
X148900040Y-99692389D01*
X148944328Y-99683580D01*
X149008069Y-99657177D01*
X149071807Y-99630777D01*
X149071808Y-99630776D01*
X149071811Y-99630775D01*
X149186543Y-99554114D01*
X149810028Y-98930629D01*
X149886689Y-98815897D01*
X149939494Y-98688414D01*
X149962695Y-98571776D01*
X149966414Y-98553082D01*
X149966414Y-73766920D01*
X149961159Y-73740505D01*
X149961158Y-73740504D01*
X149961158Y-73740500D01*
X149939494Y-73631586D01*
X149939492Y-73631581D01*
X149886691Y-73504106D01*
X149810026Y-73389368D01*
X148712328Y-72291670D01*
X148597590Y-72215005D01*
X148470115Y-72162204D01*
X148470105Y-72162201D01*
X148334779Y-72135283D01*
X148334777Y-72135283D01*
X148334776Y-72135283D01*
X148248386Y-72135283D01*
X148181347Y-72115598D01*
X148135592Y-72062794D01*
X148124386Y-72011283D01*
X148124386Y-71787912D01*
X148124385Y-71787906D01*
X148124384Y-71787899D01*
X148117978Y-71728300D01*
X148099199Y-71677952D01*
X148067684Y-71593454D01*
X148067680Y-71593447D01*
X147981434Y-71478238D01*
X147981431Y-71478235D01*
X147866222Y-71391989D01*
X147866215Y-71391985D01*
X147731369Y-71341691D01*
X147731370Y-71341691D01*
X147671770Y-71335284D01*
X147671768Y-71335283D01*
X147671760Y-71335283D01*
X147671752Y-71335283D01*
X147382692Y-71335283D01*
X147369489Y-71331406D01*
X147355758Y-71332323D01*
X147336620Y-71321754D01*
X147315653Y-71315598D01*
X147305363Y-71304493D01*
X147294595Y-71298547D01*
X147281248Y-71278469D01*
X147273579Y-71270192D01*
X147270560Y-71264601D01*
X147244662Y-71202076D01*
X147206974Y-71145672D01*
X147168001Y-71087344D01*
X147167999Y-71087341D01*
X146497589Y-70416931D01*
X146464104Y-70355608D01*
X146469088Y-70285916D01*
X146510960Y-70229983D01*
X146576424Y-70205566D01*
X146644697Y-70220418D01*
X146654161Y-70226148D01*
X146895519Y-70387418D01*
X146895537Y-70387429D01*
X147216130Y-70558790D01*
X147216135Y-70558792D01*
X147552002Y-70697913D01*
X147899898Y-70803446D01*
X147899909Y-70803449D01*
X148256443Y-70874367D01*
X148618234Y-70910000D01*
X148981766Y-70910000D01*
X149343556Y-70874367D01*
X149700090Y-70803449D01*
X149700101Y-70803446D01*
X150047997Y-70697913D01*
X150383864Y-70558792D01*
X150383869Y-70558790D01*
X150704462Y-70387429D01*
X150704480Y-70387418D01*
X151006736Y-70185457D01*
X151006750Y-70185447D01*
X151234765Y-69998320D01*
X151234766Y-69998319D01*
X149740698Y-68504251D01*
X149842330Y-68430412D01*
X150020412Y-68252330D01*
X150094251Y-68150698D01*
X151588319Y-69644766D01*
X151588320Y-69644765D01*
X151775447Y-69416750D01*
X151775457Y-69416736D01*
X151977418Y-69114480D01*
X151977429Y-69114462D01*
X152148790Y-68793869D01*
X152148792Y-68793864D01*
X152287913Y-68457997D01*
X152393446Y-68110101D01*
X152393449Y-68110090D01*
X152464367Y-67753556D01*
X152500000Y-67391765D01*
X152500000Y-67028234D01*
X152464367Y-66666443D01*
X152393449Y-66309909D01*
X152393446Y-66309898D01*
X152287913Y-65962002D01*
X152148792Y-65626135D01*
X152148790Y-65626130D01*
X151977429Y-65305537D01*
X151977418Y-65305519D01*
X151775448Y-65003249D01*
X151588320Y-64775233D01*
X151588319Y-64775232D01*
X150094251Y-66269300D01*
X150020412Y-66167670D01*
X149842330Y-65989588D01*
X149740698Y-65915748D01*
X151234766Y-64421679D01*
X151234765Y-64421678D01*
X151006750Y-64234551D01*
X150704480Y-64032581D01*
X150704462Y-64032570D01*
X150383869Y-63861209D01*
X150383864Y-63861207D01*
X150047997Y-63722086D01*
X149700101Y-63616553D01*
X149700090Y-63616550D01*
X149343556Y-63545632D01*
X148981766Y-63510000D01*
X148618234Y-63510000D01*
X148256443Y-63545632D01*
X147899909Y-63616550D01*
X147899898Y-63616553D01*
X147552002Y-63722086D01*
X147216135Y-63861207D01*
X147216130Y-63861209D01*
X146895537Y-64032570D01*
X146895519Y-64032581D01*
X146593258Y-64234545D01*
X146593254Y-64234548D01*
X146365233Y-64421679D01*
X146365233Y-64421680D01*
X147859301Y-65915748D01*
X147757670Y-65989588D01*
X147579588Y-66167670D01*
X147505748Y-66269301D01*
X146011680Y-64775233D01*
X146011679Y-64775233D01*
X145824548Y-65003254D01*
X145824545Y-65003258D01*
X145622581Y-65305519D01*
X145622570Y-65305537D01*
X145451209Y-65626130D01*
X145451207Y-65626135D01*
X145312086Y-65962002D01*
X145206553Y-66309898D01*
X145206550Y-66309909D01*
X145135632Y-66666443D01*
X145100000Y-67028234D01*
X145100000Y-67391765D01*
X145135632Y-67753556D01*
X145206550Y-68110090D01*
X145206553Y-68110101D01*
X145312086Y-68457997D01*
X145451207Y-68793864D01*
X145451209Y-68793869D01*
X145622570Y-69114462D01*
X145622581Y-69114480D01*
X145783851Y-69355838D01*
X145804729Y-69422516D01*
X145786244Y-69489896D01*
X145734265Y-69536586D01*
X145665295Y-69547762D01*
X145601232Y-69519876D01*
X145593068Y-69512410D01*
X144346545Y-68265887D01*
X144231807Y-68189222D01*
X144104332Y-68136421D01*
X144104322Y-68136418D01*
X143968996Y-68109500D01*
X143968994Y-68109500D01*
X143968993Y-68109500D01*
X142512949Y-68109500D01*
X142445910Y-68089815D01*
X142400155Y-68037011D01*
X142388949Y-67985500D01*
X142388949Y-67862129D01*
X142388948Y-67862123D01*
X142388947Y-67862116D01*
X142382541Y-67802517D01*
X142332246Y-67667669D01*
X142332245Y-67667668D01*
X142332243Y-67667664D01*
X142245997Y-67552455D01*
X142245994Y-67552452D01*
X142130785Y-67466206D01*
X142130778Y-67466202D01*
X141995932Y-67415908D01*
X141995933Y-67415908D01*
X141936333Y-67409501D01*
X141936331Y-67409500D01*
X141936323Y-67409500D01*
X141936314Y-67409500D01*
X140040579Y-67409500D01*
X140040573Y-67409501D01*
X139980966Y-67415908D01*
X139846121Y-67466202D01*
X139846114Y-67466206D01*
X139730905Y-67552452D01*
X139730902Y-67552455D01*
X139644656Y-67667664D01*
X139644652Y-67667671D01*
X139594358Y-67802517D01*
X139587951Y-67862116D01*
X139587951Y-67862123D01*
X139587950Y-67862135D01*
X139587950Y-69757870D01*
X139587951Y-69757876D01*
X139594358Y-69817483D01*
X139644652Y-69952328D01*
X139644656Y-69952335D01*
X139730902Y-70067544D01*
X139730905Y-70067547D01*
X139846114Y-70153793D01*
X139846121Y-70153797D01*
X139926030Y-70183601D01*
X139981964Y-70225472D01*
X140006381Y-70290936D01*
X139991530Y-70359209D01*
X139970379Y-70387463D01*
X139920206Y-70437636D01*
X139920202Y-70437641D01*
X139790637Y-70615974D01*
X139690554Y-70812393D01*
X139690553Y-70812396D01*
X139622435Y-71022047D01*
X139622435Y-71022049D01*
X139587950Y-71239778D01*
X139587950Y-71460222D01*
X139599047Y-71530285D01*
X139622435Y-71677952D01*
X139690553Y-71887603D01*
X139690554Y-71887606D01*
X139790637Y-72084025D01*
X139920202Y-72262358D01*
X139920206Y-72262363D01*
X140076086Y-72418243D01*
X140076091Y-72418247D01*
X140231642Y-72531260D01*
X140254428Y-72547815D01*
X140343999Y-72593454D01*
X140450843Y-72647895D01*
X140450846Y-72647896D01*
X140555671Y-72681955D01*
X140660499Y-72716015D01*
X140878228Y-72750500D01*
X140878229Y-72750500D01*
X141098671Y-72750500D01*
X141098672Y-72750500D01*
X141316401Y-72716015D01*
X141526056Y-72647895D01*
X141722472Y-72547815D01*
X141900815Y-72418242D01*
X141956519Y-72362538D01*
X142017842Y-72329053D01*
X142087534Y-72334037D01*
X142131881Y-72362538D01*
X143063181Y-73293838D01*
X143096666Y-73355161D01*
X143099500Y-73381519D01*
X143099500Y-87141006D01*
X143099500Y-87278994D01*
X143099500Y-87278996D01*
X143099499Y-87278996D01*
X143126418Y-87414322D01*
X143126421Y-87414332D01*
X143179222Y-87541807D01*
X143255887Y-87656545D01*
X143255888Y-87656546D01*
X143813181Y-88213838D01*
X143846666Y-88275161D01*
X143849500Y-88301519D01*
X143849500Y-89499801D01*
X143829815Y-89566840D01*
X143777011Y-89612595D01*
X143725500Y-89623801D01*
X141719425Y-89623801D01*
X141719419Y-89623802D01*
X141659812Y-89630209D01*
X141524967Y-89680503D01*
X141524960Y-89680507D01*
X141409751Y-89766753D01*
X141409748Y-89766756D01*
X141323502Y-89881965D01*
X141323497Y-89881973D01*
X141320539Y-89889906D01*
X141278665Y-89945837D01*
X141213200Y-89970251D01*
X141144927Y-89955397D01*
X141131474Y-89946885D01*
X141032768Y-89875172D01*
X141032767Y-89875171D01*
X141032765Y-89875170D01*
X140911915Y-89813594D01*
X140827930Y-89770801D01*
X140609299Y-89699764D01*
X140457925Y-89675788D01*
X140382240Y-89663801D01*
X140152352Y-89663801D01*
X140076666Y-89675788D01*
X139925293Y-89699764D01*
X139925290Y-89699764D01*
X139706661Y-89770801D01*
X139501823Y-89875172D01*
X139315850Y-90010288D01*
X139315845Y-90010292D01*
X139153287Y-90172850D01*
X139153283Y-90172855D01*
X139018167Y-90358828D01*
X138913796Y-90563666D01*
X138842759Y-90782295D01*
X138842759Y-90782298D01*
X138842759Y-90782300D01*
X138806796Y-91009357D01*
X138806796Y-91239245D01*
X138814215Y-91286085D01*
X138842759Y-91466303D01*
X138842759Y-91466306D01*
X138913796Y-91684935D01*
X139018167Y-91889773D01*
X139153283Y-92075746D01*
X139153287Y-92075751D01*
X139315845Y-92238309D01*
X139315850Y-92238313D01*
X139461544Y-92344165D01*
X139501827Y-92373432D01*
X139501839Y-92373438D01*
X139505975Y-92375973D01*
X139504977Y-92377601D01*
X139549878Y-92419997D01*
X139566796Y-92482522D01*
X139566796Y-93205995D01*
X139547111Y-93273034D01*
X139494307Y-93318789D01*
X139425149Y-93328733D01*
X139369912Y-93306314D01*
X139317897Y-93268524D01*
X139135508Y-93175591D01*
X138940819Y-93112332D01*
X138766280Y-93084688D01*
X138738637Y-93080310D01*
X138533933Y-93080310D01*
X138509614Y-93084161D01*
X138331750Y-93112332D01*
X138137061Y-93175591D01*
X137954671Y-93268525D01*
X137789071Y-93388838D01*
X137644315Y-93533594D01*
X137574860Y-93629194D01*
X137519530Y-93671861D01*
X137474541Y-93680310D01*
X136611861Y-93680310D01*
X136544822Y-93660625D01*
X136499067Y-93607821D01*
X136487861Y-93556310D01*
X136487861Y-92529363D01*
X136507546Y-92462324D01*
X136549587Y-92424291D01*
X136548682Y-92422814D01*
X136552811Y-92420282D01*
X136552830Y-92420273D01*
X136738813Y-92285149D01*
X136901368Y-92122594D01*
X137036492Y-91936611D01*
X137140859Y-91731779D01*
X137156080Y-91684935D01*
X137211897Y-91513147D01*
X137211897Y-91513146D01*
X137211898Y-91513143D01*
X137247861Y-91286086D01*
X137247861Y-91056198D01*
X137211898Y-90829141D01*
X137211897Y-90829137D01*
X137211897Y-90829136D01*
X137140860Y-90610507D01*
X137116992Y-90563664D01*
X137036492Y-90405673D01*
X137002457Y-90358828D01*
X136901373Y-90219696D01*
X136901369Y-90219691D01*
X136738811Y-90057133D01*
X136738806Y-90057129D01*
X136552833Y-89922013D01*
X136552832Y-89922012D01*
X136552830Y-89922011D01*
X136386167Y-89837092D01*
X136347995Y-89817642D01*
X136129364Y-89746605D01*
X135977990Y-89722629D01*
X135902305Y-89710642D01*
X135672417Y-89710642D01*
X135596731Y-89722629D01*
X135445358Y-89746605D01*
X135445355Y-89746605D01*
X135226726Y-89817642D01*
X135021892Y-89922010D01*
X134923182Y-89993727D01*
X134857375Y-90017206D01*
X134789321Y-90001380D01*
X134740627Y-89951274D01*
X134734115Y-89936740D01*
X134731159Y-89928815D01*
X134731154Y-89928806D01*
X134644908Y-89813597D01*
X134644905Y-89813594D01*
X134529696Y-89727348D01*
X134529689Y-89727344D01*
X134394843Y-89677050D01*
X134394844Y-89677050D01*
X134335244Y-89670643D01*
X134335242Y-89670642D01*
X134335234Y-89670642D01*
X134335226Y-89670642D01*
X132802661Y-89670642D01*
X132735622Y-89650957D01*
X132714980Y-89634323D01*
X132036819Y-88956162D01*
X132003334Y-88894839D01*
X132000500Y-88868481D01*
X132000500Y-70921518D01*
X132020185Y-70854479D01*
X132036815Y-70833841D01*
X132838800Y-70031855D01*
X132900121Y-69998372D01*
X132969812Y-70003356D01*
X133025743Y-70045224D01*
X133042454Y-70067546D01*
X133042455Y-70067546D01*
X133042456Y-70067548D01*
X133157664Y-70153793D01*
X133157671Y-70153797D01*
X133237580Y-70183601D01*
X133293514Y-70225472D01*
X133317931Y-70290936D01*
X133303080Y-70359209D01*
X133281929Y-70387463D01*
X133231756Y-70437636D01*
X133231752Y-70437641D01*
X133102187Y-70615974D01*
X133002104Y-70812393D01*
X133002103Y-70812396D01*
X132933985Y-71022047D01*
X132933985Y-71022049D01*
X132899500Y-71239778D01*
X132899500Y-71460222D01*
X132910597Y-71530285D01*
X132933985Y-71677952D01*
X133002103Y-71887603D01*
X133002104Y-71887606D01*
X133102187Y-72084025D01*
X133231752Y-72262358D01*
X133231756Y-72262363D01*
X133387636Y-72418243D01*
X133387641Y-72418247D01*
X133543192Y-72531260D01*
X133565978Y-72547815D01*
X133655549Y-72593454D01*
X133762393Y-72647895D01*
X133762396Y-72647896D01*
X133867221Y-72681955D01*
X133972049Y-72716015D01*
X134189778Y-72750500D01*
X134189779Y-72750500D01*
X134410221Y-72750500D01*
X134410222Y-72750500D01*
X134627951Y-72716015D01*
X134837606Y-72647895D01*
X135034022Y-72547815D01*
X135212365Y-72418242D01*
X135368242Y-72262365D01*
X135497815Y-72084022D01*
X135597895Y-71887606D01*
X135666015Y-71677951D01*
X135700500Y-71460222D01*
X135700500Y-71239778D01*
X135666015Y-71022049D01*
X135597895Y-70812394D01*
X135597895Y-70812393D01*
X135539563Y-70697913D01*
X135497815Y-70615978D01*
X135421550Y-70511007D01*
X135368247Y-70437641D01*
X135368243Y-70437636D01*
X135318071Y-70387464D01*
X135284586Y-70326141D01*
X135289570Y-70256449D01*
X135331442Y-70200516D01*
X135362420Y-70183601D01*
X135442326Y-70153798D01*
X135442326Y-70153797D01*
X135442331Y-70153796D01*
X135557546Y-70067546D01*
X135643796Y-69952331D01*
X135694091Y-69817483D01*
X135700500Y-69757873D01*
X135700499Y-67862128D01*
X135694091Y-67802517D01*
X135643796Y-67667669D01*
X135643795Y-67667668D01*
X135643793Y-67667664D01*
X135557547Y-67552455D01*
X135557544Y-67552452D01*
X135442335Y-67466206D01*
X135442328Y-67466202D01*
X135307482Y-67415908D01*
X135307483Y-67415908D01*
X135247883Y-67409501D01*
X135247881Y-67409500D01*
X135247873Y-67409500D01*
X135247864Y-67409500D01*
X133352129Y-67409500D01*
X133352123Y-67409501D01*
X133292516Y-67415908D01*
X133157671Y-67466202D01*
X133157664Y-67466206D01*
X133042455Y-67552452D01*
X133042452Y-67552455D01*
X132956206Y-67667664D01*
X132956202Y-67667671D01*
X132905908Y-67802517D01*
X132899501Y-67862116D01*
X132899501Y-67862123D01*
X132899500Y-67862135D01*
X132899500Y-68039553D01*
X132879815Y-68106592D01*
X132827011Y-68152347D01*
X132822953Y-68154114D01*
X132738191Y-68189223D01*
X132623454Y-68265887D01*
X130755887Y-70133454D01*
X130679223Y-70248192D01*
X130626421Y-70375668D01*
X130626418Y-70375678D01*
X130614414Y-70436028D01*
X130599500Y-70511004D01*
X130599500Y-72206285D01*
X130579815Y-72273324D01*
X130527011Y-72319079D01*
X130475500Y-72330285D01*
X129033336Y-72330285D01*
X128966297Y-72310600D01*
X128920542Y-72257796D01*
X128909336Y-72206285D01*
X128909336Y-71982914D01*
X128909335Y-71982908D01*
X128909334Y-71982901D01*
X128902928Y-71923302D01*
X128889614Y-71887606D01*
X128852634Y-71788456D01*
X128852630Y-71788449D01*
X128766384Y-71673240D01*
X128766381Y-71673237D01*
X128651172Y-71586991D01*
X128651165Y-71586987D01*
X128516319Y-71536693D01*
X128516320Y-71536693D01*
X128456720Y-71530286D01*
X128456718Y-71530285D01*
X128456710Y-71530285D01*
X128456701Y-71530285D01*
X126360966Y-71530285D01*
X126360960Y-71530286D01*
X126301353Y-71536693D01*
X126166508Y-71586987D01*
X126166501Y-71586991D01*
X126051292Y-71673237D01*
X126051289Y-71673240D01*
X125965043Y-71788449D01*
X125965039Y-71788456D01*
X125914745Y-71923302D01*
X125908338Y-71982901D01*
X125908338Y-71982908D01*
X125908337Y-71982920D01*
X125908337Y-74078655D01*
X125908338Y-74078661D01*
X125914745Y-74138268D01*
X125965039Y-74273113D01*
X125965043Y-74273120D01*
X126051289Y-74388329D01*
X126051292Y-74388332D01*
X126166501Y-74474578D01*
X126166504Y-74474580D01*
X126166505Y-74474580D01*
X126166506Y-74474581D01*
X126197303Y-74486067D01*
X126217490Y-74501179D01*
X126239862Y-74512815D01*
X126244983Y-74521760D01*
X126253235Y-74527937D01*
X126262048Y-74551566D01*
X126274578Y-74573450D01*
X126274050Y-74583742D01*
X126277653Y-74593401D01*
X126272292Y-74618043D01*
X126271002Y-74643228D01*
X126263841Y-74656896D01*
X126262802Y-74661674D01*
X126254716Y-74674540D01*
X126254402Y-74674977D01*
X126159706Y-74805316D01*
X126156836Y-74810948D01*
X126151363Y-74818576D01*
X126130935Y-74834521D01*
X126113141Y-74853367D01*
X126103423Y-74855996D01*
X126096286Y-74861568D01*
X126075917Y-74863439D01*
X126050616Y-74870285D01*
X125512841Y-74870285D01*
X125377514Y-74897203D01*
X125377504Y-74897206D01*
X125250029Y-74950007D01*
X125135291Y-75026672D01*
X124755890Y-75406073D01*
X124755884Y-75406080D01*
X124716712Y-75464707D01*
X124716712Y-75464708D01*
X124699325Y-75490730D01*
X124679225Y-75520810D01*
X124679221Y-75520817D01*
X124626421Y-75648289D01*
X124626418Y-75648299D01*
X124599500Y-75783626D01*
X124599500Y-75783629D01*
X124599500Y-80521710D01*
X124599500Y-80659698D01*
X124599500Y-80659700D01*
X124599499Y-80659700D01*
X121800500Y-80659700D01*
X121800500Y-67212706D01*
X121800618Y-67207297D01*
X121808436Y-67028234D01*
X122600000Y-67028234D01*
X122600000Y-67391765D01*
X122635632Y-67753556D01*
X122706550Y-68110090D01*
X122706553Y-68110101D01*
X122812086Y-68457997D01*
X122951207Y-68793864D01*
X122951209Y-68793869D01*
X123122570Y-69114462D01*
X123122581Y-69114480D01*
X123324551Y-69416750D01*
X123511678Y-69644765D01*
X123511679Y-69644766D01*
X125005747Y-68150697D01*
X125079588Y-68252330D01*
X125257670Y-68430412D01*
X125359301Y-68504251D01*
X123865232Y-69998319D01*
X123865233Y-69998320D01*
X124093249Y-70185448D01*
X124395519Y-70387418D01*
X124395537Y-70387429D01*
X124716130Y-70558790D01*
X124716135Y-70558792D01*
X125052002Y-70697913D01*
X125399898Y-70803446D01*
X125399909Y-70803449D01*
X125756443Y-70874367D01*
X126118234Y-70910000D01*
X126481766Y-70910000D01*
X126843556Y-70874367D01*
X127200090Y-70803449D01*
X127200101Y-70803446D01*
X127547997Y-70697913D01*
X127883864Y-70558792D01*
X127883869Y-70558790D01*
X128204462Y-70387429D01*
X128204480Y-70387418D01*
X128506736Y-70185457D01*
X128506750Y-70185447D01*
X128734765Y-69998320D01*
X128734766Y-69998319D01*
X127240698Y-68504251D01*
X127342330Y-68430412D01*
X127520412Y-68252330D01*
X127594251Y-68150698D01*
X129088319Y-69644766D01*
X129088320Y-69644765D01*
X129275447Y-69416750D01*
X129275457Y-69416736D01*
X129477418Y-69114480D01*
X129477429Y-69114462D01*
X129648790Y-68793869D01*
X129648792Y-68793864D01*
X129787913Y-68457997D01*
X129893446Y-68110101D01*
X129893449Y-68110090D01*
X129964367Y-67753556D01*
X130000000Y-67391765D01*
X130000000Y-67028234D01*
X129964367Y-66666443D01*
X129893449Y-66309909D01*
X129893446Y-66309898D01*
X129787913Y-65962002D01*
X129648792Y-65626135D01*
X129648790Y-65626130D01*
X129477429Y-65305537D01*
X129477418Y-65305519D01*
X129275448Y-65003249D01*
X129088320Y-64775233D01*
X129088319Y-64775232D01*
X127594251Y-66269300D01*
X127520412Y-66167670D01*
X127342330Y-65989588D01*
X127240698Y-65915748D01*
X128734766Y-64421679D01*
X128734765Y-64421678D01*
X128506750Y-64234551D01*
X128204480Y-64032581D01*
X128204462Y-64032570D01*
X127883869Y-63861209D01*
X127883864Y-63861207D01*
X127547997Y-63722086D01*
X127200101Y-63616553D01*
X127200090Y-63616550D01*
X126843556Y-63545632D01*
X126481766Y-63510000D01*
X126118234Y-63510000D01*
X125756443Y-63545632D01*
X125399909Y-63616550D01*
X125399898Y-63616553D01*
X125052002Y-63722086D01*
X124716135Y-63861207D01*
X124716130Y-63861209D01*
X124395537Y-64032570D01*
X124395519Y-64032581D01*
X124093258Y-64234545D01*
X124093254Y-64234548D01*
X123865233Y-64421679D01*
X123865233Y-64421680D01*
X125359301Y-65915748D01*
X125257670Y-65989588D01*
X125079588Y-66167670D01*
X125005748Y-66269301D01*
X123511680Y-64775233D01*
X123511679Y-64775233D01*
X123324548Y-65003254D01*
X123324545Y-65003258D01*
X123122581Y-65305519D01*
X123122570Y-65305537D01*
X122951209Y-65626130D01*
X122951207Y-65626135D01*
X122812086Y-65962002D01*
X122706553Y-66309898D01*
X122706550Y-66309909D01*
X122635632Y-66666443D01*
X122600000Y-67028234D01*
X121808436Y-67028234D01*
X121808805Y-67019778D01*
X121808805Y-67019777D01*
X121810433Y-66982498D01*
X121817386Y-66823228D01*
X121818326Y-66812495D01*
X121868152Y-66434025D01*
X121870025Y-66423405D01*
X121952649Y-66050709D01*
X121955440Y-66040295D01*
X122070230Y-65676227D01*
X122073917Y-65666095D01*
X122220003Y-65313412D01*
X122224561Y-65303638D01*
X122400822Y-64965045D01*
X122406217Y-64955700D01*
X122611325Y-64633744D01*
X122617515Y-64624905D01*
X122849896Y-64322060D01*
X122856834Y-64313791D01*
X123114726Y-64032352D01*
X123122352Y-64024726D01*
X123403791Y-63766834D01*
X123412060Y-63759896D01*
X123714905Y-63527515D01*
X123723744Y-63521325D01*
X124045700Y-63316217D01*
X124055045Y-63310822D01*
X124393638Y-63134561D01*
X124403412Y-63130003D01*
X124756095Y-62983917D01*
X124766227Y-62980230D01*
X125130295Y-62865440D01*
X125140709Y-62862649D01*
X125513405Y-62780025D01*
X125524025Y-62778152D01*
X125902495Y-62728326D01*
X125913226Y-62727386D01*
X126297297Y-62710617D01*
X126302706Y-62710500D01*
X126365892Y-62710500D01*
X148734108Y-62710500D01*
X148797294Y-62710500D01*
X148802702Y-62710617D01*
G37*
%TD.AperFunction*%
%TD*%
M02*
