%TF.GenerationSoftware,KiCad,Pcbnew,10.0.1-10.0.1~ubuntu25.10.1*%
%TF.CreationDate,2026-10-01T18:22:01+00:00*%
%TF.ProjectId,schnupperblinki,7363686e-7570-4706-9572-626c696e6b69,1*%
%TF.SameCoordinates,Original*%
%TF.FileFunction,Copper,L2,Bot*%
%TF.FilePolarity,Positive*%
%FSLAX46Y46*%
G04 Gerber Fmt 4.6, Leading zero omitted, Abs format (unit mm)*
G04 Created by KiCad (PCBNEW 10.0.1-10.0.1~ubuntu25.10.1) date 2026-10-01 18:22:01*
%MOMM*%
%LPD*%
G01*
G04 APERTURE LIST*
%ADD10C,0.200000*%
%TA.AperFunction,ComponentPad*%
%ADD11R,2.000000X2.000000*%
%TD*%
%TA.AperFunction,ComponentPad*%
%ADD12C,1.920000*%
%TD*%
%TA.AperFunction,ComponentPad*%
%ADD13C,2.500000*%
%TD*%
%TA.AperFunction,ComponentPad*%
%ADD14R,1.800000X1.800000*%
%TD*%
%TA.AperFunction,ComponentPad*%
%ADD15C,1.800000*%
%TD*%
%TA.AperFunction,ComponentPad*%
%ADD16C,6.400000*%
%TD*%
%TA.AperFunction,ComponentPad*%
%ADD17C,1.840000*%
%TD*%
%TA.AperFunction,ComponentPad*%
%ADD18O,2.400000X2.400000*%
%TD*%
%TA.AperFunction,ComponentPad*%
%ADD19R,1.600000X1.600000*%
%TD*%
%TA.AperFunction,ComponentPad*%
%ADD20C,2.000000*%
%TD*%
%TA.AperFunction,ComponentPad*%
%ADD21O,1.100000X1.700000*%
%TD*%
%TA.AperFunction,ViaPad*%
%ADD22C,1.600000*%
%TD*%
%TA.AperFunction,Conductor*%
%ADD23C,0.400000*%
%TD*%
G04 APERTURE END LIST*
D10*
G36*
X124105715Y-105207378D02*
G01*
X124020827Y-105207378D01*
X123881277Y-105137604D01*
X123811504Y-104998057D01*
X123811504Y-104664318D01*
X123881277Y-104524770D01*
X124020827Y-104454997D01*
X124256191Y-104454997D01*
X124105715Y-105207378D01*
G37*
G36*
X126032941Y-108580061D02*
G01*
X122722616Y-108580061D01*
X122722616Y-108069283D01*
X123611504Y-108069283D01*
X123611504Y-108259760D01*
X123613425Y-108279269D01*
X123628357Y-108315317D01*
X123655947Y-108342907D01*
X123691995Y-108357839D01*
X123731013Y-108357839D01*
X123767061Y-108342907D01*
X123794651Y-108315317D01*
X123809583Y-108279269D01*
X123811504Y-108259760D01*
X123811504Y-108092890D01*
X123888927Y-107938044D01*
X123961216Y-107865754D01*
X124116065Y-107788331D01*
X125044838Y-107788331D01*
X125064347Y-107786410D01*
X125100395Y-107771478D01*
X125127985Y-107743888D01*
X125142917Y-107707840D01*
X125142917Y-107668822D01*
X125127985Y-107632774D01*
X125100395Y-107605184D01*
X125064347Y-107590252D01*
X125044838Y-107588331D01*
X123711504Y-107588331D01*
X123691995Y-107590252D01*
X123655947Y-107605184D01*
X123628357Y-107632774D01*
X123613425Y-107668822D01*
X123613425Y-107707840D01*
X123628357Y-107743888D01*
X123655947Y-107771478D01*
X123691995Y-107786410D01*
X123711504Y-107788331D01*
X123755796Y-107788331D01*
X123736031Y-107808096D01*
X123729739Y-107815762D01*
X123727742Y-107817495D01*
X123725846Y-107820506D01*
X123723595Y-107823250D01*
X123722585Y-107825686D01*
X123717299Y-107834085D01*
X123622061Y-108024562D01*
X123615055Y-108042870D01*
X123614800Y-108046453D01*
X123613425Y-108049774D01*
X123611504Y-108069283D01*
X122722616Y-108069283D01*
X122722616Y-105959430D01*
X123612577Y-105959430D01*
X123614515Y-105998400D01*
X123631218Y-106033662D01*
X123660144Y-106059849D01*
X123677870Y-106068219D01*
X124747517Y-106450234D01*
X123677870Y-106832252D01*
X123660144Y-106840622D01*
X123631218Y-106866809D01*
X123614515Y-106902071D01*
X123612577Y-106941041D01*
X123625700Y-106977786D01*
X123651887Y-107006712D01*
X123687149Y-107023415D01*
X123726119Y-107025353D01*
X123745138Y-107020600D01*
X125078472Y-106544409D01*
X125080169Y-106543607D01*
X125081977Y-106543083D01*
X125558167Y-106352607D01*
X125575567Y-106343578D01*
X125576012Y-106343143D01*
X125576585Y-106342906D01*
X125591739Y-106330470D01*
X125686977Y-106235232D01*
X125693268Y-106227565D01*
X125695266Y-106225833D01*
X125697161Y-106222821D01*
X125699413Y-106220078D01*
X125700422Y-106217640D01*
X125705709Y-106209242D01*
X125800947Y-106018766D01*
X125807953Y-106000458D01*
X125810719Y-105961537D01*
X125798380Y-105924522D01*
X125772816Y-105895045D01*
X125737917Y-105877595D01*
X125698997Y-105874830D01*
X125661981Y-105887169D01*
X125632504Y-105912733D01*
X125622061Y-105929323D01*
X125534080Y-106105284D01*
X125464830Y-106174534D01*
X125042833Y-106343333D01*
X123745138Y-105879871D01*
X123726119Y-105875118D01*
X123687149Y-105877056D01*
X123651887Y-105893759D01*
X123625700Y-105922685D01*
X123612577Y-105959430D01*
X122722616Y-105959430D01*
X122722616Y-104640711D01*
X123611504Y-104640711D01*
X123611504Y-105021664D01*
X123613425Y-105041173D01*
X123614800Y-105044493D01*
X123615055Y-105048077D01*
X123622061Y-105066385D01*
X123717299Y-105256862D01*
X123719353Y-105260126D01*
X123719866Y-105261663D01*
X123721525Y-105263576D01*
X123727742Y-105273452D01*
X123737217Y-105281669D01*
X123745431Y-105291140D01*
X123755302Y-105297353D01*
X123757219Y-105299016D01*
X123758757Y-105299529D01*
X123762021Y-105301583D01*
X123952498Y-105396821D01*
X123970807Y-105403827D01*
X123974389Y-105404081D01*
X123977710Y-105405457D01*
X123997219Y-105407378D01*
X124187590Y-105407378D01*
X124187695Y-105407378D01*
X124207204Y-105405457D01*
X124216256Y-105401707D01*
X124225867Y-105399806D01*
X124234105Y-105394313D01*
X124243252Y-105390525D01*
X124250178Y-105383598D01*
X124258332Y-105378163D01*
X124263842Y-105369934D01*
X124270842Y-105362935D01*
X124274591Y-105353883D01*
X124280043Y-105345743D01*
X124285753Y-105326990D01*
X124460151Y-104454997D01*
X124735516Y-104454997D01*
X124875064Y-104524770D01*
X124944838Y-104664318D01*
X124944838Y-104998056D01*
X124860157Y-105167419D01*
X124853151Y-105185727D01*
X124850385Y-105224647D01*
X124862724Y-105261663D01*
X124888288Y-105291140D01*
X124923187Y-105308589D01*
X124962107Y-105311355D01*
X124999123Y-105299016D01*
X125028600Y-105273452D01*
X125039043Y-105256861D01*
X125134281Y-105066385D01*
X125141287Y-105048077D01*
X125141541Y-105044493D01*
X125142917Y-105041173D01*
X125144838Y-105021664D01*
X125144838Y-104640711D01*
X125142917Y-104621202D01*
X125141541Y-104617881D01*
X125141287Y-104614298D01*
X125134281Y-104595990D01*
X125039043Y-104405514D01*
X125036988Y-104402250D01*
X125036476Y-104400712D01*
X125034814Y-104398796D01*
X125028600Y-104388923D01*
X125019127Y-104380707D01*
X125010912Y-104371235D01*
X125001037Y-104365018D01*
X124999123Y-104363359D01*
X124997586Y-104362846D01*
X124994322Y-104360792D01*
X124803844Y-104265554D01*
X124785536Y-104258548D01*
X124781952Y-104258293D01*
X124778632Y-104256918D01*
X124759123Y-104254997D01*
X124378281Y-104254997D01*
X124378276Y-104254996D01*
X124378271Y-104254997D01*
X123997219Y-104254997D01*
X123977710Y-104256918D01*
X123974389Y-104258293D01*
X123970807Y-104258548D01*
X123952498Y-104265554D01*
X123762021Y-104360792D01*
X123758757Y-104362845D01*
X123757219Y-104363359D01*
X123755302Y-104365021D01*
X123745431Y-104371235D01*
X123737217Y-104380705D01*
X123727742Y-104388923D01*
X123721525Y-104398798D01*
X123719866Y-104400712D01*
X123719353Y-104402248D01*
X123717299Y-104405513D01*
X123622061Y-104595990D01*
X123615055Y-104614298D01*
X123614800Y-104617881D01*
X123613425Y-104621202D01*
X123611504Y-104640711D01*
X122722616Y-104640711D01*
X122722616Y-103287869D01*
X122946759Y-103287869D01*
X122946759Y-103326887D01*
X122961691Y-103362935D01*
X122989281Y-103390525D01*
X123025329Y-103405457D01*
X123044838Y-103407378D01*
X123611504Y-103407378D01*
X123611504Y-103783568D01*
X123613425Y-103803077D01*
X123628357Y-103839125D01*
X123655947Y-103866715D01*
X123691995Y-103881647D01*
X123731013Y-103881647D01*
X123767061Y-103866715D01*
X123794651Y-103839125D01*
X123809583Y-103803077D01*
X123811504Y-103783568D01*
X123811504Y-103407378D01*
X124735516Y-103407378D01*
X124875064Y-103477151D01*
X124944838Y-103616699D01*
X124944838Y-103783568D01*
X124946759Y-103803077D01*
X124961691Y-103839125D01*
X124989281Y-103866715D01*
X125025329Y-103881647D01*
X125064347Y-103881647D01*
X125100395Y-103866715D01*
X125127985Y-103839125D01*
X125142917Y-103803077D01*
X125144838Y-103783568D01*
X125144838Y-103593092D01*
X125142917Y-103573583D01*
X125141541Y-103570262D01*
X125141287Y-103566679D01*
X125134281Y-103548371D01*
X125039043Y-103357895D01*
X125036988Y-103354631D01*
X125036476Y-103353093D01*
X125034814Y-103351177D01*
X125028600Y-103341304D01*
X125019127Y-103333088D01*
X125010912Y-103323616D01*
X125001037Y-103317399D01*
X124999123Y-103315740D01*
X124997586Y-103315227D01*
X124994322Y-103313173D01*
X124803844Y-103217935D01*
X124785536Y-103210929D01*
X124781952Y-103210674D01*
X124778632Y-103209299D01*
X124759123Y-103207378D01*
X123811504Y-103207378D01*
X123811504Y-103021664D01*
X123809583Y-103002155D01*
X123794651Y-102966107D01*
X123767061Y-102938517D01*
X123731013Y-102923585D01*
X123691995Y-102923585D01*
X123655947Y-102938517D01*
X123628357Y-102966107D01*
X123613425Y-103002155D01*
X123611504Y-103021664D01*
X123611504Y-103207378D01*
X123044838Y-103207378D01*
X123025329Y-103209299D01*
X122989281Y-103224231D01*
X122961691Y-103251821D01*
X122946759Y-103287869D01*
X122722616Y-103287869D01*
X122722616Y-101688330D01*
X122944838Y-101688330D01*
X122944838Y-102164521D01*
X122945810Y-102174394D01*
X122945623Y-102177028D01*
X122946410Y-102180491D01*
X122946759Y-102184030D01*
X122947770Y-102186472D01*
X122949970Y-102196144D01*
X123045208Y-102481858D01*
X123053199Y-102499758D01*
X123078764Y-102529234D01*
X123113663Y-102546684D01*
X123152583Y-102549450D01*
X123189599Y-102537112D01*
X123219075Y-102511547D01*
X123236525Y-102476648D01*
X123239291Y-102437728D01*
X123234944Y-102418612D01*
X123144838Y-102148294D01*
X123144838Y-101711937D01*
X123222261Y-101557091D01*
X123294550Y-101484801D01*
X123449398Y-101407378D01*
X123592659Y-101407378D01*
X123747505Y-101484801D01*
X123819794Y-101557090D01*
X123902868Y-101723236D01*
X123995443Y-102093536D01*
X123995956Y-102094973D01*
X123996008Y-102095696D01*
X123999116Y-102103820D01*
X124002038Y-102111997D01*
X124002468Y-102112577D01*
X124003014Y-102114004D01*
X124098252Y-102304481D01*
X124103538Y-102312879D01*
X124104548Y-102315316D01*
X124106799Y-102318059D01*
X124108695Y-102321071D01*
X124110692Y-102322803D01*
X124116984Y-102330470D01*
X124212222Y-102425708D01*
X124219888Y-102431999D01*
X124221621Y-102433997D01*
X124224632Y-102435892D01*
X124227376Y-102438144D01*
X124229813Y-102439153D01*
X124238212Y-102444440D01*
X124428688Y-102539678D01*
X124446996Y-102546684D01*
X124450579Y-102546938D01*
X124453900Y-102548314D01*
X124473409Y-102550235D01*
X124663885Y-102550235D01*
X124683394Y-102548314D01*
X124686714Y-102546938D01*
X124690298Y-102546684D01*
X124708606Y-102539678D01*
X124899083Y-102444440D01*
X124907477Y-102439155D01*
X124909918Y-102438145D01*
X124912664Y-102435890D01*
X124915673Y-102433997D01*
X124917404Y-102432000D01*
X124925071Y-102425708D01*
X125020311Y-102330470D01*
X125026604Y-102322801D01*
X125028600Y-102321071D01*
X125030493Y-102318063D01*
X125032747Y-102315317D01*
X125033757Y-102312876D01*
X125039043Y-102304480D01*
X125134281Y-102114004D01*
X125141287Y-102095696D01*
X125141541Y-102092112D01*
X125142917Y-102088792D01*
X125144838Y-102069283D01*
X125144838Y-101593092D01*
X125143865Y-101583218D01*
X125144053Y-101580585D01*
X125143265Y-101577121D01*
X125142917Y-101573583D01*
X125141905Y-101571140D01*
X125139706Y-101561469D01*
X125044468Y-101275755D01*
X125036477Y-101257855D01*
X125010912Y-101228379D01*
X124976013Y-101210929D01*
X124937093Y-101208163D01*
X124900077Y-101220501D01*
X124870601Y-101246066D01*
X124853151Y-101280965D01*
X124850385Y-101319885D01*
X124854732Y-101339001D01*
X124944838Y-101609319D01*
X124944838Y-102045675D01*
X124867414Y-102200523D01*
X124795126Y-102272810D01*
X124640278Y-102350235D01*
X124497017Y-102350235D01*
X124342169Y-102272811D01*
X124269880Y-102200522D01*
X124186808Y-102034379D01*
X124094233Y-101664076D01*
X124093719Y-101662637D01*
X124093668Y-101661917D01*
X124090565Y-101653809D01*
X124087638Y-101645616D01*
X124087206Y-101645033D01*
X124086661Y-101643608D01*
X123991423Y-101453132D01*
X123986136Y-101444733D01*
X123985127Y-101442297D01*
X123982875Y-101439553D01*
X123980980Y-101436542D01*
X123978982Y-101434809D01*
X123972691Y-101427143D01*
X123877453Y-101331905D01*
X123869786Y-101325613D01*
X123868054Y-101323616D01*
X123865042Y-101321720D01*
X123862299Y-101319469D01*
X123859862Y-101318459D01*
X123851464Y-101313173D01*
X123660987Y-101217935D01*
X123642679Y-101210929D01*
X123639095Y-101210674D01*
X123635775Y-101209299D01*
X123616266Y-101207378D01*
X123425790Y-101207378D01*
X123406281Y-101209299D01*
X123402960Y-101210674D01*
X123399377Y-101210929D01*
X123381069Y-101217935D01*
X123190593Y-101313173D01*
X123182194Y-101318459D01*
X123179757Y-101319469D01*
X123177013Y-101321720D01*
X123174002Y-101323616D01*
X123172269Y-101325613D01*
X123164603Y-101331905D01*
X123069365Y-101427143D01*
X123063073Y-101434809D01*
X123061076Y-101436542D01*
X123059180Y-101439553D01*
X123056929Y-101442297D01*
X123055919Y-101444733D01*
X123050633Y-101453132D01*
X122955395Y-101643609D01*
X122948389Y-101661917D01*
X122948134Y-101665500D01*
X122946759Y-101668821D01*
X122944838Y-101688330D01*
X122722616Y-101688330D01*
X122722616Y-98240249D01*
X122946759Y-98240249D01*
X122946759Y-98279267D01*
X122961691Y-98315315D01*
X122989281Y-98342905D01*
X123025329Y-98357837D01*
X123044838Y-98359758D01*
X124944838Y-98359758D01*
X124944838Y-99212139D01*
X124946759Y-99231648D01*
X124961691Y-99267696D01*
X124989281Y-99295286D01*
X125025329Y-99310218D01*
X125064347Y-99310218D01*
X125100395Y-99295286D01*
X125127985Y-99267696D01*
X125142917Y-99231648D01*
X125144838Y-99212139D01*
X125144838Y-98259758D01*
X125142917Y-98240249D01*
X125127985Y-98204201D01*
X125100395Y-98176611D01*
X125064347Y-98161679D01*
X125044838Y-98159758D01*
X123044838Y-98159758D01*
X123025329Y-98161679D01*
X122989281Y-98176611D01*
X122961691Y-98204201D01*
X122946759Y-98240249D01*
X122722616Y-98240249D01*
X122722616Y-96450234D01*
X122944838Y-96450234D01*
X122944838Y-97593091D01*
X122946759Y-97612600D01*
X122961691Y-97648648D01*
X122989281Y-97676238D01*
X123025329Y-97691170D01*
X123064347Y-97691170D01*
X123100395Y-97676238D01*
X123127985Y-97648648D01*
X123142917Y-97612600D01*
X123144838Y-97593091D01*
X123144838Y-97121662D01*
X125044838Y-97121662D01*
X125064347Y-97119741D01*
X125100395Y-97104809D01*
X125127985Y-97077219D01*
X125142917Y-97041171D01*
X125142917Y-97002153D01*
X125127985Y-96966105D01*
X125100395Y-96938515D01*
X125064347Y-96923583D01*
X125044838Y-96921662D01*
X123144838Y-96921662D01*
X123144838Y-96450234D01*
X123142917Y-96430725D01*
X123127985Y-96394677D01*
X123100395Y-96367087D01*
X123064347Y-96352155D01*
X123025329Y-96352155D01*
X122989281Y-96367087D01*
X122961691Y-96394677D01*
X122946759Y-96430725D01*
X122944838Y-96450234D01*
X122722616Y-96450234D01*
X122722616Y-94621201D01*
X122946759Y-94621201D01*
X122946759Y-94660219D01*
X122961691Y-94696267D01*
X122989281Y-94723857D01*
X123025329Y-94738789D01*
X123044838Y-94740710D01*
X123897219Y-94740710D01*
X123897219Y-95683567D01*
X123044838Y-95683567D01*
X123025329Y-95685488D01*
X122989281Y-95700420D01*
X122961691Y-95728010D01*
X122946759Y-95764058D01*
X122946759Y-95803076D01*
X122961691Y-95839124D01*
X122989281Y-95866714D01*
X123025329Y-95881646D01*
X123044838Y-95883567D01*
X125044838Y-95883567D01*
X125064347Y-95881646D01*
X125100395Y-95866714D01*
X125127985Y-95839124D01*
X125142917Y-95803076D01*
X125142917Y-95764058D01*
X125127985Y-95728010D01*
X125100395Y-95700420D01*
X125064347Y-95685488D01*
X125044838Y-95683567D01*
X124097219Y-95683567D01*
X124097219Y-94740710D01*
X125044838Y-94740710D01*
X125064347Y-94738789D01*
X125100395Y-94723857D01*
X125127985Y-94696267D01*
X125142917Y-94660219D01*
X125142917Y-94621201D01*
X125127985Y-94585153D01*
X125100395Y-94557563D01*
X125064347Y-94542631D01*
X125044838Y-94540710D01*
X123044838Y-94540710D01*
X123025329Y-94542631D01*
X122989281Y-94557563D01*
X122961691Y-94585153D01*
X122946759Y-94621201D01*
X122722616Y-94621201D01*
X122722616Y-94318488D01*
X126032941Y-94318488D01*
X126032941Y-108580061D01*
G37*
D11*
%TO.P,C2,1*%
%TO.N,Net-(D3-K)*%
X142767296Y-91124301D03*
D12*
%TO.P,C2,2*%
%TO.N,Net-(D4-A)*%
X140267296Y-91124301D03*
%TD*%
D13*
%TO.P,R3,1*%
%TO.N,Net-(D4-A)*%
X140300000Y-96300000D03*
%TO.P,R3,2*%
%TO.N,VCC*%
X140300000Y-106460000D03*
%TD*%
D14*
%TO.P,D3,1,K*%
%TO.N,Net-(D3-K)*%
X140988450Y-68810000D03*
D15*
%TO.P,D3,2,A*%
%TO.N,Net-(D3-A)*%
X140988450Y-71350000D03*
%TD*%
D16*
%TO.P,H2,1,1*%
%TO.N,GND*%
X148800000Y-67210000D03*
%TD*%
%TO.P,H1,1,1*%
%TO.N,GND*%
X126300000Y-67210000D03*
%TD*%
D13*
%TO.P,R4,1*%
%TO.N,Net-(D3-A)*%
X144550000Y-96300000D03*
%TO.P,R4,2*%
%TO.N,VCC*%
X144550000Y-106460000D03*
%TD*%
D11*
%TO.P,Q1,1,C*%
%TO.N,Net-(D3-K)*%
X146623887Y-72835783D03*
D12*
%TO.P,Q1,2,B*%
%TO.N,Net-(D1-K)*%
X146623884Y-75375787D03*
D17*
%TO.P,Q1,3,E*%
%TO.N,GND*%
X146623887Y-77915783D03*
%TD*%
D13*
%TO.P,R2,1*%
%TO.N,VCC*%
X135800000Y-106460000D03*
%TO.P,R2,2*%
%TO.N,Net-(D1-A)*%
X135800000Y-96300000D03*
%TD*%
D11*
%TO.P,C1,1*%
%TO.N,Net-(D2-K)*%
X133287361Y-91171142D03*
D12*
%TO.P,C1,2*%
%TO.N,Net-(D1-A)*%
X135787361Y-91171142D03*
%TD*%
D16*
%TO.P,H4,1,1*%
%TO.N,GND*%
X126300000Y-114710000D03*
%TD*%
D11*
%TO.P,Q2,1,C*%
%TO.N,Net-(D2-K)*%
X127408837Y-73030785D03*
D12*
%TO.P,Q2,2,B*%
%TO.N,Net-(D4-K)*%
X127408837Y-75570785D03*
D17*
%TO.P,Q2,3,E*%
%TO.N,GND*%
X127408837Y-78110785D03*
%TD*%
D11*
%TO.P,D4,1,K*%
%TO.N,Net-(D4-K)*%
X127583837Y-80863406D03*
D18*
%TO.P,D4,2,A*%
%TO.N,Net-(D4-A)*%
X127583837Y-88463406D03*
%TD*%
D13*
%TO.P,R1,1*%
%TO.N,Net-(D2-A)*%
X131300000Y-96300000D03*
%TO.P,R1,2*%
%TO.N,VCC*%
X131300000Y-106460000D03*
%TD*%
D14*
%TO.P,D2,1,K*%
%TO.N,Net-(D2-K)*%
X134300000Y-68810000D03*
D15*
%TO.P,D2,2,A*%
%TO.N,Net-(D2-A)*%
X134300000Y-71350000D03*
%TD*%
D16*
%TO.P,H3,1,1*%
%TO.N,GND*%
X148800000Y-114710000D03*
%TD*%
D19*
%TO.P,D1,1,K*%
%TO.N,Net-(D1-K)*%
X146556958Y-80855540D03*
D20*
%TO.P,D1,2,A*%
%TO.N,Net-(D1-A)*%
X146556958Y-88475540D03*
%TD*%
D21*
%TO.P,J1,S1,SHIELD*%
%TO.N,GND*%
X133415000Y-113375000D03*
X133415000Y-117175000D03*
X142055000Y-113375000D03*
X142055000Y-117175000D03*
%TD*%
D22*
%TO.N,Net-(D1-A)*%
X138636285Y-94380810D03*
X146474661Y-94400945D03*
%TO.N,Net-(D2-A)*%
X129585824Y-92233461D03*
%TD*%
%TO.N,Net-(D1-A)*%
D23*
X138677434Y-94421959D02*
X138636285Y-94380810D01*
X146474661Y-94400945D02*
X138656420Y-94400945D01*
X138656420Y-94400945D02*
X138636285Y-94380810D01*
%TO.N,Net-(D2-A)*%
X129585473Y-73064527D02*
X129585473Y-92233110D01*
X131300000Y-71350000D02*
X129585473Y-73064527D01*
X134300000Y-71350000D02*
X131300000Y-71350000D01*
X129585473Y-92233110D02*
X129585824Y-92233461D01*
%TD*%
%TA.AperFunction,Conductor*%
%TO.N,GND*%
G36*
X128574221Y-78922617D02*
G01*
X128574221Y-78922616D01*
X128623330Y-78855026D01*
X128650488Y-78801726D01*
X128698462Y-78750930D01*
X128766283Y-78734135D01*
X128832418Y-78756672D01*
X128875870Y-78811387D01*
X128884973Y-78858021D01*
X128884973Y-79262949D01*
X128865288Y-79329988D01*
X128812484Y-79375743D01*
X128743326Y-79385687D01*
X128717641Y-79379132D01*
X128691317Y-79369314D01*
X128631720Y-79362907D01*
X128631718Y-79362906D01*
X128631710Y-79362906D01*
X128631702Y-79362906D01*
X128347985Y-79362906D01*
X128280946Y-79343221D01*
X128236969Y-79292469D01*
X127455284Y-78510785D01*
X127461498Y-78510785D01*
X127563231Y-78483526D01*
X127654443Y-78430865D01*
X127728917Y-78356391D01*
X127781578Y-78265179D01*
X127808837Y-78163446D01*
X127808837Y-78157232D01*
X128574221Y-78922617D01*
G37*
%TD.AperFunction*%
%TA.AperFunction,Conductor*%
G36*
X128847393Y-76316516D02*
G01*
X128881750Y-76377355D01*
X128884973Y-76405441D01*
X128884973Y-77363548D01*
X128865288Y-77430587D01*
X128812484Y-77476342D01*
X128743326Y-77486286D01*
X128679770Y-77457261D01*
X128650489Y-77419843D01*
X128623333Y-77366547D01*
X128574221Y-77298952D01*
X128574221Y-77298951D01*
X127808837Y-78064336D01*
X127808837Y-78058124D01*
X127781578Y-77956391D01*
X127728917Y-77865179D01*
X127654443Y-77790705D01*
X127563231Y-77738044D01*
X127461498Y-77710785D01*
X127455282Y-77710785D01*
X128220669Y-76945399D01*
X128219242Y-76927274D01*
X128206541Y-76910803D01*
X128200562Y-76841190D01*
X128233167Y-76779395D01*
X128249202Y-76765500D01*
X128360289Y-76684792D01*
X128522844Y-76522237D01*
X128522846Y-76522233D01*
X128522849Y-76522231D01*
X128660655Y-76332556D01*
X128715984Y-76289890D01*
X128785598Y-76283911D01*
X128847393Y-76316516D01*
G37*
%TD.AperFunction*%
%TA.AperFunction,Conductor*%
G36*
X148802702Y-62710617D02*
G01*
X149186771Y-62727386D01*
X149197506Y-62728326D01*
X149575971Y-62778152D01*
X149586597Y-62780025D01*
X149959284Y-62862648D01*
X149969710Y-62865442D01*
X150333765Y-62980227D01*
X150343911Y-62983920D01*
X150696578Y-63130000D01*
X150706369Y-63134566D01*
X151044942Y-63310816D01*
X151054310Y-63316224D01*
X151376244Y-63521318D01*
X151385105Y-63527523D01*
X151687930Y-63759889D01*
X151696217Y-63766843D01*
X151977635Y-64024715D01*
X151985284Y-64032364D01*
X152243156Y-64313782D01*
X152250110Y-64322069D01*
X152482476Y-64624894D01*
X152488681Y-64633755D01*
X152693775Y-64955689D01*
X152699183Y-64965057D01*
X152875430Y-65303623D01*
X152880002Y-65313427D01*
X153026075Y-65666078D01*
X153029775Y-65676244D01*
X153144554Y-66040278D01*
X153147354Y-66050727D01*
X153229971Y-66423389D01*
X153231849Y-66434042D01*
X153281671Y-66812473D01*
X153282614Y-66823249D01*
X153299382Y-67207297D01*
X153299500Y-67212706D01*
X153299500Y-114707293D01*
X153299382Y-114712702D01*
X153282614Y-115096750D01*
X153281671Y-115107526D01*
X153231849Y-115485957D01*
X153229971Y-115496610D01*
X153147354Y-115869272D01*
X153144554Y-115879721D01*
X153029775Y-116243755D01*
X153026075Y-116253921D01*
X152880002Y-116606572D01*
X152875430Y-116616376D01*
X152699183Y-116954942D01*
X152693775Y-116964310D01*
X152488681Y-117286244D01*
X152482476Y-117295105D01*
X152250110Y-117597930D01*
X152243156Y-117606217D01*
X151985284Y-117887635D01*
X151977635Y-117895284D01*
X151696217Y-118153156D01*
X151687930Y-118160110D01*
X151385105Y-118392476D01*
X151376244Y-118398681D01*
X151054310Y-118603775D01*
X151044942Y-118609183D01*
X150706376Y-118785430D01*
X150696572Y-118790002D01*
X150343921Y-118936075D01*
X150333755Y-118939775D01*
X149969721Y-119054554D01*
X149959272Y-119057354D01*
X149586610Y-119139971D01*
X149575957Y-119141849D01*
X149197526Y-119191671D01*
X149186750Y-119192614D01*
X148802703Y-119209382D01*
X148797294Y-119209500D01*
X126302706Y-119209500D01*
X126297297Y-119209382D01*
X125913249Y-119192614D01*
X125902473Y-119191671D01*
X125524042Y-119141849D01*
X125513389Y-119139971D01*
X125140727Y-119057354D01*
X125130278Y-119054554D01*
X124766244Y-118939775D01*
X124756078Y-118936075D01*
X124403427Y-118790002D01*
X124393623Y-118785430D01*
X124055057Y-118609183D01*
X124045689Y-118603775D01*
X123723755Y-118398681D01*
X123714894Y-118392476D01*
X123412069Y-118160110D01*
X123403782Y-118153156D01*
X123122364Y-117895284D01*
X123114715Y-117887635D01*
X122856843Y-117606217D01*
X122849889Y-117597930D01*
X122793921Y-117524991D01*
X122617523Y-117295105D01*
X122611318Y-117286244D01*
X122406224Y-116964310D01*
X122400816Y-116954942D01*
X122385229Y-116925000D01*
X122224566Y-116616369D01*
X122219997Y-116606572D01*
X122215388Y-116595444D01*
X122073920Y-116253911D01*
X122070224Y-116243755D01*
X122058213Y-116205660D01*
X121955442Y-115879710D01*
X121952648Y-115869284D01*
X121870025Y-115496597D01*
X121868152Y-115485971D01*
X121818326Y-115107506D01*
X121817386Y-115096771D01*
X121800618Y-114712702D01*
X121800500Y-114707293D01*
X121800500Y-114528234D01*
X122600000Y-114528234D01*
X122600000Y-114891765D01*
X122635632Y-115253556D01*
X122706550Y-115610090D01*
X122706553Y-115610101D01*
X122812086Y-115957997D01*
X122951207Y-116293864D01*
X122951209Y-116293869D01*
X123122570Y-116614462D01*
X123122581Y-116614480D01*
X123324551Y-116916750D01*
X123511678Y-117144765D01*
X123511679Y-117144766D01*
X125005747Y-115650697D01*
X125079588Y-115752330D01*
X125257670Y-115930412D01*
X125359301Y-116004251D01*
X123865232Y-117498319D01*
X123865233Y-117498320D01*
X124093249Y-117685448D01*
X124395519Y-117887418D01*
X124395537Y-117887429D01*
X124716130Y-118058790D01*
X124716135Y-118058792D01*
X125052002Y-118197913D01*
X125399898Y-118303446D01*
X125399909Y-118303449D01*
X125756443Y-118374367D01*
X126118234Y-118410000D01*
X126481766Y-118410000D01*
X126843556Y-118374367D01*
X127200090Y-118303449D01*
X127200101Y-118303446D01*
X127547997Y-118197913D01*
X127883864Y-118058792D01*
X127883869Y-118058790D01*
X128204462Y-117887429D01*
X128204480Y-117887418D01*
X128506736Y-117685457D01*
X128506750Y-117685447D01*
X128734765Y-117498320D01*
X128734766Y-117498319D01*
X128697766Y-117461319D01*
X127240698Y-116004251D01*
X127342330Y-115930412D01*
X127520412Y-115752330D01*
X127594251Y-115650698D01*
X129088319Y-117144766D01*
X129088320Y-117144765D01*
X129275447Y-116916750D01*
X129275464Y-116916727D01*
X129372449Y-116771579D01*
X132365000Y-116771579D01*
X132365000Y-116925000D01*
X133115000Y-116925000D01*
X133115000Y-117425000D01*
X132365000Y-117425000D01*
X132365000Y-117578420D01*
X132405348Y-117781266D01*
X132405350Y-117781274D01*
X132484500Y-117972358D01*
X132484505Y-117972368D01*
X132599410Y-118144335D01*
X132599413Y-118144339D01*
X132745660Y-118290586D01*
X132745664Y-118290589D01*
X132917631Y-118405494D01*
X132917641Y-118405499D01*
X133108723Y-118484648D01*
X133108725Y-118484649D01*
X133165000Y-118495842D01*
X133165000Y-117641988D01*
X133174940Y-117659205D01*
X133230795Y-117715060D01*
X133299204Y-117754556D01*
X133375504Y-117775000D01*
X133454496Y-117775000D01*
X133530796Y-117754556D01*
X133599205Y-117715060D01*
X133655060Y-117659205D01*
X133665000Y-117641988D01*
X133665000Y-118495842D01*
X133721274Y-118484649D01*
X133721276Y-118484648D01*
X133912358Y-118405499D01*
X133912368Y-118405494D01*
X134084335Y-118290589D01*
X134084339Y-118290586D01*
X134230586Y-118144339D01*
X134230589Y-118144335D01*
X134345494Y-117972368D01*
X134345499Y-117972358D01*
X134424649Y-117781274D01*
X134424651Y-117781266D01*
X134464999Y-117578420D01*
X134465000Y-117578417D01*
X134465000Y-117425000D01*
X133715000Y-117425000D01*
X133715000Y-116925000D01*
X134465000Y-116925000D01*
X134465000Y-116771583D01*
X134464999Y-116771579D01*
X141005000Y-116771579D01*
X141005000Y-116925000D01*
X141755000Y-116925000D01*
X141755000Y-117425000D01*
X141005000Y-117425000D01*
X141005000Y-117578420D01*
X141045348Y-117781266D01*
X141045350Y-117781274D01*
X141124500Y-117972358D01*
X141124505Y-117972368D01*
X141239410Y-118144335D01*
X141239413Y-118144339D01*
X141385660Y-118290586D01*
X141385664Y-118290589D01*
X141557631Y-118405494D01*
X141557641Y-118405499D01*
X141748723Y-118484648D01*
X141748725Y-118484649D01*
X141805000Y-118495842D01*
X141805000Y-117641988D01*
X141814940Y-117659205D01*
X141870795Y-117715060D01*
X141939204Y-117754556D01*
X142015504Y-117775000D01*
X142094496Y-117775000D01*
X142170796Y-117754556D01*
X142239205Y-117715060D01*
X142295060Y-117659205D01*
X142305000Y-117641988D01*
X142305000Y-118495842D01*
X142361274Y-118484649D01*
X142361276Y-118484648D01*
X142552358Y-118405499D01*
X142552368Y-118405494D01*
X142724335Y-118290589D01*
X142724339Y-118290586D01*
X142870586Y-118144339D01*
X142870589Y-118144335D01*
X142985494Y-117972368D01*
X142985499Y-117972358D01*
X143064649Y-117781274D01*
X143064651Y-117781266D01*
X143104999Y-117578420D01*
X143105000Y-117578417D01*
X143105000Y-117425000D01*
X142355000Y-117425000D01*
X142355000Y-116925000D01*
X143105000Y-116925000D01*
X143105000Y-116771583D01*
X143104999Y-116771579D01*
X143064651Y-116568733D01*
X143064649Y-116568725D01*
X142985499Y-116377641D01*
X142985494Y-116377631D01*
X142870589Y-116205664D01*
X142870586Y-116205660D01*
X142724339Y-116059413D01*
X142724335Y-116059410D01*
X142552368Y-115944505D01*
X142552358Y-115944500D01*
X142361272Y-115865349D01*
X142361267Y-115865347D01*
X142305000Y-115854155D01*
X142305000Y-116708011D01*
X142295060Y-116690795D01*
X142239205Y-116634940D01*
X142170796Y-116595444D01*
X142094496Y-116575000D01*
X142015504Y-116575000D01*
X141939204Y-116595444D01*
X141870795Y-116634940D01*
X141814940Y-116690795D01*
X141805000Y-116708011D01*
X141805000Y-115854156D01*
X141804999Y-115854155D01*
X141748732Y-115865347D01*
X141748727Y-115865349D01*
X141557641Y-115944500D01*
X141557631Y-115944505D01*
X141385664Y-116059410D01*
X141385660Y-116059413D01*
X141239413Y-116205660D01*
X141239410Y-116205664D01*
X141124505Y-116377631D01*
X141124500Y-116377641D01*
X141045350Y-116568725D01*
X141045348Y-116568733D01*
X141005000Y-116771579D01*
X134464999Y-116771579D01*
X134424651Y-116568733D01*
X134424649Y-116568725D01*
X134345499Y-116377641D01*
X134345494Y-116377631D01*
X134230589Y-116205664D01*
X134230586Y-116205660D01*
X134084339Y-116059413D01*
X134084335Y-116059410D01*
X133912368Y-115944505D01*
X133912358Y-115944500D01*
X133721272Y-115865349D01*
X133721267Y-115865347D01*
X133665000Y-115854155D01*
X133665000Y-116708011D01*
X133655060Y-116690795D01*
X133599205Y-116634940D01*
X133530796Y-116595444D01*
X133454496Y-116575000D01*
X133375504Y-116575000D01*
X133299204Y-116595444D01*
X133230795Y-116634940D01*
X133174940Y-116690795D01*
X133165000Y-116708011D01*
X133165000Y-115854156D01*
X133164999Y-115854155D01*
X133108732Y-115865347D01*
X133108727Y-115865349D01*
X132917641Y-115944500D01*
X132917631Y-115944505D01*
X132745664Y-116059410D01*
X132745660Y-116059413D01*
X132599413Y-116205660D01*
X132599410Y-116205664D01*
X132484505Y-116377631D01*
X132484500Y-116377641D01*
X132405350Y-116568725D01*
X132405348Y-116568733D01*
X132365000Y-116771579D01*
X129372449Y-116771579D01*
X129422547Y-116696602D01*
X129422547Y-116696601D01*
X129477418Y-116614480D01*
X129477429Y-116614462D01*
X129648790Y-116293869D01*
X129648792Y-116293864D01*
X129787913Y-115957997D01*
X129893446Y-115610101D01*
X129893449Y-115610090D01*
X129964367Y-115253556D01*
X130000000Y-114891765D01*
X130000000Y-114528234D01*
X129964367Y-114166443D01*
X129893449Y-113809909D01*
X129893446Y-113809898D01*
X129832696Y-113609633D01*
X129787913Y-113462002D01*
X129648792Y-113126135D01*
X129648790Y-113126130D01*
X129594171Y-113023945D01*
X129566181Y-112971579D01*
X132365000Y-112971579D01*
X132365000Y-113125000D01*
X133115000Y-113125000D01*
X133115000Y-113625000D01*
X132365000Y-113625000D01*
X132365000Y-113778420D01*
X132405348Y-113981266D01*
X132405350Y-113981274D01*
X132484500Y-114172358D01*
X132484505Y-114172368D01*
X132599410Y-114344335D01*
X132599413Y-114344339D01*
X132745660Y-114490586D01*
X132745664Y-114490589D01*
X132917631Y-114605494D01*
X132917641Y-114605499D01*
X133108723Y-114684648D01*
X133108725Y-114684649D01*
X133165000Y-114695842D01*
X133165000Y-113841988D01*
X133174940Y-113859205D01*
X133230795Y-113915060D01*
X133299204Y-113954556D01*
X133375504Y-113975000D01*
X133454496Y-113975000D01*
X133530796Y-113954556D01*
X133599205Y-113915060D01*
X133655060Y-113859205D01*
X133665000Y-113841988D01*
X133665000Y-114695842D01*
X133721274Y-114684649D01*
X133721276Y-114684648D01*
X133912358Y-114605499D01*
X133912368Y-114605494D01*
X134084335Y-114490589D01*
X134084339Y-114490586D01*
X134230586Y-114344339D01*
X134230589Y-114344335D01*
X134345494Y-114172368D01*
X134345499Y-114172358D01*
X134424649Y-113981274D01*
X134424651Y-113981266D01*
X134464999Y-113778420D01*
X134465000Y-113778417D01*
X134465000Y-113625000D01*
X133715000Y-113625000D01*
X133715000Y-113125000D01*
X134465000Y-113125000D01*
X134465000Y-112971583D01*
X134464999Y-112971579D01*
X141005000Y-112971579D01*
X141005000Y-113125000D01*
X141755000Y-113125000D01*
X141755000Y-113625000D01*
X141005000Y-113625000D01*
X141005000Y-113778420D01*
X141045348Y-113981266D01*
X141045350Y-113981274D01*
X141124500Y-114172358D01*
X141124505Y-114172368D01*
X141239410Y-114344335D01*
X141239413Y-114344339D01*
X141385660Y-114490586D01*
X141385664Y-114490589D01*
X141557631Y-114605494D01*
X141557641Y-114605499D01*
X141748723Y-114684648D01*
X141748725Y-114684649D01*
X141805000Y-114695842D01*
X141805000Y-113841988D01*
X141814940Y-113859205D01*
X141870795Y-113915060D01*
X141939204Y-113954556D01*
X142015504Y-113975000D01*
X142094496Y-113975000D01*
X142170796Y-113954556D01*
X142239205Y-113915060D01*
X142295060Y-113859205D01*
X142305000Y-113841988D01*
X142305000Y-114695842D01*
X142361274Y-114684649D01*
X142361276Y-114684648D01*
X142552358Y-114605499D01*
X142552368Y-114605494D01*
X142667995Y-114528234D01*
X145100000Y-114528234D01*
X145100000Y-114891765D01*
X145135632Y-115253556D01*
X145206550Y-115610090D01*
X145206553Y-115610101D01*
X145312086Y-115957997D01*
X145451207Y-116293864D01*
X145451209Y-116293869D01*
X145622570Y-116614462D01*
X145622581Y-116614480D01*
X145824551Y-116916750D01*
X146011678Y-117144765D01*
X146011679Y-117144766D01*
X147505747Y-115650697D01*
X147579588Y-115752330D01*
X147757670Y-115930412D01*
X147859301Y-116004251D01*
X146365232Y-117498319D01*
X146365233Y-117498320D01*
X146593249Y-117685448D01*
X146895519Y-117887418D01*
X146895537Y-117887429D01*
X147216130Y-118058790D01*
X147216135Y-118058792D01*
X147552002Y-118197913D01*
X147899898Y-118303446D01*
X147899909Y-118303449D01*
X148256443Y-118374367D01*
X148618234Y-118410000D01*
X148981766Y-118410000D01*
X149343556Y-118374367D01*
X149700090Y-118303449D01*
X149700101Y-118303446D01*
X150047997Y-118197913D01*
X150383864Y-118058792D01*
X150383869Y-118058790D01*
X150704462Y-117887429D01*
X150704480Y-117887418D01*
X151006736Y-117685457D01*
X151006750Y-117685447D01*
X151234765Y-117498320D01*
X151234766Y-117498319D01*
X149740698Y-116004251D01*
X149842330Y-115930412D01*
X150020412Y-115752330D01*
X150094251Y-115650698D01*
X151588319Y-117144766D01*
X151588320Y-117144765D01*
X151775447Y-116916750D01*
X151775457Y-116916736D01*
X151977418Y-116614480D01*
X151977429Y-116614462D01*
X152148790Y-116293869D01*
X152148792Y-116293864D01*
X152287913Y-115957997D01*
X152393446Y-115610101D01*
X152393449Y-115610090D01*
X152464367Y-115253556D01*
X152500000Y-114891765D01*
X152500000Y-114528234D01*
X152464367Y-114166443D01*
X152393449Y-113809909D01*
X152393446Y-113809898D01*
X152287913Y-113462002D01*
X152148792Y-113126135D01*
X152148790Y-113126130D01*
X151977429Y-112805537D01*
X151977418Y-112805519D01*
X151775448Y-112503249D01*
X151588320Y-112275233D01*
X151588319Y-112275232D01*
X150094251Y-113769300D01*
X150020412Y-113667670D01*
X149842330Y-113489588D01*
X149740698Y-113415748D01*
X151234766Y-111921679D01*
X151234765Y-111921678D01*
X151006750Y-111734551D01*
X150704480Y-111532581D01*
X150704462Y-111532570D01*
X150383869Y-111361209D01*
X150383864Y-111361207D01*
X150047997Y-111222086D01*
X149700101Y-111116553D01*
X149700090Y-111116550D01*
X149343556Y-111045632D01*
X148981766Y-111010000D01*
X148618234Y-111010000D01*
X148256443Y-111045632D01*
X147899909Y-111116550D01*
X147899898Y-111116553D01*
X147552002Y-111222086D01*
X147216135Y-111361207D01*
X147216130Y-111361209D01*
X146895537Y-111532570D01*
X146895519Y-111532581D01*
X146593258Y-111734545D01*
X146593254Y-111734548D01*
X146365233Y-111921679D01*
X146365233Y-111921680D01*
X147859301Y-113415748D01*
X147757670Y-113489588D01*
X147579588Y-113667670D01*
X147505748Y-113769301D01*
X146011680Y-112275233D01*
X146011679Y-112275233D01*
X145824548Y-112503254D01*
X145824545Y-112503258D01*
X145622581Y-112805519D01*
X145622570Y-112805537D01*
X145451209Y-113126130D01*
X145451207Y-113126135D01*
X145312086Y-113462002D01*
X145206553Y-113809898D01*
X145206550Y-113809909D01*
X145135632Y-114166443D01*
X145100000Y-114528234D01*
X142667995Y-114528234D01*
X142724335Y-114490589D01*
X142724339Y-114490586D01*
X142777420Y-114437506D01*
X142870586Y-114344339D01*
X142870589Y-114344335D01*
X142985494Y-114172368D01*
X142985499Y-114172358D01*
X143064649Y-113981274D01*
X143064651Y-113981266D01*
X143104999Y-113778420D01*
X143105000Y-113778417D01*
X143105000Y-113625000D01*
X142355000Y-113625000D01*
X142355000Y-113125000D01*
X143105000Y-113125000D01*
X143105000Y-112971583D01*
X143104999Y-112971579D01*
X143064651Y-112768733D01*
X143064649Y-112768725D01*
X142985499Y-112577641D01*
X142985494Y-112577631D01*
X142870589Y-112405664D01*
X142870586Y-112405660D01*
X142724339Y-112259413D01*
X142724335Y-112259410D01*
X142552368Y-112144505D01*
X142552358Y-112144500D01*
X142408845Y-112085055D01*
X142361272Y-112065349D01*
X142361267Y-112065347D01*
X142305000Y-112054155D01*
X142305000Y-112908011D01*
X142295060Y-112890795D01*
X142239205Y-112834940D01*
X142170796Y-112795444D01*
X142094496Y-112775000D01*
X142015504Y-112775000D01*
X141939204Y-112795444D01*
X141870795Y-112834940D01*
X141814940Y-112890795D01*
X141805000Y-112908011D01*
X141805000Y-112054156D01*
X141804999Y-112054155D01*
X141748732Y-112065347D01*
X141748727Y-112065349D01*
X141557641Y-112144500D01*
X141557631Y-112144505D01*
X141385664Y-112259410D01*
X141385660Y-112259413D01*
X141239413Y-112405660D01*
X141239410Y-112405664D01*
X141124505Y-112577631D01*
X141124500Y-112577641D01*
X141045350Y-112768725D01*
X141045348Y-112768733D01*
X141005000Y-112971579D01*
X134464999Y-112971579D01*
X134424651Y-112768733D01*
X134424649Y-112768725D01*
X134345499Y-112577641D01*
X134345494Y-112577631D01*
X134230589Y-112405664D01*
X134230586Y-112405660D01*
X134084339Y-112259413D01*
X134084335Y-112259410D01*
X133912368Y-112144505D01*
X133912358Y-112144500D01*
X133721272Y-112065349D01*
X133721267Y-112065347D01*
X133665000Y-112054155D01*
X133665000Y-112908011D01*
X133655060Y-112890795D01*
X133599205Y-112834940D01*
X133530796Y-112795444D01*
X133454496Y-112775000D01*
X133375504Y-112775000D01*
X133299204Y-112795444D01*
X133230795Y-112834940D01*
X133174940Y-112890795D01*
X133165000Y-112908011D01*
X133165000Y-112054156D01*
X133164999Y-112054155D01*
X133108732Y-112065347D01*
X133108727Y-112065349D01*
X132917641Y-112144500D01*
X132917631Y-112144505D01*
X132745664Y-112259410D01*
X132745660Y-112259413D01*
X132599413Y-112405660D01*
X132599410Y-112405664D01*
X132484505Y-112577631D01*
X132484500Y-112577641D01*
X132405350Y-112768725D01*
X132405348Y-112768733D01*
X132365000Y-112971579D01*
X129566181Y-112971579D01*
X129477429Y-112805537D01*
X129477418Y-112805519D01*
X129275448Y-112503249D01*
X129088320Y-112275233D01*
X129088319Y-112275232D01*
X127594251Y-113769300D01*
X127520412Y-113667670D01*
X127342330Y-113489588D01*
X127240698Y-113415748D01*
X128734766Y-111921679D01*
X128734765Y-111921678D01*
X128506750Y-111734551D01*
X128204480Y-111532581D01*
X128204462Y-111532570D01*
X127883869Y-111361209D01*
X127883864Y-111361207D01*
X127547997Y-111222086D01*
X127200101Y-111116553D01*
X127200090Y-111116550D01*
X126843556Y-111045632D01*
X126481766Y-111010000D01*
X126118234Y-111010000D01*
X125756443Y-111045632D01*
X125399909Y-111116550D01*
X125399898Y-111116553D01*
X125052002Y-111222086D01*
X124716135Y-111361207D01*
X124716130Y-111361209D01*
X124395537Y-111532570D01*
X124395519Y-111532581D01*
X124093258Y-111734545D01*
X124093254Y-111734548D01*
X123865233Y-111921679D01*
X123865233Y-111921680D01*
X125359301Y-113415748D01*
X125257670Y-113489588D01*
X125079588Y-113667670D01*
X125005748Y-113769301D01*
X123511680Y-112275233D01*
X123511679Y-112275233D01*
X123324548Y-112503254D01*
X123324545Y-112503258D01*
X123122581Y-112805519D01*
X123122570Y-112805537D01*
X122951209Y-113126130D01*
X122951207Y-113126135D01*
X122812086Y-113462002D01*
X122706553Y-113809898D01*
X122706550Y-113809909D01*
X122635632Y-114166443D01*
X122600000Y-114528234D01*
X121800500Y-114528234D01*
X121800500Y-108364760D01*
X122938693Y-108364760D01*
X125817650Y-108364760D01*
X125817650Y-106345258D01*
X129549500Y-106345258D01*
X129549500Y-106574741D01*
X129574446Y-106764215D01*
X129579452Y-106802238D01*
X129579453Y-106802240D01*
X129638842Y-107023887D01*
X129726650Y-107235876D01*
X129726657Y-107235890D01*
X129841392Y-107434617D01*
X129981081Y-107616661D01*
X129981089Y-107616670D01*
X130143330Y-107778911D01*
X130143338Y-107778918D01*
X130325382Y-107918607D01*
X130325385Y-107918608D01*
X130325388Y-107918611D01*
X130524112Y-108033344D01*
X130524117Y-108033346D01*
X130524123Y-108033349D01*
X130615480Y-108071190D01*
X130736113Y-108121158D01*
X130957762Y-108180548D01*
X131185266Y-108210500D01*
X131185273Y-108210500D01*
X131414727Y-108210500D01*
X131414734Y-108210500D01*
X131642238Y-108180548D01*
X131863887Y-108121158D01*
X132075888Y-108033344D01*
X132274612Y-107918611D01*
X132456661Y-107778919D01*
X132456665Y-107778914D01*
X132456670Y-107778911D01*
X132618911Y-107616670D01*
X132618914Y-107616665D01*
X132618919Y-107616661D01*
X132758611Y-107434612D01*
X132873344Y-107235888D01*
X132961158Y-107023887D01*
X133020548Y-106802238D01*
X133050500Y-106574734D01*
X133050500Y-106345266D01*
X133050499Y-106345258D01*
X134049500Y-106345258D01*
X134049500Y-106574741D01*
X134074446Y-106764215D01*
X134079452Y-106802238D01*
X134079453Y-106802240D01*
X134138842Y-107023887D01*
X134226650Y-107235876D01*
X134226657Y-107235890D01*
X134341392Y-107434617D01*
X134481081Y-107616661D01*
X134481089Y-107616670D01*
X134643330Y-107778911D01*
X134643338Y-107778918D01*
X134825382Y-107918607D01*
X134825385Y-107918608D01*
X134825388Y-107918611D01*
X135024112Y-108033344D01*
X135024117Y-108033346D01*
X135024123Y-108033349D01*
X135115480Y-108071190D01*
X135236113Y-108121158D01*
X135457762Y-108180548D01*
X135685266Y-108210500D01*
X135685273Y-108210500D01*
X135914727Y-108210500D01*
X135914734Y-108210500D01*
X136142238Y-108180548D01*
X136363887Y-108121158D01*
X136575888Y-108033344D01*
X136774612Y-107918611D01*
X136956661Y-107778919D01*
X136956665Y-107778914D01*
X136956670Y-107778911D01*
X137118911Y-107616670D01*
X137118914Y-107616665D01*
X137118919Y-107616661D01*
X137258611Y-107434612D01*
X137373344Y-107235888D01*
X137461158Y-107023887D01*
X137520548Y-106802238D01*
X137550500Y-106574734D01*
X137550500Y-106345266D01*
X137550499Y-106345258D01*
X138549500Y-106345258D01*
X138549500Y-106574741D01*
X138574446Y-106764215D01*
X138579452Y-106802238D01*
X138579453Y-106802240D01*
X138638842Y-107023887D01*
X138726650Y-107235876D01*
X138726657Y-107235890D01*
X138841392Y-107434617D01*
X138981081Y-107616661D01*
X138981089Y-107616670D01*
X139143330Y-107778911D01*
X139143338Y-107778918D01*
X139325382Y-107918607D01*
X139325385Y-107918608D01*
X139325388Y-107918611D01*
X139524112Y-108033344D01*
X139524117Y-108033346D01*
X139524123Y-108033349D01*
X139615480Y-108071190D01*
X139736113Y-108121158D01*
X139957762Y-108180548D01*
X140185266Y-108210500D01*
X140185273Y-108210500D01*
X140414727Y-108210500D01*
X140414734Y-108210500D01*
X140642238Y-108180548D01*
X140863887Y-108121158D01*
X141075888Y-108033344D01*
X141274612Y-107918611D01*
X141456661Y-107778919D01*
X141456665Y-107778914D01*
X141456670Y-107778911D01*
X141618911Y-107616670D01*
X141618914Y-107616665D01*
X141618919Y-107616661D01*
X141758611Y-107434612D01*
X141873344Y-107235888D01*
X141961158Y-107023887D01*
X142020548Y-106802238D01*
X142050500Y-106574734D01*
X142050500Y-106345266D01*
X142050499Y-106345258D01*
X142799500Y-106345258D01*
X142799500Y-106574741D01*
X142824446Y-106764215D01*
X142829452Y-106802238D01*
X142829453Y-106802240D01*
X142888842Y-107023887D01*
X142976650Y-107235876D01*
X142976657Y-107235890D01*
X143091392Y-107434617D01*
X143231081Y-107616661D01*
X143231089Y-107616670D01*
X143393330Y-107778911D01*
X143393338Y-107778918D01*
X143575382Y-107918607D01*
X143575385Y-107918608D01*
X143575388Y-107918611D01*
X143774112Y-108033344D01*
X143774117Y-108033346D01*
X143774123Y-108033349D01*
X143865480Y-108071190D01*
X143986113Y-108121158D01*
X144207762Y-108180548D01*
X144435266Y-108210500D01*
X144435273Y-108210500D01*
X144664727Y-108210500D01*
X144664734Y-108210500D01*
X144892238Y-108180548D01*
X145113887Y-108121158D01*
X145325888Y-108033344D01*
X145524612Y-107918611D01*
X145706661Y-107778919D01*
X145706665Y-107778914D01*
X145706670Y-107778911D01*
X145868911Y-107616670D01*
X145868914Y-107616665D01*
X145868919Y-107616661D01*
X146008611Y-107434612D01*
X146123344Y-107235888D01*
X146211158Y-107023887D01*
X146270548Y-106802238D01*
X146300500Y-106574734D01*
X146300500Y-106345266D01*
X146270548Y-106117762D01*
X146211158Y-105896113D01*
X146123344Y-105684112D01*
X146008611Y-105485388D01*
X146008608Y-105485385D01*
X146008607Y-105485382D01*
X145868918Y-105303338D01*
X145868911Y-105303330D01*
X145706670Y-105141089D01*
X145706661Y-105141081D01*
X145524617Y-105001392D01*
X145325890Y-104886657D01*
X145325876Y-104886650D01*
X145113887Y-104798842D01*
X144892238Y-104739452D01*
X144854215Y-104734446D01*
X144664741Y-104709500D01*
X144664734Y-104709500D01*
X144435266Y-104709500D01*
X144435258Y-104709500D01*
X144218715Y-104738009D01*
X144207762Y-104739452D01*
X144114076Y-104764554D01*
X143986112Y-104798842D01*
X143774123Y-104886650D01*
X143774109Y-104886657D01*
X143575382Y-105001392D01*
X143393338Y-105141081D01*
X143231081Y-105303338D01*
X143091392Y-105485382D01*
X142976657Y-105684109D01*
X142976650Y-105684123D01*
X142888842Y-105896112D01*
X142829453Y-106117759D01*
X142829451Y-106117770D01*
X142799500Y-106345258D01*
X142050499Y-106345258D01*
X142020548Y-106117762D01*
X141961158Y-105896113D01*
X141873344Y-105684112D01*
X141758611Y-105485388D01*
X141758608Y-105485385D01*
X141758607Y-105485382D01*
X141618918Y-105303338D01*
X141618911Y-105303330D01*
X141456670Y-105141089D01*
X141456661Y-105141081D01*
X141274617Y-105001392D01*
X141075890Y-104886657D01*
X141075876Y-104886650D01*
X140863887Y-104798842D01*
X140642238Y-104739452D01*
X140604215Y-104734446D01*
X140414741Y-104709500D01*
X140414734Y-104709500D01*
X140185266Y-104709500D01*
X140185258Y-104709500D01*
X139968715Y-104738009D01*
X139957762Y-104739452D01*
X139864076Y-104764554D01*
X139736112Y-104798842D01*
X139524123Y-104886650D01*
X139524109Y-104886657D01*
X139325382Y-105001392D01*
X139143338Y-105141081D01*
X138981081Y-105303338D01*
X138841392Y-105485382D01*
X138726657Y-105684109D01*
X138726650Y-105684123D01*
X138638842Y-105896112D01*
X138579453Y-106117759D01*
X138579451Y-106117770D01*
X138549500Y-106345258D01*
X137550499Y-106345258D01*
X137520548Y-106117762D01*
X137461158Y-105896113D01*
X137373344Y-105684112D01*
X137258611Y-105485388D01*
X137258608Y-105485385D01*
X137258607Y-105485382D01*
X137118918Y-105303338D01*
X137118911Y-105303330D01*
X136956670Y-105141089D01*
X136956661Y-105141081D01*
X136774617Y-105001392D01*
X136575890Y-104886657D01*
X136575876Y-104886650D01*
X136363887Y-104798842D01*
X136142238Y-104739452D01*
X136104215Y-104734446D01*
X135914741Y-104709500D01*
X135914734Y-104709500D01*
X135685266Y-104709500D01*
X135685258Y-104709500D01*
X135468715Y-104738009D01*
X135457762Y-104739452D01*
X135364076Y-104764554D01*
X135236112Y-104798842D01*
X135024123Y-104886650D01*
X135024109Y-104886657D01*
X134825382Y-105001392D01*
X134643338Y-105141081D01*
X134481081Y-105303338D01*
X134341392Y-105485382D01*
X134226657Y-105684109D01*
X134226650Y-105684123D01*
X134138842Y-105896112D01*
X134079453Y-106117759D01*
X134079451Y-106117770D01*
X134049500Y-106345258D01*
X133050499Y-106345258D01*
X133020548Y-106117762D01*
X132961158Y-105896113D01*
X132873344Y-105684112D01*
X132758611Y-105485388D01*
X132758608Y-105485385D01*
X132758607Y-105485382D01*
X132618918Y-105303338D01*
X132618911Y-105303330D01*
X132456670Y-105141089D01*
X132456661Y-105141081D01*
X132274617Y-105001392D01*
X132075890Y-104886657D01*
X132075876Y-104886650D01*
X131863887Y-104798842D01*
X131642238Y-104739452D01*
X131604215Y-104734446D01*
X131414741Y-104709500D01*
X131414734Y-104709500D01*
X131185266Y-104709500D01*
X131185258Y-104709500D01*
X130968715Y-104738009D01*
X130957762Y-104739452D01*
X130864076Y-104764554D01*
X130736112Y-104798842D01*
X130524123Y-104886650D01*
X130524109Y-104886657D01*
X130325382Y-105001392D01*
X130143338Y-105141081D01*
X129981081Y-105303338D01*
X129841392Y-105485382D01*
X129726657Y-105684109D01*
X129726650Y-105684123D01*
X129638842Y-105896112D01*
X129579453Y-106117759D01*
X129579451Y-106117770D01*
X129549500Y-106345258D01*
X125817650Y-106345258D01*
X125817650Y-96185258D01*
X129549500Y-96185258D01*
X129549500Y-96414741D01*
X129574446Y-96604215D01*
X129579452Y-96642238D01*
X129579453Y-96642240D01*
X129638842Y-96863887D01*
X129726650Y-97075876D01*
X129726657Y-97075890D01*
X129841392Y-97274617D01*
X129981081Y-97456661D01*
X129981089Y-97456670D01*
X130143330Y-97618911D01*
X130143338Y-97618918D01*
X130325382Y-97758607D01*
X130325385Y-97758608D01*
X130325388Y-97758611D01*
X130524112Y-97873344D01*
X130524117Y-97873346D01*
X130524123Y-97873349D01*
X130615480Y-97911190D01*
X130736113Y-97961158D01*
X130957762Y-98020548D01*
X131185266Y-98050500D01*
X131185273Y-98050500D01*
X131414727Y-98050500D01*
X131414734Y-98050500D01*
X131642238Y-98020548D01*
X131863887Y-97961158D01*
X132075888Y-97873344D01*
X132274612Y-97758611D01*
X132456661Y-97618919D01*
X132456665Y-97618914D01*
X132456670Y-97618911D01*
X132618911Y-97456670D01*
X132618914Y-97456665D01*
X132618919Y-97456661D01*
X132758611Y-97274612D01*
X132873344Y-97075888D01*
X132961158Y-96863887D01*
X133020548Y-96642238D01*
X133050500Y-96414734D01*
X133050500Y-96185266D01*
X133050499Y-96185258D01*
X134049500Y-96185258D01*
X134049500Y-96414741D01*
X134074446Y-96604215D01*
X134079452Y-96642238D01*
X134079453Y-96642240D01*
X134138842Y-96863887D01*
X134226650Y-97075876D01*
X134226657Y-97075890D01*
X134341392Y-97274617D01*
X134481081Y-97456661D01*
X134481089Y-97456670D01*
X134643330Y-97618911D01*
X134643338Y-97618918D01*
X134825382Y-97758607D01*
X134825385Y-97758608D01*
X134825388Y-97758611D01*
X135024112Y-97873344D01*
X135024117Y-97873346D01*
X135024123Y-97873349D01*
X135115480Y-97911190D01*
X135236113Y-97961158D01*
X135457762Y-98020548D01*
X135685266Y-98050500D01*
X135685273Y-98050500D01*
X135914727Y-98050500D01*
X135914734Y-98050500D01*
X136142238Y-98020548D01*
X136363887Y-97961158D01*
X136575888Y-97873344D01*
X136774612Y-97758611D01*
X136956661Y-97618919D01*
X136956665Y-97618914D01*
X136956670Y-97618911D01*
X137118911Y-97456670D01*
X137118914Y-97456665D01*
X137118919Y-97456661D01*
X137258611Y-97274612D01*
X137373344Y-97075888D01*
X137461158Y-96863887D01*
X137520548Y-96642238D01*
X137550500Y-96414734D01*
X137550500Y-96185266D01*
X137520548Y-95957762D01*
X137461158Y-95736113D01*
X137407331Y-95606163D01*
X137373349Y-95524123D01*
X137373346Y-95524117D01*
X137373344Y-95524112D01*
X137258611Y-95325388D01*
X137258608Y-95325385D01*
X137258607Y-95325382D01*
X137157764Y-95193962D01*
X137118919Y-95143339D01*
X137118918Y-95143338D01*
X137118911Y-95143330D01*
X136956670Y-94981089D01*
X136956661Y-94981081D01*
X136774617Y-94841392D01*
X136575890Y-94726657D01*
X136575876Y-94726650D01*
X136363887Y-94638842D01*
X136142238Y-94579452D01*
X136104215Y-94574446D01*
X135914741Y-94549500D01*
X135914734Y-94549500D01*
X135685266Y-94549500D01*
X135685258Y-94549500D01*
X135468715Y-94578009D01*
X135457762Y-94579452D01*
X135364076Y-94604554D01*
X135236112Y-94638842D01*
X135024123Y-94726650D01*
X135024109Y-94726657D01*
X134825382Y-94841392D01*
X134643338Y-94981081D01*
X134481081Y-95143338D01*
X134341392Y-95325382D01*
X134226657Y-95524109D01*
X134226650Y-95524123D01*
X134138842Y-95736112D01*
X134079453Y-95957759D01*
X134079451Y-95957770D01*
X134049500Y-96185258D01*
X133050499Y-96185258D01*
X133020548Y-95957762D01*
X132961158Y-95736113D01*
X132907331Y-95606163D01*
X132873349Y-95524123D01*
X132873346Y-95524117D01*
X132873344Y-95524112D01*
X132758611Y-95325388D01*
X132758608Y-95325385D01*
X132758607Y-95325382D01*
X132657764Y-95193962D01*
X132618919Y-95143339D01*
X132618918Y-95143338D01*
X132618911Y-95143330D01*
X132456670Y-94981089D01*
X132456661Y-94981081D01*
X132274617Y-94841392D01*
X132075890Y-94726657D01*
X132075876Y-94726650D01*
X131863887Y-94638842D01*
X131642238Y-94579452D01*
X131604215Y-94574446D01*
X131414741Y-94549500D01*
X131414734Y-94549500D01*
X131185266Y-94549500D01*
X131185258Y-94549500D01*
X130968715Y-94578009D01*
X130957762Y-94579452D01*
X130864076Y-94604554D01*
X130736112Y-94638842D01*
X130524123Y-94726650D01*
X130524109Y-94726657D01*
X130325382Y-94841392D01*
X130143338Y-94981081D01*
X129981081Y-95143338D01*
X129841392Y-95325382D01*
X129726657Y-95524109D01*
X129726650Y-95524123D01*
X129638842Y-95736112D01*
X129579453Y-95957759D01*
X129579451Y-95957770D01*
X129549500Y-96185258D01*
X125817650Y-96185258D01*
X125817650Y-94535710D01*
X122938693Y-94535710D01*
X122938693Y-108364760D01*
X121800500Y-108364760D01*
X121800500Y-94278458D01*
X137335785Y-94278458D01*
X137335785Y-94483161D01*
X137367807Y-94685344D01*
X137431066Y-94880033D01*
X137524000Y-95062423D01*
X137644313Y-95228023D01*
X137789071Y-95372781D01*
X137944034Y-95485366D01*
X137954675Y-95493097D01*
X138070892Y-95552313D01*
X138137061Y-95586028D01*
X138137063Y-95586028D01*
X138137066Y-95586030D01*
X138241422Y-95619937D01*
X138331750Y-95649287D01*
X138424992Y-95664055D01*
X138512638Y-95677937D01*
X138575773Y-95707866D01*
X138612704Y-95767178D01*
X138613014Y-95832501D01*
X138579453Y-95957759D01*
X138579451Y-95957770D01*
X138549500Y-96185258D01*
X138549500Y-96414741D01*
X138574446Y-96604215D01*
X138579452Y-96642238D01*
X138579453Y-96642240D01*
X138638842Y-96863887D01*
X138726650Y-97075876D01*
X138726657Y-97075890D01*
X138841392Y-97274617D01*
X138981081Y-97456661D01*
X138981089Y-97456670D01*
X139143330Y-97618911D01*
X139143338Y-97618918D01*
X139325382Y-97758607D01*
X139325385Y-97758608D01*
X139325388Y-97758611D01*
X139524112Y-97873344D01*
X139524117Y-97873346D01*
X139524123Y-97873349D01*
X139615480Y-97911190D01*
X139736113Y-97961158D01*
X139957762Y-98020548D01*
X140185266Y-98050500D01*
X140185273Y-98050500D01*
X140414727Y-98050500D01*
X140414734Y-98050500D01*
X140642238Y-98020548D01*
X140863887Y-97961158D01*
X141075888Y-97873344D01*
X141274612Y-97758611D01*
X141456661Y-97618919D01*
X141456665Y-97618914D01*
X141456670Y-97618911D01*
X141618911Y-97456670D01*
X141618914Y-97456665D01*
X141618919Y-97456661D01*
X141758611Y-97274612D01*
X141873344Y-97075888D01*
X141961158Y-96863887D01*
X142020548Y-96642238D01*
X142050500Y-96414734D01*
X142050500Y-96185266D01*
X142020548Y-95957762D01*
X141961158Y-95736113D01*
X141907331Y-95606163D01*
X141873349Y-95524123D01*
X141873346Y-95524117D01*
X141873344Y-95524112D01*
X141758611Y-95325388D01*
X141739844Y-95300930D01*
X141714650Y-95235764D01*
X141728687Y-95167319D01*
X141777501Y-95117329D01*
X141838220Y-95101445D01*
X143011780Y-95101445D01*
X143078819Y-95121130D01*
X143124574Y-95173934D01*
X143134518Y-95243092D01*
X143110156Y-95300930D01*
X143098387Y-95316267D01*
X143091390Y-95325386D01*
X142976657Y-95524109D01*
X142976650Y-95524123D01*
X142888842Y-95736112D01*
X142829453Y-95957759D01*
X142829451Y-95957770D01*
X142799500Y-96185258D01*
X142799500Y-96414741D01*
X142824446Y-96604215D01*
X142829452Y-96642238D01*
X142829453Y-96642240D01*
X142888842Y-96863887D01*
X142976650Y-97075876D01*
X142976657Y-97075890D01*
X143091392Y-97274617D01*
X143231081Y-97456661D01*
X143231089Y-97456670D01*
X143393330Y-97618911D01*
X143393338Y-97618918D01*
X143575382Y-97758607D01*
X143575385Y-97758608D01*
X143575388Y-97758611D01*
X143774112Y-97873344D01*
X143774117Y-97873346D01*
X143774123Y-97873349D01*
X143865480Y-97911190D01*
X143986113Y-97961158D01*
X144207762Y-98020548D01*
X144435266Y-98050500D01*
X144435273Y-98050500D01*
X144664727Y-98050500D01*
X144664734Y-98050500D01*
X144892238Y-98020548D01*
X145113887Y-97961158D01*
X145325888Y-97873344D01*
X145524612Y-97758611D01*
X145706661Y-97618919D01*
X145706665Y-97618914D01*
X145706670Y-97618911D01*
X145868911Y-97456670D01*
X145868914Y-97456665D01*
X145868919Y-97456661D01*
X146008611Y-97274612D01*
X146123344Y-97075888D01*
X146211158Y-96863887D01*
X146270548Y-96642238D01*
X146300500Y-96414734D01*
X146300500Y-96185266D01*
X146270548Y-95957762D01*
X146243607Y-95857215D01*
X146245270Y-95787368D01*
X146284433Y-95729506D01*
X146348661Y-95702002D01*
X146367437Y-95701623D01*
X146367437Y-95701445D01*
X146577012Y-95701445D01*
X146577013Y-95701445D01*
X146779195Y-95669422D01*
X146973880Y-95606165D01*
X147156271Y-95513232D01*
X147249251Y-95445677D01*
X147321874Y-95392916D01*
X147321876Y-95392913D01*
X147321880Y-95392911D01*
X147466627Y-95248164D01*
X147466629Y-95248160D01*
X147466632Y-95248158D01*
X147542787Y-95143338D01*
X147586948Y-95082555D01*
X147679881Y-94900164D01*
X147743138Y-94705479D01*
X147775161Y-94503297D01*
X147775161Y-94298593D01*
X147743138Y-94096411D01*
X147736595Y-94076275D01*
X147679879Y-93901721D01*
X147646164Y-93835552D01*
X147586948Y-93719335D01*
X147536087Y-93649330D01*
X147466632Y-93553731D01*
X147321874Y-93408973D01*
X147156274Y-93288660D01*
X147156273Y-93288659D01*
X147156271Y-93288658D01*
X147099314Y-93259636D01*
X146973884Y-93195726D01*
X146779195Y-93132467D01*
X146604656Y-93104823D01*
X146577013Y-93100445D01*
X146372309Y-93100445D01*
X146347990Y-93104296D01*
X146170126Y-93132467D01*
X145975437Y-93195726D01*
X145793047Y-93288660D01*
X145627447Y-93408973D01*
X145482691Y-93553729D01*
X145413236Y-93649329D01*
X145357906Y-93691996D01*
X145312917Y-93700445D01*
X139812658Y-93700445D01*
X139745619Y-93680760D01*
X139712340Y-93649331D01*
X139628251Y-93533591D01*
X139483504Y-93388844D01*
X139483498Y-93388838D01*
X139317898Y-93268525D01*
X139317897Y-93268524D01*
X139317895Y-93268523D01*
X139260938Y-93239501D01*
X139135508Y-93175591D01*
X138940819Y-93112332D01*
X138766280Y-93084688D01*
X138738637Y-93080310D01*
X138533933Y-93080310D01*
X138509614Y-93084161D01*
X138331750Y-93112332D01*
X138137061Y-93175591D01*
X137954671Y-93268525D01*
X137789071Y-93388838D01*
X137644313Y-93533596D01*
X137524000Y-93699196D01*
X137431066Y-93881586D01*
X137367807Y-94076275D01*
X137335785Y-94278458D01*
X121800500Y-94278458D01*
X121800500Y-88351955D01*
X125883337Y-88351955D01*
X125883337Y-88574856D01*
X125883338Y-88574872D01*
X125912431Y-88795858D01*
X125912432Y-88795863D01*
X125912433Y-88795869D01*
X125912434Y-88795871D01*
X125970127Y-89011186D01*
X125970130Y-89011196D01*
X126055430Y-89217128D01*
X126055432Y-89217132D01*
X126166889Y-89410180D01*
X126166894Y-89410186D01*
X126166895Y-89410188D01*
X126302588Y-89587028D01*
X126302594Y-89587035D01*
X126460207Y-89744648D01*
X126460214Y-89744654D01*
X126531264Y-89799172D01*
X126637063Y-89880354D01*
X126830111Y-89991811D01*
X127036056Y-90077116D01*
X127251374Y-90134810D01*
X127472380Y-90163906D01*
X127472387Y-90163906D01*
X127695287Y-90163906D01*
X127695294Y-90163906D01*
X127916300Y-90134810D01*
X128131618Y-90077116D01*
X128337563Y-89991811D01*
X128530611Y-89880354D01*
X128685487Y-89761513D01*
X128750656Y-89736320D01*
X128819101Y-89750358D01*
X128869090Y-89799172D01*
X128884973Y-89859890D01*
X128884973Y-91071971D01*
X128865288Y-91139010D01*
X128833858Y-91172289D01*
X128738611Y-91241489D01*
X128738606Y-91241493D01*
X128593852Y-91386247D01*
X128473539Y-91551847D01*
X128380605Y-91734237D01*
X128317346Y-91928926D01*
X128286674Y-92122587D01*
X128285324Y-92131109D01*
X128285324Y-92335813D01*
X128287509Y-92349610D01*
X128317346Y-92537995D01*
X128380605Y-92732684D01*
X128473539Y-92915074D01*
X128593852Y-93080674D01*
X128738610Y-93225432D01*
X128825638Y-93288660D01*
X128904214Y-93345748D01*
X128988783Y-93388838D01*
X129086600Y-93438679D01*
X129086602Y-93438679D01*
X129086605Y-93438681D01*
X129190961Y-93472588D01*
X129281289Y-93501938D01*
X129382381Y-93517949D01*
X129483472Y-93533961D01*
X129483473Y-93533961D01*
X129688175Y-93533961D01*
X129688176Y-93533961D01*
X129890358Y-93501938D01*
X130085043Y-93438681D01*
X130267434Y-93345748D01*
X130373726Y-93268523D01*
X130433037Y-93225432D01*
X130433039Y-93225429D01*
X130433043Y-93225427D01*
X130577790Y-93080680D01*
X130577792Y-93080676D01*
X130577795Y-93080674D01*
X130630556Y-93008051D01*
X130698111Y-92915071D01*
X130791044Y-92732680D01*
X130854301Y-92537995D01*
X130886324Y-92335813D01*
X130886324Y-92131109D01*
X130854301Y-91928927D01*
X130791044Y-91734242D01*
X130791042Y-91734239D01*
X130791042Y-91734237D01*
X130757327Y-91668068D01*
X130698111Y-91551851D01*
X130669988Y-91513143D01*
X130577795Y-91386247D01*
X130433041Y-91241493D01*
X130433036Y-91241489D01*
X130337088Y-91171779D01*
X130294422Y-91116449D01*
X130285973Y-91071461D01*
X130285973Y-90123277D01*
X131786861Y-90123277D01*
X131786861Y-92219012D01*
X131786862Y-92219018D01*
X131793269Y-92278625D01*
X131843563Y-92413470D01*
X131843567Y-92413477D01*
X131929813Y-92528686D01*
X131929816Y-92528689D01*
X132045025Y-92614935D01*
X132045032Y-92614939D01*
X132179878Y-92665233D01*
X132179877Y-92665233D01*
X132186805Y-92665977D01*
X132239488Y-92671642D01*
X134335233Y-92671641D01*
X134394844Y-92665233D01*
X134529692Y-92614938D01*
X134644907Y-92528688D01*
X134731157Y-92413473D01*
X134734114Y-92405545D01*
X134775983Y-92349610D01*
X134841447Y-92325191D01*
X134909720Y-92340041D01*
X134923182Y-92348557D01*
X135010453Y-92411962D01*
X135021892Y-92420273D01*
X135226724Y-92524640D01*
X135226726Y-92524641D01*
X135360462Y-92568094D01*
X135445360Y-92595679D01*
X135672417Y-92631642D01*
X135672418Y-92631642D01*
X135902304Y-92631642D01*
X135902305Y-92631642D01*
X136129362Y-92595679D01*
X136129365Y-92595678D01*
X136129366Y-92595678D01*
X136347995Y-92524641D01*
X136347995Y-92524640D01*
X136347998Y-92524640D01*
X136552830Y-92420273D01*
X136738813Y-92285149D01*
X136901368Y-92122594D01*
X137036492Y-91936611D01*
X137140859Y-91731779D01*
X137199321Y-91551851D01*
X137211897Y-91513147D01*
X137211897Y-91513146D01*
X137211898Y-91513143D01*
X137247861Y-91286086D01*
X137247861Y-91056198D01*
X137240442Y-91009357D01*
X138806796Y-91009357D01*
X138806796Y-91239245D01*
X138814215Y-91286085D01*
X138842759Y-91466303D01*
X138842759Y-91466306D01*
X138913796Y-91684935D01*
X139018167Y-91889773D01*
X139153283Y-92075746D01*
X139153287Y-92075751D01*
X139315845Y-92238309D01*
X139315850Y-92238313D01*
X139450047Y-92335812D01*
X139501827Y-92373432D01*
X139706659Y-92477799D01*
X139706661Y-92477800D01*
X139891924Y-92537995D01*
X139925295Y-92548838D01*
X140152352Y-92584801D01*
X140152353Y-92584801D01*
X140382239Y-92584801D01*
X140382240Y-92584801D01*
X140609297Y-92548838D01*
X140609300Y-92548837D01*
X140609301Y-92548837D01*
X140827930Y-92477800D01*
X140827930Y-92477799D01*
X140827933Y-92477799D01*
X141032765Y-92373432D01*
X141131474Y-92301715D01*
X141197279Y-92278235D01*
X141265333Y-92294060D01*
X141314028Y-92344165D01*
X141320541Y-92358699D01*
X141323499Y-92366631D01*
X141323502Y-92366636D01*
X141409748Y-92481845D01*
X141409751Y-92481848D01*
X141524960Y-92568094D01*
X141524967Y-92568098D01*
X141659813Y-92618392D01*
X141659812Y-92618392D01*
X141666740Y-92619136D01*
X141719423Y-92624801D01*
X143815168Y-92624800D01*
X143874779Y-92618392D01*
X144009627Y-92568097D01*
X144124842Y-92481847D01*
X144211092Y-92366632D01*
X144261387Y-92231784D01*
X144267796Y-92172174D01*
X144267795Y-90076429D01*
X144261387Y-90016818D01*
X144258951Y-90010288D01*
X144211093Y-89881972D01*
X144211089Y-89881965D01*
X144124843Y-89766756D01*
X144124840Y-89766753D01*
X144009631Y-89680507D01*
X144009624Y-89680503D01*
X143874778Y-89630209D01*
X143874779Y-89630209D01*
X143815179Y-89623802D01*
X143815177Y-89623801D01*
X143815169Y-89623801D01*
X143815160Y-89623801D01*
X141719425Y-89623801D01*
X141719419Y-89623802D01*
X141659812Y-89630209D01*
X141524967Y-89680503D01*
X141524960Y-89680507D01*
X141409751Y-89766753D01*
X141409748Y-89766756D01*
X141323502Y-89881965D01*
X141323497Y-89881973D01*
X141320539Y-89889906D01*
X141278665Y-89945837D01*
X141213200Y-89970251D01*
X141144927Y-89955397D01*
X141131474Y-89946885D01*
X141032768Y-89875172D01*
X141032767Y-89875171D01*
X141032765Y-89875170D01*
X140911915Y-89813594D01*
X140827930Y-89770801D01*
X140609299Y-89699764D01*
X140457925Y-89675788D01*
X140382240Y-89663801D01*
X140152352Y-89663801D01*
X140076666Y-89675788D01*
X139925293Y-89699764D01*
X139925290Y-89699764D01*
X139706661Y-89770801D01*
X139501823Y-89875172D01*
X139315850Y-90010288D01*
X139315845Y-90010292D01*
X139153287Y-90172850D01*
X139153283Y-90172855D01*
X139018167Y-90358828D01*
X138913796Y-90563666D01*
X138842759Y-90782295D01*
X138842759Y-90782298D01*
X138842759Y-90782300D01*
X138806796Y-91009357D01*
X137240442Y-91009357D01*
X137211898Y-90829141D01*
X137211897Y-90829137D01*
X137211897Y-90829136D01*
X137140860Y-90610507D01*
X137116992Y-90563664D01*
X137036492Y-90405673D01*
X137002457Y-90358828D01*
X136901373Y-90219696D01*
X136901369Y-90219691D01*
X136738811Y-90057133D01*
X136738806Y-90057129D01*
X136552833Y-89922013D01*
X136552832Y-89922012D01*
X136552830Y-89922011D01*
X136430911Y-89859890D01*
X136347995Y-89817642D01*
X136129364Y-89746605D01*
X135977990Y-89722629D01*
X135902305Y-89710642D01*
X135672417Y-89710642D01*
X135596731Y-89722629D01*
X135445358Y-89746605D01*
X135445355Y-89746605D01*
X135226726Y-89817642D01*
X135021892Y-89922010D01*
X134923182Y-89993727D01*
X134857375Y-90017206D01*
X134789321Y-90001380D01*
X134740627Y-89951274D01*
X134734115Y-89936740D01*
X134731159Y-89928815D01*
X134731154Y-89928806D01*
X134644908Y-89813597D01*
X134644905Y-89813594D01*
X134529696Y-89727348D01*
X134529689Y-89727344D01*
X134394843Y-89677050D01*
X134394844Y-89677050D01*
X134335244Y-89670643D01*
X134335242Y-89670642D01*
X134335234Y-89670642D01*
X134335225Y-89670642D01*
X132239490Y-89670642D01*
X132239484Y-89670643D01*
X132179877Y-89677050D01*
X132045032Y-89727344D01*
X132045025Y-89727348D01*
X131929816Y-89813594D01*
X131929813Y-89813597D01*
X131843567Y-89928806D01*
X131843563Y-89928813D01*
X131793269Y-90063659D01*
X131786862Y-90123258D01*
X131786861Y-90123277D01*
X130285973Y-90123277D01*
X130285973Y-88357442D01*
X145056458Y-88357442D01*
X145056458Y-88593637D01*
X145093404Y-88826908D01*
X145166391Y-89051536D01*
X145250765Y-89217128D01*
X145273615Y-89261973D01*
X145412441Y-89453050D01*
X145579448Y-89620057D01*
X145770525Y-89758883D01*
X145849597Y-89799172D01*
X145980961Y-89866106D01*
X145980963Y-89866106D01*
X145980966Y-89866108D01*
X146101370Y-89905229D01*
X146205589Y-89939093D01*
X146438861Y-89976040D01*
X146438866Y-89976040D01*
X146675055Y-89976040D01*
X146908326Y-89939093D01*
X146939964Y-89928813D01*
X147132950Y-89866108D01*
X147343391Y-89758883D01*
X147534468Y-89620057D01*
X147701475Y-89453050D01*
X147840301Y-89261973D01*
X147947526Y-89051532D01*
X148020511Y-88826908D01*
X148025429Y-88795858D01*
X148057458Y-88593637D01*
X148057458Y-88357442D01*
X148020511Y-88124171D01*
X147986647Y-88019952D01*
X147947526Y-87899548D01*
X147947524Y-87899545D01*
X147947524Y-87899543D01*
X147840300Y-87689106D01*
X147701475Y-87498030D01*
X147534468Y-87331023D01*
X147343391Y-87192197D01*
X147323690Y-87182159D01*
X147132954Y-87084973D01*
X146908326Y-87011986D01*
X146675055Y-86975040D01*
X146675050Y-86975040D01*
X146438866Y-86975040D01*
X146438861Y-86975040D01*
X146205589Y-87011986D01*
X145980961Y-87084973D01*
X145770524Y-87192197D01*
X145661508Y-87271402D01*
X145579448Y-87331023D01*
X145579446Y-87331025D01*
X145579445Y-87331025D01*
X145412443Y-87498027D01*
X145412443Y-87498028D01*
X145412441Y-87498030D01*
X145398926Y-87516632D01*
X145273615Y-87689106D01*
X145166391Y-87899543D01*
X145093404Y-88124171D01*
X145056458Y-88357442D01*
X130285973Y-88357442D01*
X130285973Y-73406045D01*
X130305658Y-73339006D01*
X130322292Y-73318364D01*
X131553837Y-72086819D01*
X131615160Y-72053334D01*
X131641518Y-72050500D01*
X133014649Y-72050500D01*
X133081688Y-72070185D01*
X133114964Y-72101611D01*
X133231753Y-72262358D01*
X133231758Y-72262365D01*
X133387636Y-72418243D01*
X133387641Y-72418247D01*
X133444408Y-72459490D01*
X133565978Y-72547815D01*
X133694375Y-72613237D01*
X133762393Y-72647895D01*
X133762396Y-72647896D01*
X133867221Y-72681955D01*
X133972049Y-72716015D01*
X134189778Y-72750500D01*
X134189779Y-72750500D01*
X134410221Y-72750500D01*
X134410222Y-72750500D01*
X134627951Y-72716015D01*
X134837606Y-72647895D01*
X135034022Y-72547815D01*
X135212365Y-72418242D01*
X135368242Y-72262365D01*
X135497815Y-72084022D01*
X135597895Y-71887606D01*
X135666015Y-71677951D01*
X135700500Y-71460222D01*
X135700500Y-71239778D01*
X135666015Y-71022049D01*
X135597895Y-70812394D01*
X135597895Y-70812393D01*
X135555518Y-70729225D01*
X135497815Y-70615978D01*
X135456266Y-70558790D01*
X135368247Y-70437641D01*
X135368243Y-70437636D01*
X135318071Y-70387464D01*
X135284586Y-70326141D01*
X135289570Y-70256449D01*
X135331442Y-70200516D01*
X135362420Y-70183601D01*
X135442326Y-70153798D01*
X135442326Y-70153797D01*
X135442331Y-70153796D01*
X135557546Y-70067546D01*
X135643796Y-69952331D01*
X135694091Y-69817483D01*
X135700500Y-69757873D01*
X135700499Y-67862135D01*
X139587950Y-67862135D01*
X139587950Y-69757870D01*
X139587951Y-69757876D01*
X139594358Y-69817483D01*
X139644652Y-69952328D01*
X139644656Y-69952335D01*
X139730902Y-70067544D01*
X139730905Y-70067547D01*
X139846114Y-70153793D01*
X139846121Y-70153797D01*
X139926030Y-70183601D01*
X139981964Y-70225472D01*
X140006381Y-70290936D01*
X139991530Y-70359209D01*
X139970379Y-70387463D01*
X139920206Y-70437636D01*
X139920202Y-70437641D01*
X139790637Y-70615974D01*
X139690554Y-70812393D01*
X139690553Y-70812396D01*
X139622435Y-71022047D01*
X139622435Y-71022049D01*
X139587950Y-71239778D01*
X139587950Y-71460222D01*
X139599047Y-71530285D01*
X139622435Y-71677952D01*
X139690553Y-71887603D01*
X139690554Y-71887606D01*
X139790637Y-72084025D01*
X139920202Y-72262358D01*
X139920206Y-72262363D01*
X140076086Y-72418243D01*
X140076091Y-72418247D01*
X140132858Y-72459490D01*
X140254428Y-72547815D01*
X140382825Y-72613237D01*
X140450843Y-72647895D01*
X140450846Y-72647896D01*
X140555671Y-72681955D01*
X140660499Y-72716015D01*
X140878228Y-72750500D01*
X140878229Y-72750500D01*
X141098671Y-72750500D01*
X141098672Y-72750500D01*
X141316401Y-72716015D01*
X141526056Y-72647895D01*
X141722472Y-72547815D01*
X141900815Y-72418242D01*
X142056692Y-72262365D01*
X142186265Y-72084022D01*
X142286345Y-71887606D01*
X142286347Y-71887600D01*
X142318735Y-71787918D01*
X145123387Y-71787918D01*
X145123387Y-73883653D01*
X145123388Y-73883659D01*
X145129795Y-73943266D01*
X145180089Y-74078111D01*
X145180093Y-74078118D01*
X145266339Y-74193327D01*
X145266342Y-74193330D01*
X145381551Y-74279576D01*
X145381560Y-74279581D01*
X145412350Y-74291065D01*
X145468284Y-74332936D01*
X145492702Y-74398400D01*
X145477851Y-74466673D01*
X145469337Y-74480131D01*
X145374754Y-74610315D01*
X145270384Y-74815152D01*
X145199347Y-75033781D01*
X145199347Y-75033784D01*
X145163384Y-75260843D01*
X145163384Y-75490730D01*
X145199347Y-75717789D01*
X145199347Y-75717792D01*
X145270384Y-75936421D01*
X145270386Y-75936424D01*
X145369742Y-76131422D01*
X145374755Y-76141259D01*
X145509871Y-76327232D01*
X145509875Y-76327237D01*
X145672433Y-76489795D01*
X145672438Y-76489799D01*
X145783511Y-76570498D01*
X145826177Y-76625827D01*
X145832156Y-76695441D01*
X145813614Y-76730582D01*
X145812054Y-76750398D01*
X146577440Y-77515783D01*
X146571226Y-77515783D01*
X146469493Y-77543042D01*
X146378281Y-77595703D01*
X146303807Y-77670177D01*
X146251146Y-77761389D01*
X146223887Y-77863122D01*
X146223887Y-77869335D01*
X145458502Y-77103950D01*
X145458501Y-77103950D01*
X145409392Y-77171544D01*
X145307919Y-77370694D01*
X145238852Y-77583264D01*
X145203887Y-77804021D01*
X145203887Y-78027544D01*
X145238852Y-78248301D01*
X145307919Y-78460871D01*
X145409394Y-78660025D01*
X145458501Y-78727614D01*
X145458501Y-78727615D01*
X146223887Y-77962229D01*
X146223887Y-77968444D01*
X146251146Y-78070177D01*
X146303807Y-78161389D01*
X146378281Y-78235863D01*
X146469493Y-78288524D01*
X146571226Y-78315783D01*
X146577440Y-78315783D01*
X145812053Y-79081167D01*
X145879644Y-79130275D01*
X146078798Y-79231750D01*
X146291363Y-79300816D01*
X146340296Y-79308566D01*
X146403431Y-79338496D01*
X146440363Y-79397807D01*
X146439365Y-79467669D01*
X146400756Y-79525902D01*
X146336793Y-79554017D01*
X146320899Y-79555040D01*
X145709087Y-79555040D01*
X145709081Y-79555041D01*
X145649474Y-79561448D01*
X145514629Y-79611742D01*
X145514622Y-79611746D01*
X145399413Y-79697992D01*
X145399410Y-79697995D01*
X145313164Y-79813204D01*
X145313160Y-79813211D01*
X145262866Y-79948057D01*
X145256459Y-80007656D01*
X145256459Y-80007663D01*
X145256458Y-80007675D01*
X145256458Y-81703410D01*
X145256459Y-81703416D01*
X145262866Y-81763023D01*
X145313160Y-81897868D01*
X145313164Y-81897875D01*
X145399410Y-82013084D01*
X145399413Y-82013087D01*
X145514622Y-82099333D01*
X145514629Y-82099337D01*
X145649475Y-82149631D01*
X145649474Y-82149631D01*
X145656402Y-82150375D01*
X145709085Y-82156040D01*
X147404830Y-82156039D01*
X147464441Y-82149631D01*
X147599289Y-82099336D01*
X147714504Y-82013086D01*
X147800754Y-81897871D01*
X147851049Y-81763023D01*
X147857458Y-81703413D01*
X147857457Y-80007668D01*
X147851049Y-79948057D01*
X147800754Y-79813209D01*
X147800753Y-79813208D01*
X147800751Y-79813204D01*
X147714505Y-79697995D01*
X147714502Y-79697992D01*
X147599293Y-79611746D01*
X147599286Y-79611742D01*
X147464440Y-79561448D01*
X147464441Y-79561448D01*
X147404841Y-79555041D01*
X147404839Y-79555040D01*
X147404831Y-79555040D01*
X147404823Y-79555040D01*
X146926876Y-79555040D01*
X146859837Y-79535355D01*
X146814082Y-79482551D01*
X146804138Y-79413393D01*
X146833163Y-79349837D01*
X146891941Y-79312063D01*
X146907479Y-79308567D01*
X146956404Y-79300818D01*
X147168975Y-79231750D01*
X147368128Y-79130276D01*
X147435718Y-79081167D01*
X147435719Y-79081167D01*
X146670334Y-78315783D01*
X146676548Y-78315783D01*
X146778281Y-78288524D01*
X146869493Y-78235863D01*
X146943967Y-78161389D01*
X146996628Y-78070177D01*
X147023887Y-77968444D01*
X147023887Y-77962231D01*
X147789271Y-78727615D01*
X147789271Y-78727614D01*
X147838380Y-78660024D01*
X147939854Y-78460871D01*
X148008921Y-78248301D01*
X148043887Y-78027544D01*
X148043887Y-77804021D01*
X148008921Y-77583264D01*
X147939854Y-77370694D01*
X147838379Y-77171540D01*
X147789271Y-77103950D01*
X147789271Y-77103949D01*
X147023887Y-77869334D01*
X147023887Y-77863122D01*
X146996628Y-77761389D01*
X146943967Y-77670177D01*
X146869493Y-77595703D01*
X146778281Y-77543042D01*
X146676548Y-77515783D01*
X146670332Y-77515783D01*
X147435719Y-76750397D01*
X147434292Y-76732273D01*
X147421592Y-76715804D01*
X147415612Y-76646190D01*
X147448218Y-76584395D01*
X147464256Y-76570498D01*
X147575336Y-76489794D01*
X147737891Y-76327239D01*
X147873015Y-76141256D01*
X147977382Y-75936424D01*
X148048421Y-75717788D01*
X148084384Y-75490731D01*
X148084384Y-75260843D01*
X148048421Y-75033786D01*
X148048420Y-75033782D01*
X148048420Y-75033781D01*
X147977383Y-74815152D01*
X147906040Y-74675134D01*
X147873015Y-74610318D01*
X147860724Y-74593401D01*
X147778432Y-74480134D01*
X147754952Y-74414328D01*
X147770778Y-74346274D01*
X147820884Y-74297579D01*
X147835418Y-74291067D01*
X147866213Y-74279581D01*
X147866213Y-74279580D01*
X147866218Y-74279579D01*
X147981433Y-74193329D01*
X148067683Y-74078114D01*
X148117978Y-73943266D01*
X148124387Y-73883656D01*
X148124386Y-71787911D01*
X148117978Y-71728300D01*
X148099199Y-71677952D01*
X148067684Y-71593454D01*
X148067680Y-71593447D01*
X147981434Y-71478238D01*
X147981431Y-71478235D01*
X147866222Y-71391989D01*
X147866215Y-71391985D01*
X147731369Y-71341691D01*
X147731370Y-71341691D01*
X147671770Y-71335284D01*
X147671768Y-71335283D01*
X147671760Y-71335283D01*
X147671751Y-71335283D01*
X145576016Y-71335283D01*
X145576010Y-71335284D01*
X145516403Y-71341691D01*
X145381558Y-71391985D01*
X145381551Y-71391989D01*
X145266342Y-71478235D01*
X145266339Y-71478238D01*
X145180093Y-71593447D01*
X145180089Y-71593454D01*
X145129795Y-71728300D01*
X145123388Y-71787899D01*
X145123388Y-71787906D01*
X145123387Y-71787918D01*
X142318735Y-71787918D01*
X142332267Y-71746272D01*
X142332267Y-71746271D01*
X142338106Y-71728299D01*
X142354465Y-71677951D01*
X142388950Y-71460222D01*
X142388950Y-71239778D01*
X142354465Y-71022049D01*
X142286345Y-70812394D01*
X142286345Y-70812393D01*
X142243968Y-70729225D01*
X142186265Y-70615978D01*
X142144716Y-70558790D01*
X142056697Y-70437641D01*
X142056693Y-70437636D01*
X142006521Y-70387464D01*
X141973036Y-70326141D01*
X141978020Y-70256449D01*
X142019892Y-70200516D01*
X142050870Y-70183601D01*
X142130776Y-70153798D01*
X142130776Y-70153797D01*
X142130781Y-70153796D01*
X142245996Y-70067546D01*
X142332246Y-69952331D01*
X142349463Y-69906171D01*
X142349464Y-69906169D01*
X142382540Y-69817485D01*
X142382541Y-69817483D01*
X142382541Y-69817482D01*
X142388950Y-69757873D01*
X142388949Y-67862128D01*
X142382541Y-67802517D01*
X142332246Y-67667669D01*
X142332245Y-67667668D01*
X142332243Y-67667664D01*
X142245997Y-67552455D01*
X142245994Y-67552452D01*
X142130785Y-67466206D01*
X142130778Y-67466202D01*
X141995932Y-67415908D01*
X141995933Y-67415908D01*
X141936333Y-67409501D01*
X141936331Y-67409500D01*
X141936323Y-67409500D01*
X141936314Y-67409500D01*
X140040579Y-67409500D01*
X140040573Y-67409501D01*
X139980966Y-67415908D01*
X139846121Y-67466202D01*
X139846114Y-67466206D01*
X139730905Y-67552452D01*
X139730902Y-67552455D01*
X139644656Y-67667664D01*
X139644652Y-67667671D01*
X139594358Y-67802517D01*
X139587951Y-67862116D01*
X139587951Y-67862123D01*
X139587950Y-67862135D01*
X135700499Y-67862135D01*
X135700499Y-67862128D01*
X135694091Y-67802517D01*
X135643796Y-67667669D01*
X135643795Y-67667668D01*
X135643793Y-67667664D01*
X135557547Y-67552455D01*
X135557544Y-67552452D01*
X135442335Y-67466206D01*
X135442328Y-67466202D01*
X135307482Y-67415908D01*
X135307483Y-67415908D01*
X135247883Y-67409501D01*
X135247881Y-67409500D01*
X135247873Y-67409500D01*
X135247864Y-67409500D01*
X133352129Y-67409500D01*
X133352123Y-67409501D01*
X133292516Y-67415908D01*
X133157671Y-67466202D01*
X133157664Y-67466206D01*
X133042455Y-67552452D01*
X133042452Y-67552455D01*
X132956206Y-67667664D01*
X132956202Y-67667671D01*
X132905908Y-67802517D01*
X132899501Y-67862116D01*
X132899501Y-67862123D01*
X132899500Y-67862135D01*
X132899500Y-69757870D01*
X132899501Y-69757876D01*
X132905908Y-69817483D01*
X132956202Y-69952328D01*
X132956206Y-69952335D01*
X133042452Y-70067544D01*
X133042455Y-70067547D01*
X133157664Y-70153793D01*
X133157671Y-70153797D01*
X133237580Y-70183601D01*
X133293514Y-70225472D01*
X133317931Y-70290936D01*
X133303080Y-70359209D01*
X133281929Y-70387463D01*
X133231758Y-70437634D01*
X133182997Y-70504747D01*
X133114965Y-70598386D01*
X133059638Y-70641051D01*
X133014649Y-70649500D01*
X131231003Y-70649500D01*
X131134534Y-70668689D01*
X131134532Y-70668689D01*
X131122591Y-70671065D01*
X131095671Y-70676420D01*
X131042866Y-70698292D01*
X130968189Y-70729225D01*
X130945940Y-70744092D01*
X130935760Y-70750893D01*
X130935755Y-70750896D01*
X130853456Y-70805886D01*
X129121017Y-72538325D01*
X129059694Y-72571810D01*
X128990002Y-72566826D01*
X128934069Y-72524954D01*
X128909652Y-72459490D01*
X128909336Y-72450644D01*
X128909336Y-71982914D01*
X128909335Y-71982908D01*
X128909334Y-71982901D01*
X128902928Y-71923302D01*
X128889614Y-71887606D01*
X128852634Y-71788456D01*
X128852630Y-71788449D01*
X128766384Y-71673240D01*
X128766381Y-71673237D01*
X128651172Y-71586991D01*
X128651165Y-71586987D01*
X128516319Y-71536693D01*
X128516320Y-71536693D01*
X128456720Y-71530286D01*
X128456718Y-71530285D01*
X128456710Y-71530285D01*
X128456701Y-71530285D01*
X126360966Y-71530285D01*
X126360960Y-71530286D01*
X126301353Y-71536693D01*
X126166508Y-71586987D01*
X126166501Y-71586991D01*
X126051292Y-71673237D01*
X126051289Y-71673240D01*
X125965043Y-71788449D01*
X125965039Y-71788456D01*
X125914745Y-71923302D01*
X125908338Y-71982901D01*
X125908338Y-71982908D01*
X125908337Y-71982920D01*
X125908337Y-74078655D01*
X125908338Y-74078661D01*
X125914745Y-74138268D01*
X125965039Y-74273113D01*
X125965043Y-74273120D01*
X126051289Y-74388329D01*
X126051292Y-74388332D01*
X126166501Y-74474578D01*
X126166504Y-74474580D01*
X126166505Y-74474580D01*
X126166506Y-74474581D01*
X126197303Y-74486067D01*
X126253235Y-74527937D01*
X126277653Y-74593401D01*
X126262802Y-74661674D01*
X126254287Y-74675134D01*
X126159708Y-74805311D01*
X126055337Y-75010150D01*
X125984300Y-75228779D01*
X125984300Y-75228782D01*
X125948337Y-75455841D01*
X125948337Y-75685728D01*
X125984300Y-75912787D01*
X125984300Y-75912790D01*
X126055337Y-76131419D01*
X126060351Y-76141259D01*
X126136082Y-76289890D01*
X126159708Y-76336257D01*
X126294824Y-76522230D01*
X126294828Y-76522235D01*
X126457386Y-76684793D01*
X126457391Y-76684797D01*
X126568465Y-76765497D01*
X126611131Y-76820827D01*
X126617110Y-76890440D01*
X126598563Y-76925590D01*
X126597004Y-76945400D01*
X127362390Y-77710785D01*
X127356176Y-77710785D01*
X127254443Y-77738044D01*
X127163231Y-77790705D01*
X127088757Y-77865179D01*
X127036096Y-77956391D01*
X127008837Y-78058124D01*
X127008837Y-78064337D01*
X126243452Y-77298952D01*
X126243451Y-77298952D01*
X126194342Y-77366546D01*
X126092869Y-77565696D01*
X126023802Y-77778266D01*
X125988837Y-77999023D01*
X125988837Y-78222546D01*
X126023802Y-78443303D01*
X126092869Y-78655873D01*
X126194344Y-78855027D01*
X126243451Y-78922616D01*
X126243451Y-78922617D01*
X127008837Y-78157231D01*
X127008837Y-78163446D01*
X127036096Y-78265179D01*
X127088757Y-78356391D01*
X127163231Y-78430865D01*
X127254443Y-78483526D01*
X127356176Y-78510785D01*
X127362390Y-78510785D01*
X126582145Y-79291027D01*
X126579437Y-79303918D01*
X126530383Y-79353672D01*
X126483442Y-79368553D01*
X126476353Y-79369315D01*
X126341508Y-79419608D01*
X126341501Y-79419612D01*
X126226292Y-79505858D01*
X126226289Y-79505861D01*
X126140043Y-79621070D01*
X126140039Y-79621077D01*
X126089745Y-79755923D01*
X126083338Y-79815522D01*
X126083337Y-79815541D01*
X126083337Y-81911276D01*
X126083338Y-81911282D01*
X126089745Y-81970889D01*
X126140039Y-82105734D01*
X126140043Y-82105741D01*
X126226289Y-82220950D01*
X126226292Y-82220953D01*
X126341501Y-82307199D01*
X126341508Y-82307203D01*
X126476354Y-82357497D01*
X126476353Y-82357497D01*
X126483281Y-82358241D01*
X126535964Y-82363906D01*
X128631709Y-82363905D01*
X128691320Y-82357497D01*
X128717638Y-82347680D01*
X128787330Y-82342696D01*
X128848653Y-82376180D01*
X128882139Y-82437503D01*
X128884973Y-82463862D01*
X128884973Y-87066921D01*
X128865288Y-87133960D01*
X128812484Y-87179715D01*
X128743326Y-87189659D01*
X128685487Y-87165297D01*
X128530620Y-87046464D01*
X128530614Y-87046460D01*
X128530611Y-87046458D01*
X128337563Y-86935001D01*
X128337559Y-86934999D01*
X128131627Y-86849699D01*
X128131620Y-86849697D01*
X128131618Y-86849696D01*
X127916300Y-86792002D01*
X127916294Y-86792001D01*
X127916289Y-86792000D01*
X127695303Y-86762907D01*
X127695300Y-86762906D01*
X127695294Y-86762906D01*
X127472380Y-86762906D01*
X127472374Y-86762906D01*
X127472370Y-86762907D01*
X127251384Y-86792000D01*
X127251377Y-86792001D01*
X127251374Y-86792002D01*
X127036056Y-86849696D01*
X127036046Y-86849699D01*
X126830114Y-86934999D01*
X126830110Y-86935001D01*
X126637063Y-87046458D01*
X126637054Y-87046464D01*
X126460214Y-87182157D01*
X126460207Y-87182163D01*
X126302594Y-87339776D01*
X126302588Y-87339783D01*
X126166895Y-87516623D01*
X126166889Y-87516632D01*
X126055432Y-87709679D01*
X126055430Y-87709683D01*
X125970130Y-87915615D01*
X125970127Y-87915625D01*
X125912434Y-88130940D01*
X125912431Y-88130953D01*
X125883338Y-88351939D01*
X125883337Y-88351955D01*
X121800500Y-88351955D01*
X121800500Y-67212706D01*
X121800618Y-67207297D01*
X121808436Y-67028234D01*
X122600000Y-67028234D01*
X122600000Y-67391765D01*
X122635632Y-67753556D01*
X122706550Y-68110090D01*
X122706553Y-68110101D01*
X122812086Y-68457997D01*
X122951207Y-68793864D01*
X122951209Y-68793869D01*
X123122570Y-69114462D01*
X123122581Y-69114480D01*
X123324551Y-69416750D01*
X123511678Y-69644765D01*
X123511679Y-69644766D01*
X125005747Y-68150697D01*
X125079588Y-68252330D01*
X125257670Y-68430412D01*
X125359301Y-68504251D01*
X123865232Y-69998319D01*
X123865233Y-69998320D01*
X124093249Y-70185448D01*
X124395519Y-70387418D01*
X124395537Y-70387429D01*
X124716130Y-70558790D01*
X124716135Y-70558792D01*
X125052002Y-70697913D01*
X125399898Y-70803446D01*
X125399909Y-70803449D01*
X125756443Y-70874367D01*
X126118234Y-70910000D01*
X126481766Y-70910000D01*
X126843556Y-70874367D01*
X127200090Y-70803449D01*
X127200101Y-70803446D01*
X127547997Y-70697913D01*
X127883864Y-70558792D01*
X127883869Y-70558790D01*
X128204462Y-70387429D01*
X128204480Y-70387418D01*
X128506736Y-70185457D01*
X128506750Y-70185447D01*
X128734765Y-69998320D01*
X128734766Y-69998319D01*
X127240698Y-68504251D01*
X127342330Y-68430412D01*
X127520412Y-68252330D01*
X127594251Y-68150698D01*
X129088319Y-69644766D01*
X129088320Y-69644765D01*
X129275447Y-69416750D01*
X129275457Y-69416736D01*
X129477418Y-69114480D01*
X129477429Y-69114462D01*
X129648790Y-68793869D01*
X129648792Y-68793864D01*
X129787913Y-68457997D01*
X129893446Y-68110101D01*
X129893449Y-68110090D01*
X129964367Y-67753556D01*
X130000000Y-67391765D01*
X130000000Y-67028234D01*
X145100000Y-67028234D01*
X145100000Y-67391765D01*
X145135632Y-67753556D01*
X145206550Y-68110090D01*
X145206553Y-68110101D01*
X145312086Y-68457997D01*
X145451207Y-68793864D01*
X145451209Y-68793869D01*
X145622570Y-69114462D01*
X145622581Y-69114480D01*
X145824551Y-69416750D01*
X146011678Y-69644765D01*
X146011679Y-69644766D01*
X147505747Y-68150697D01*
X147579588Y-68252330D01*
X147757670Y-68430412D01*
X147859301Y-68504251D01*
X146365232Y-69998319D01*
X146365233Y-69998320D01*
X146593249Y-70185448D01*
X146895519Y-70387418D01*
X146895537Y-70387429D01*
X147216130Y-70558790D01*
X147216135Y-70558792D01*
X147552002Y-70697913D01*
X147899898Y-70803446D01*
X147899909Y-70803449D01*
X148256443Y-70874367D01*
X148618234Y-70910000D01*
X148981766Y-70910000D01*
X149343556Y-70874367D01*
X149700090Y-70803449D01*
X149700101Y-70803446D01*
X150047997Y-70697913D01*
X150383864Y-70558792D01*
X150383869Y-70558790D01*
X150704462Y-70387429D01*
X150704480Y-70387418D01*
X151006736Y-70185457D01*
X151006750Y-70185447D01*
X151234765Y-69998320D01*
X151234766Y-69998319D01*
X149740698Y-68504251D01*
X149842330Y-68430412D01*
X150020412Y-68252330D01*
X150094251Y-68150698D01*
X151588319Y-69644766D01*
X151588320Y-69644765D01*
X151775447Y-69416750D01*
X151775457Y-69416736D01*
X151977418Y-69114480D01*
X151977429Y-69114462D01*
X152148790Y-68793869D01*
X152148792Y-68793864D01*
X152287913Y-68457997D01*
X152393446Y-68110101D01*
X152393449Y-68110090D01*
X152464367Y-67753556D01*
X152500000Y-67391765D01*
X152500000Y-67028234D01*
X152464367Y-66666443D01*
X152393449Y-66309909D01*
X152393446Y-66309898D01*
X152287913Y-65962002D01*
X152148792Y-65626135D01*
X152148790Y-65626130D01*
X151977429Y-65305537D01*
X151977418Y-65305519D01*
X151775448Y-65003249D01*
X151588320Y-64775233D01*
X151588319Y-64775232D01*
X150094251Y-66269300D01*
X150020412Y-66167670D01*
X149842330Y-65989588D01*
X149740698Y-65915748D01*
X151234766Y-64421679D01*
X151234765Y-64421678D01*
X151006750Y-64234551D01*
X150704480Y-64032581D01*
X150704462Y-64032570D01*
X150383869Y-63861209D01*
X150383864Y-63861207D01*
X150047997Y-63722086D01*
X149700101Y-63616553D01*
X149700090Y-63616550D01*
X149343556Y-63545632D01*
X148981766Y-63510000D01*
X148618234Y-63510000D01*
X148256443Y-63545632D01*
X147899909Y-63616550D01*
X147899898Y-63616553D01*
X147552002Y-63722086D01*
X147216135Y-63861207D01*
X147216130Y-63861209D01*
X146895537Y-64032570D01*
X146895519Y-64032581D01*
X146593258Y-64234545D01*
X146593254Y-64234548D01*
X146365233Y-64421679D01*
X146365233Y-64421680D01*
X147859301Y-65915748D01*
X147757670Y-65989588D01*
X147579588Y-66167670D01*
X147505748Y-66269301D01*
X146011680Y-64775233D01*
X146011679Y-64775233D01*
X145824548Y-65003254D01*
X145824545Y-65003258D01*
X145622581Y-65305519D01*
X145622570Y-65305537D01*
X145451209Y-65626130D01*
X145451207Y-65626135D01*
X145312086Y-65962002D01*
X145206553Y-66309898D01*
X145206550Y-66309909D01*
X145135632Y-66666443D01*
X145100000Y-67028234D01*
X130000000Y-67028234D01*
X129964367Y-66666443D01*
X129893449Y-66309909D01*
X129893446Y-66309898D01*
X129787913Y-65962002D01*
X129648792Y-65626135D01*
X129648790Y-65626130D01*
X129477429Y-65305537D01*
X129477418Y-65305519D01*
X129275448Y-65003249D01*
X129088320Y-64775233D01*
X129088319Y-64775232D01*
X127594251Y-66269300D01*
X127520412Y-66167670D01*
X127342330Y-65989588D01*
X127240698Y-65915748D01*
X128734766Y-64421679D01*
X128734765Y-64421678D01*
X128506750Y-64234551D01*
X128204480Y-64032581D01*
X128204462Y-64032570D01*
X127883869Y-63861209D01*
X127883864Y-63861207D01*
X127547997Y-63722086D01*
X127200101Y-63616553D01*
X127200090Y-63616550D01*
X126843556Y-63545632D01*
X126481766Y-63510000D01*
X126118234Y-63510000D01*
X125756443Y-63545632D01*
X125399909Y-63616550D01*
X125399898Y-63616553D01*
X125052002Y-63722086D01*
X124716135Y-63861207D01*
X124716130Y-63861209D01*
X124395537Y-64032570D01*
X124395519Y-64032581D01*
X124093258Y-64234545D01*
X124093254Y-64234548D01*
X123865233Y-64421679D01*
X123865233Y-64421680D01*
X125359301Y-65915748D01*
X125257670Y-65989588D01*
X125079588Y-66167670D01*
X125005748Y-66269301D01*
X123511680Y-64775233D01*
X123511679Y-64775233D01*
X123324548Y-65003254D01*
X123324545Y-65003258D01*
X123122581Y-65305519D01*
X123122570Y-65305537D01*
X122951209Y-65626130D01*
X122951207Y-65626135D01*
X122812086Y-65962002D01*
X122706553Y-66309898D01*
X122706550Y-66309909D01*
X122635632Y-66666443D01*
X122600000Y-67028234D01*
X121808436Y-67028234D01*
X121808805Y-67019778D01*
X121808805Y-67019777D01*
X121810433Y-66982498D01*
X121817386Y-66823228D01*
X121818326Y-66812495D01*
X121868152Y-66434025D01*
X121870025Y-66423405D01*
X121952649Y-66050709D01*
X121955440Y-66040295D01*
X122070230Y-65676227D01*
X122073917Y-65666095D01*
X122220003Y-65313412D01*
X122224561Y-65303638D01*
X122400822Y-64965045D01*
X122406217Y-64955700D01*
X122611325Y-64633744D01*
X122617515Y-64624905D01*
X122849896Y-64322060D01*
X122856834Y-64313791D01*
X123114726Y-64032352D01*
X123122352Y-64024726D01*
X123403791Y-63766834D01*
X123412060Y-63759896D01*
X123714905Y-63527515D01*
X123723744Y-63521325D01*
X124045700Y-63316217D01*
X124055045Y-63310822D01*
X124393638Y-63134561D01*
X124403412Y-63130003D01*
X124756095Y-62983917D01*
X124766227Y-62980230D01*
X125130295Y-62865440D01*
X125140709Y-62862649D01*
X125513405Y-62780025D01*
X125524025Y-62778152D01*
X125902495Y-62728326D01*
X125913226Y-62727386D01*
X126297297Y-62710617D01*
X126302706Y-62710500D01*
X126365892Y-62710500D01*
X148734108Y-62710500D01*
X148797294Y-62710500D01*
X148802702Y-62710617D01*
G37*
%TD.AperFunction*%
%TD*%
M02*
