M48
; DRILL file KiCad 10.0.1-10.0.1~ubuntu25.10.1 date 2026-10-01T18:22:01
; FORMAT={-:-/ absolute / metric / decimal}
; #@! TF.CreationDate,2026-10-01T18:22:01+00:00
; #@! TF.GenerationSoftware,Kicad,Pcbnew,10.0.1-10.0.1~ubuntu25.10.1
; #@! TF.FileFunction,MixedPlating,1,2
FMAT,2
METRIC
; #@! TA.AperFunction,Plated,PTH,ComponentDrill
T1C0.600
; #@! TA.AperFunction,Plated,PTH,ViaDrill
T2C0.800
; #@! TA.AperFunction,Plated,PTH,ComponentDrill
T3C0.800
; #@! TA.AperFunction,Plated,PTH,ComponentDrill
T4C0.900
; #@! TA.AperFunction,Plated,PTH,ComponentDrill
T5C3.200
%
G90
G05
T2
X129.586Y-92.233
X138.636Y-94.381
X146.475Y-94.401
T3
X127.409Y-73.031
X127.409Y-75.571
X127.409Y-78.111
X127.584Y-80.863
X127.584Y-88.483
X131.3Y-96.3
X131.3Y-106.46
X133.287Y-91.171
X135.787Y-91.171
X135.8Y-96.3
X135.8Y-106.46
X140.267Y-91.124
X140.3Y-96.3
X140.3Y-106.46
X142.767Y-91.124
X144.55Y-96.3
X144.55Y-106.46
X146.557Y-80.856
X146.557Y-88.476
X146.624Y-75.376
X146.624Y-72.836
X146.624Y-77.916
T4
X134.3Y-68.81
X134.3Y-71.35
X140.988Y-68.81
X140.988Y-71.35
T5
X126.3Y-67.21
X126.3Y-114.71
X148.8Y-67.21
X148.8Y-114.71
T1
G00X133.415Y-113.075
M15
G01X133.415Y-113.675
M16
G05
G00X133.415Y-116.875
M15
G01X133.415Y-117.475
M16
G05
G00X142.055Y-113.075
M15
G01X142.055Y-113.675
M16
G05
G00X142.055Y-116.875
M15
G01X142.055Y-117.475
M16
G05
M30
